<svg width="30" height="30" viewBox="0 0 30 30" fill="none" xmlns="http://www.w3.org/2000/svg">
<path d="M15 1.875C7.75195 1.875 1.875 7.75195 1.875 15C1.875 22.248 7.75195 28.125 15 28.125C22.248 28.125 28.125 22.248 28.125 15C28.125 7.75195 22.248 1.875 15 1.875ZM20.6689 10.7139L14.499 19.2686C14.4128 19.3889 14.2991 19.487 14.1674 19.5546C14.0357 19.6223 13.8898 19.6576 13.7417 19.6576C13.5936 19.6576 13.4477 19.6223 13.316 19.5546C13.1843 19.487 13.0706 19.3889 12.9844 19.2686L9.33105 14.2061C9.21973 14.0508 9.33105 13.834 9.52148 13.834H10.8955C11.1943 13.834 11.4785 13.9775 11.6543 14.2236L13.7402 17.1182L18.3457 10.7314C18.5215 10.4883 18.8027 10.3418 19.1045 10.3418H20.4785C20.6689 10.3418 20.7803 10.5586 20.6689 10.7139Z" fill="#4353FF"/>
</svg>
