<svg width="300" height="204" viewBox="0 0 300 204" fill="none" xmlns="http://www.w3.org/2000/svg">
<g clip-path="url(#clip0_152_2098)">
<path d="M52.9389 47.999L1.02942 119.875C-1.17066 122.921 0.0917047 126.189 5.40243 129.207C7.14594 130.197 9.23608 131.109 11.6121 131.938L52.9389 47.999Z" fill="#A0A1DB"/>
<path d="M52.9392 47.999L11.6123 131.938C14.7255 133.024 18.3315 133.965 22.2907 134.749L52.9392 47.999Z" fill="#A8A9DE"/>
<path d="M52.939 47.999L22.2905 134.749C25.8306 135.45 29.6539 136.026 33.6634 136.464L52.939 47.999Z" fill="#B4B5DF"/>
<path d="M52.9392 47.999L33.6636 136.464C37.8762 136.926 42.2945 137.239 46.8046 137.39L52.9392 47.999Z" fill="#BCBDE3"/>
<path d="M52.9391 47.999L46.8044 137.391C50.5644 137.518 54.3877 137.534 58.2084 137.43L52.9391 47.999Z" fill="#C6C7E8"/>
<path d="M52.939 47.999L58.2096 137.43C64.2446 137.268 70.2758 136.812 76.0405 136.036C80.4639 135.441 84.4489 134.696 87.9553 133.835L52.939 47.999Z" fill="#D1D2EC"/>
<path d="M52.939 47.999L87.9553 133.836C92.9026 132.62 96.8979 131.169 99.8262 129.577L52.939 47.999Z" fill="#C6C7E8"/>
<path d="M52.939 47.999L99.8262 129.577C101.883 128.458 103.414 127.269 104.382 126.042L52.939 47.999Z" fill="#BCBDE3"/>
<path d="M52.939 47.999L104.382 126.04C105.296 124.88 105.705 123.685 105.577 122.482L52.939 47.999Z" fill="#B4B5DF"/>
<path d="M52.939 47.999L105.577 122.482C105.491 121.678 105.165 120.869 104.588 120.065L52.939 47.999Z" fill="#A8A9DE"/>
</g>
<g clip-path="url(#clip1_152_2098)">
<path d="M180.316 0L62.3399 163.354C57.3397 170.277 60.2087 177.705 72.2785 184.563C76.241 186.815 80.9913 188.887 86.3913 190.771L180.316 0Z" fill="#A0A1DB"/>
<path d="M180.316 0L86.3914 190.771C93.4669 193.237 101.662 195.377 110.66 197.159L180.316 0Z" fill="#A8A9DE"/>
<path d="M180.316 0L110.66 197.159C118.706 198.752 127.395 200.06 136.508 201.057L180.316 0Z" fill="#B4B5DF"/>
<path d="M180.316 0L136.508 201.057C146.082 202.106 156.123 202.818 166.374 203.161L180.316 0Z" fill="#BCBDE3"/>
<path d="M180.316 0L166.374 203.164C174.919 203.453 183.608 203.488 192.292 203.253L180.316 0Z" fill="#C6C7E8"/>
<path d="M180.316 0L192.295 203.253C206.011 202.885 219.718 201.847 232.82 200.084C242.873 198.732 251.93 197.038 259.899 195.081L180.316 0Z" fill="#D1D2EC"/>
<path d="M180.316 0L259.899 195.084C271.143 192.32 280.223 189.022 286.878 185.404L180.316 0Z" fill="#C6C7E8"/>
<path d="M180.316 0L286.878 185.404C291.552 182.861 295.032 180.159 297.231 177.37L180.316 0Z" fill="#BCBDE3"/>
<path d="M180.316 0L297.231 177.367C299.309 174.73 300.238 172.014 299.947 169.28L180.316 0Z" fill="#B4B5DF"/>
<path d="M180.316 0L299.947 169.28C299.753 167.452 299.013 165.615 297.701 163.786L180.316 0Z" fill="#A8A9DE"/>
</g>
<g clip-path="url(#clip2_152_2098)">
<path d="M129.087 73.0664C118.908 67.0177 114.011 55.1479 115.444 44.8771C118.73 19.7663 150.667 10.3782 166.82 30.9476C184.175 54.3624 160.882 85.372 133.584 75.2788L129.087 73.0692V73.0664Z" fill="#DB470E"/>
<path d="M172.636 45.8485L172.38 43.8387C172.261 43.1309 172.047 42.1954 171.897 41.4931L171.323 39.4944C171.076 38.7616 170.69 37.8011 170.412 37.0794L169.496 35.1474C169.102 34.4117 168.522 33.4596 168.091 32.7434L166.823 30.9474C166.27 30.2451 165.479 29.3513 164.888 28.6795L163.272 27.1028C162.562 26.481 161.568 25.7093 160.824 25.1263L158.889 23.8467C158.204 23.4386 157.254 22.9528 156.549 22.5753L154.392 21.6343C153.501 21.3039 152.288 20.932 151.381 20.6488L149.146 20.1464C148.28 19.9993 147.117 19.8716 146.245 19.7661L144.038 19.6772C143.236 19.6828 142.17 19.755 141.368 19.7994L139.253 20.0742C138.531 20.1991 137.579 20.424 136.863 20.5822L134.886 21.1651C134.248 21.3817 133.412 21.7203 132.782 21.9618L130.972 22.8057C130.411 23.0916 129.687 23.5163 129.137 23.8244L127.505 24.8848C127.016 25.2291 126.389 25.7232 125.912 26.0813L124.465 27.3304C124.041 27.7218 123.505 28.2798 123.094 28.6851L121.834 30.1091C121.467 30.5505 121.015 31.1667 120.665 31.622L119.594 33.2181C119.286 33.715 118.911 34.4006 118.619 34.9059L117.748 36.6852C117.456 37.3514 117.112 38.2591 116.848 38.9392L116.26 40.8158C116.099 41.4042 115.927 42.2037 115.785 42.7978L115.463 44.7326C115.383 45.3627 115.324 46.2066 115.266 46.8395L115.224 48.8242C115.235 49.496 115.302 50.3871 115.341 51.0588L115.596 53.0686C115.716 53.7765 115.929 54.7119 116.079 55.4142L116.654 57.4129C116.901 58.1457 117.287 59.1062 117.564 59.8279L118.481 61.7599C118.875 62.4956 119.455 63.4477 119.885 64.1639L121.154 65.9599C121.706 66.6622 122.497 67.556 123.089 68.2278L124.704 69.8045C125.415 70.4263 126.408 71.198 127.152 71.781L129.087 73.0607C129.773 73.4687 130.722 73.9545 131.427 74.332C132.074 74.6152 132.937 74.9899 133.584 75.273C134.475 75.6034 135.688 75.9754 136.596 76.2585L138.831 76.7609C139.697 76.9081 140.86 77.0357 141.731 77.1412L143.938 77.2301C144.741 77.2245 145.806 77.1523 146.609 77.1079L148.724 76.8331C149.446 76.7082 150.398 76.4833 151.114 76.3251L153.09 75.7422C153.729 75.5257 154.564 75.187 155.195 74.9455L157.004 74.1016C157.565 73.8157 158.29 73.391 158.839 73.0829L160.472 72.0225C160.96 71.6783 161.588 71.1841 162.065 70.826L163.511 69.5769C163.936 69.1855 164.472 68.6275 164.883 68.2223L166.143 66.7982C166.509 66.3568 166.962 65.7406 167.311 65.2853L168.383 63.6892C168.691 63.1923 169.066 62.5067 169.357 62.0015L170.229 60.2221C170.52 59.5559 170.865 58.6482 171.128 57.9681L171.717 56.0916C171.878 55.5031 172.05 54.7036 172.191 54.1096L172.513 52.1748C172.594 51.5446 172.652 50.7008 172.711 50.0678L172.752 48.0831C172.741 47.4113 172.674 46.5202 172.636 45.8485ZM129.656 42.2953C129.212 30.5477 133.906 23.4886 143.608 21.3178C160.524 17.5315 179.623 39.3195 169.08 56.4718C160.641 70.1987 134.628 67.2646 129.687 42.6812C129.678 42.5646 129.665 42.4119 129.656 42.2953Z" fill="#E74B00"/>
<path d="M135.286 49.3574C126.198 32.2661 139.68 18.4116 154.992 23.1806C170.787 28.0995 177.899 51.5614 162.179 59.8142C153.296 64.4777 140.729 59.5921 135.286 49.3574Z" fill="#CE4217"/>
<path d="M140.849 51.5283C130.986 40.1527 135.924 22.3008 152.211 23.897C166.531 25.3016 176.308 45.4019 163.925 55.534C157.601 60.7083 147.25 58.9123 140.849 51.5283Z" fill="#C14021"/>
<path d="M144.957 50.6565C135.275 41.9569 138.531 26.6533 150.234 25.8455C163.503 24.9295 171.739 41.063 165.518 49.932C161.546 55.5949 152.555 57.4825 144.957 50.6565Z" fill="#B23F28"/>
<path d="M149.082 48.6523C140.763 42.7924 141.476 30.9393 150.276 28.8351C159.736 26.5756 167.75 37.9512 164.394 45.4684C161.868 51.1312 154.712 52.6191 149.082 48.6523Z" fill="#A53F2F"/>
<path d="M150.895 42.8311C150.556 42.5119 149.851 41.8485 149.049 39.3113C148.846 38.6728 148.821 37.6985 149.077 37.0795C149.118 36.9823 150.079 34.6672 150.451 34.4146C151.714 33.5568 152.805 32.8184 154.92 33.1127C154.939 33.1127 156.985 33.5346 158.084 34.4174C158.101 34.4312 160.141 36.6714 160.538 37.6291C161.266 39.3779 161.041 42.2399 159.383 43.8443C159.234 43.9887 155.675 47.3281 150.892 42.8256" fill="#993E34"/>
</g>
<defs>
<clipPath id="clip0_152_2098">
<rect width="105.6" height="89.4997" fill="white" transform="translate(0 47.999)"/>
</clipPath>
<clipPath id="clip1_152_2098">
<rect width="240" height="203.408" fill="white" transform="translate(60)"/>
</clipPath>
<clipPath id="clip2_152_2098">
<rect width="57.6" height="57.5584" fill="white" transform="translate(115.199 19.6802)"/>
</clipPath>
</defs>
</svg>
