<svg width="511" height="424" viewBox="0 0 511 424" fill="none" xmlns="http://www.w3.org/2000/svg">
<g clip-path="url(#clip0_130_11978)">
<path d="M110.29 100L2.14511 249.741C-2.43839 256.087 0.191529 262.896 11.2555 269.183C14.8878 271.247 19.2423 273.146 24.1923 274.874L110.29 100Z" fill="#A0A1DB"/>
<path d="M110.29 100L24.1921 274.874C30.678 277.134 38.1905 279.096 46.4386 280.729L110.29 100Z" fill="#A8A9DE"/>
<path d="M110.29 100L46.4386 280.729C53.8137 282.189 61.7789 283.389 70.1322 284.302L110.29 100Z" fill="#B4B5DF"/>
<path d="M110.29 100L70.1322 284.302C78.9085 285.264 88.1132 285.916 97.5092 286.231L110.29 100Z" fill="#BCBDE3"/>
<path d="M110.29 100L97.5092 286.234C105.342 286.498 113.308 286.53 121.267 286.315L110.29 100Z" fill="#C6C7E8"/>
<path d="M110.29 100L121.27 286.315C133.843 285.978 146.408 285.027 158.418 283.41C167.633 282.171 175.935 280.618 183.24 278.824L110.29 100Z" fill="#D1D2EC"/>
<path d="M110.29 100L183.24 278.827C193.547 276.294 201.871 273.27 207.971 269.953L110.29 100Z" fill="#C6C7E8"/>
<path d="M110.29 100L207.971 269.953C212.256 267.622 215.446 265.146 217.462 262.589L110.29 100Z" fill="#BCBDE3"/>
<path d="M110.29 100L217.462 262.586C219.367 260.169 220.218 257.679 219.951 255.173L110.29 100Z" fill="#B4B5DF"/>
<path d="M110.29 100L219.952 255.173C219.774 253.497 219.095 251.813 217.893 250.137L110.29 100Z" fill="#A8A9DE"/>
</g>
<g clip-path="url(#clip1_130_11978)">
<path d="M375.659 0L129.876 340.321C119.459 354.743 125.436 370.219 150.581 384.506C158.836 389.197 168.733 393.514 179.983 397.44L375.659 0Z" fill="#A0A1DB"/>
<path d="M375.658 0L179.982 397.44C194.723 402.578 211.797 407.036 230.542 410.748L375.658 0Z" fill="#A8A9DE"/>
<path d="M375.658 0L230.542 410.748C247.304 414.067 265.407 416.792 284.391 418.868L375.658 0Z" fill="#B4B5DF"/>
<path d="M375.658 0L284.391 418.868C304.337 421.054 325.257 422.537 346.612 423.253L375.658 0Z" fill="#BCBDE3"/>
<path d="M375.658 0L346.612 423.259C364.414 423.859 382.517 423.933 400.608 423.443L375.658 0Z" fill="#C6C7E8"/>
<path d="M375.658 0L400.614 423.443C429.189 422.677 457.745 420.515 485.04 416.841C505.985 414.024 524.853 410.497 541.455 406.418L375.658 0Z" fill="#D1D2EC"/>
<path d="M375.658 0L541.455 406.424C564.88 400.667 583.797 393.796 597.662 386.258L375.658 0Z" fill="#C6C7E8"/>
<path d="M375.658 0L597.662 386.257C607.399 380.96 614.65 375.332 619.231 369.52L375.658 0Z" fill="#BCBDE3"/>
<path d="M375.658 0L619.231 369.514C623.561 364.021 625.496 358.362 624.89 352.667L375.658 0Z" fill="#B4B5DF"/>
<path d="M375.658 0L624.89 352.667C624.486 348.858 622.942 345.03 620.211 341.221L375.658 0Z" fill="#A8A9DE"/>
</g>
<g clip-path="url(#clip2_130_11978)">
<path d="M268.933 152.221C247.726 139.62 237.525 114.891 240.509 93.4934C247.356 41.1792 313.891 21.6206 347.543 64.4736C383.699 113.254 335.173 177.858 278.302 156.83L268.933 152.227V152.221Z" fill="#DB470E"/>
<path d="M359.659 95.5175L359.127 91.3305C358.878 89.8558 358.433 87.9069 358.121 86.4438L356.923 82.2799C356.409 80.7532 355.605 78.7522 355.027 77.2486L353.118 73.2235C352.297 71.691 351.088 69.7074 350.192 68.2153L347.549 64.4737C346.398 63.0105 344.75 61.1484 343.518 59.7488L340.152 56.464C338.672 55.1686 336.601 53.5609 335.052 52.3464L331.021 49.6804C329.592 48.8303 327.614 47.8182 326.146 47.0317L321.652 45.0712C319.796 44.3831 317.268 43.6081 315.377 43.0182L310.722 41.9715C308.918 41.665 306.494 41.399 304.679 41.1792L300.081 40.9941C298.41 41.0057 296.189 41.1561 294.518 41.2486L290.111 41.8211C288.607 42.0814 286.624 42.5498 285.132 42.8794L281.014 44.0939C279.684 44.545 277.943 45.2505 276.63 45.7537L272.86 47.5117C271.692 48.1074 270.182 48.9922 269.037 49.6341L265.637 51.8433C264.619 52.5604 263.312 53.5898 262.317 54.3358L259.304 56.9382C258.419 57.7537 257.303 58.9161 256.447 59.7604L253.822 62.7272C253.058 63.6467 252.116 64.9305 251.387 65.879L249.155 69.2043C248.513 70.2394 247.732 71.6679 247.125 72.7204L245.309 76.4274C244.702 77.8153 243.985 79.7064 243.435 81.1233L242.209 85.0327C241.874 86.2587 241.515 87.9243 241.22 89.1619L240.549 93.1927C240.382 94.5055 240.26 96.2635 240.139 97.5821L240.052 101.717C240.075 103.117 240.214 104.973 240.295 106.372L240.827 110.559C241.076 112.034 241.521 113.983 241.833 115.446L243.03 119.61C243.545 121.137 244.349 123.138 244.927 124.641L246.836 128.666C247.657 130.199 248.866 132.183 249.762 133.675L252.405 137.416C253.556 138.879 255.204 140.742 256.436 142.141L259.801 145.426C261.282 146.721 263.352 148.329 264.902 149.544L268.933 152.21C270.361 153.06 272.339 154.072 273.808 154.858C275.156 155.448 276.954 156.229 278.302 156.819C280.158 157.507 282.685 158.282 284.576 158.872L289.232 159.918C291.036 160.225 293.459 160.491 295.275 160.711L299.873 160.896C301.544 160.884 303.765 160.734 305.436 160.641L309.843 160.069C311.347 159.809 313.33 159.34 314.822 159.011L318.94 157.796C320.27 157.345 322.011 156.639 323.323 156.136L327.094 154.378C328.262 153.783 329.772 152.898 330.917 152.256L334.317 150.047C335.335 149.33 336.642 148.3 337.637 147.554L340.65 144.952C341.534 144.136 342.651 142.974 343.507 142.13L346.132 139.163C346.895 138.243 347.838 136.959 348.567 136.011L350.799 132.686C351.441 131.651 352.222 130.222 352.829 129.17L354.645 125.463C355.252 124.075 355.969 122.184 356.519 120.767L357.745 116.857C358.08 115.631 358.439 113.966 358.734 112.728L359.404 108.697C359.572 107.385 359.694 105.626 359.815 104.308L359.902 100.173C359.879 98.7734 359.74 96.917 359.659 95.5175ZM270.119 88.1151C269.193 63.6409 278.973 48.9344 299.185 44.412C334.427 36.5238 374.215 81.9156 352.251 117.65C334.67 146.247 280.476 140.134 270.182 88.919C270.165 88.6761 270.136 88.358 270.119 88.1151Z" fill="#E74B00"/>
<path d="M281.847 102.827C262.913 67.2207 291.001 38.357 322.901 48.2925C355.807 58.5402 370.624 107.419 337.874 124.612C319.368 134.328 293.187 124.15 281.847 102.827Z" fill="#CE4217"/>
<path d="M293.436 107.35C272.889 83.6508 283.177 46.4595 317.107 49.7848C346.942 52.711 367.31 94.5867 341.511 115.695C328.337 126.475 306.772 122.733 293.436 107.35Z" fill="#C14021"/>
<path d="M301.995 105.534C281.824 87.4098 288.607 55.5274 312.989 53.8445C340.632 51.9361 357.791 85.5477 344.831 104.025C336.555 115.822 317.824 119.755 301.995 105.534Z" fill="#B23F28"/>
<path d="M310.589 101.359C293.257 89.1506 294.743 64.4566 313.076 60.073C332.785 55.3655 349.48 79.0648 342.489 94.7255C337.226 106.523 322.317 109.623 310.589 101.359Z" fill="#A53F2F"/>
<path d="M314.365 89.2315C313.66 88.5665 312.191 87.1843 310.52 81.8985C310.097 80.5684 310.045 78.5385 310.577 77.2489C310.664 77.0465 312.665 72.2233 313.44 71.6971C316.071 69.9101 318.344 68.3718 322.751 68.9848C322.791 68.9848 327.054 69.8638 329.344 71.7028C329.378 71.7318 333.629 76.3987 334.456 78.3939C335.971 82.0373 335.503 87.9997 332.05 91.3424C331.738 91.6431 324.324 98.6002 314.36 89.2199" fill="#993E34"/>
</g>
<defs>
<clipPath id="clip0_130_11978">
<rect width="220" height="186.458" fill="white" transform="translate(0 100)"/>
</clipPath>
<clipPath id="clip1_130_11978">
<rect width="500" height="423.767" fill="white" transform="translate(125)"/>
</clipPath>
<clipPath id="clip2_130_11978">
<rect width="120" height="119.913" fill="white" transform="translate(240 41)"/>
</clipPath>
</defs>
</svg>
