<svg width="100" height="101" viewBox="0 0 100 101" fill="none" xmlns="http://www.w3.org/2000/svg">
<g clip-path="url(#clip0_50_29)">
<path d="M0 50.3899C0.012577 52.2073 0.12577 54.0058 0.333291 55.7729C0.729468 55.4144 1.19482 55.2258 1.74821 55.2069C1.98717 55.1943 2.41479 54.163 2.4085 53.6096C2.4085 52.9745 2.0815 52.0626 1.77965 51.7859C1.20111 51.2514 0.603698 50.8112 0 50.3899Z" fill="#4353FF"/>
<path d="M26.3992 6.69106C26.3174 6.559 26.2734 6.28231 26.2546 6.00562C24.607 6.89858 23.016 7.88588 21.4816 8.94864H28.2166C27.6443 8.44556 27.0406 7.73496 26.3992 6.69106Z" fill="#4353FF"/>
<path d="M77.789 8.9485C77.7638 8.77242 77.7449 8.59006 77.7261 8.41398C72.5129 4.93014 66.6143 2.39587 60.2817 1.0627C60.0239 1.60351 59.6592 1.99969 59.2378 2.11288C58.8479 2.21979 58.4518 2.21979 58.0619 2.2701C57.6657 2.23865 57.2758 2.20092 56.8796 2.1569C56.2571 2.08773 55.7854 1.43372 55.7351 0.326944C53.8549 0.113134 51.9431 -0.00634766 50.0063 -0.00634766C47.799 -0.00634766 45.6232 0.138288 43.4914 0.421272C43.4537 0.848891 43.4222 1.2828 43.3971 1.72928C43.2587 4.1818 42.4538 3.73532 41.7683 2.26381C41.1395 0.924353 40.3911 0.704255 39.5359 1.25136C38.731 1.76701 37.9889 1.89278 37.3161 1.62867C35.7502 2.03742 34.2221 2.52164 32.7192 3.07503C32.738 3.16935 32.7506 3.26368 32.738 3.33914C32.3481 6.14382 31.757 7.98636 30.9961 8.94221H31.2728C36.9828 6.32619 43.3279 4.86725 50.0063 4.86725C50.742 4.86725 51.4715 4.88612 52.201 4.92385C52.4651 4.81066 52.7355 4.72262 52.9933 4.65344C53.7668 4.43963 54.4271 4.61571 54.9805 5.14395C59.8415 5.67847 64.4699 6.98648 68.7398 8.94221H77.7952L77.789 8.9485Z" fill="#4353FF"/>
<path d="M79.7321 88.8441C79.7698 88.6366 79.8013 88.4039 79.8327 88.1587C79.7132 88.2027 79.6 88.2404 79.4806 88.2845L79.7321 88.8441Z" fill="#4353FF"/>
<path d="M89.5611 78.3926C88.9511 78.5749 88.3537 78.9774 87.8191 79.5937C87.5299 79.9269 87.2532 80.3105 86.9702 80.6501C86.1653 81.5871 85.2534 82.0965 84.3479 82.499C83.3354 82.9454 82.2789 83.2913 81.3545 84.2912C81.0212 84.6496 80.5496 85.1653 80.3044 85.7753C80.0654 86.3727 79.9459 87.3348 79.8327 88.1649C81.1847 87.6933 82.5431 87.2028 83.8951 86.7311C86.6243 84.2094 89.0706 81.3922 91.1835 78.3297C90.8879 78.3234 90.5924 78.2982 90.4603 78.2982C90.1585 78.2919 89.8629 78.3108 89.5673 78.3988L89.5611 78.3926Z" fill="#4353FF"/>
<path d="M99.8554 46.1828C98.9435 44.5038 98.7423 42.2776 98.931 39.7497C98.931 39.7497 98.931 39.7497 98.9372 39.7497C97.6229 33.4737 95.1327 27.6254 91.6992 22.45C90.8125 25.7766 89.8944 26.8519 88.3411 26.2356C91.4476 31.2287 93.6046 36.8632 94.5604 42.9002C94.8937 43.1203 95.271 43.1643 95.7301 42.9065C95.8684 42.831 96.4407 44.1642 96.3778 44.5667C96.0068 46.9689 95.5414 49.3208 95.0887 51.6727C95.0761 51.9871 95.0635 52.3078 95.0446 52.6223C96.8998 52.3581 96.9186 52.4336 97.3337 55.1691C97.6984 57.5525 98.1009 59.9169 98.4656 62.3003C99.4655 58.3637 100 54.2384 100 49.9937C100 48.7108 99.9497 47.4342 99.8554 46.1765V46.1828ZM95.8433 37.0393C95.5603 36.096 95.8433 34.3227 96.3904 34.1089C96.7363 33.9768 97.3211 34.0334 97.4594 34.4547C97.9751 36.0646 98.365 37.838 98.7926 39.561C97.5538 40.0326 96.5413 39.3661 95.8433 37.0393Z" fill="#4353FF"/>
<path d="M76.2797 86.6683C76.2734 86.7311 76.2608 86.7877 76.2483 86.8506C76.1162 87.775 76.9777 89.0642 77.4431 88.6303C77.7198 88.3724 78.1097 87.5109 78.0594 87.121C77.9902 86.5802 77.9084 86.0394 77.8204 85.5049C77.3173 85.9011 76.8017 86.2847 76.2734 86.662L76.2797 86.6683Z" fill="#4353FF"/>
<path d="M89.995 74.9213C90.4981 74.9213 90.6741 74.0723 90.4666 73.1165C90.3911 72.758 90.2214 72.2801 90.0641 72.2361C89.8315 72.1669 89.5925 72.1103 89.3598 72.0537C88.077 74.3302 86.6055 76.4934 84.9579 78.5057C85.7314 79.6377 86.7061 80.0779 87.6179 78.556C87.4859 74.8773 88.6995 74.9087 89.9887 74.9213H89.995Z" fill="#4353FF"/>
<path d="M93.9127 64.3189C94.9 60.7973 94.9189 56.9802 95.0132 53.1631C94.6485 58.3888 93.3908 63.3693 91.3973 67.96C92.1834 69.1422 93.0009 70.249 93.7995 71.3935C93.2776 68.9976 93.2901 66.5262 93.9127 64.3189Z" fill="#4353FF"/>
<path d="M83.8574 20.205C84.0335 18.7712 84.7189 18.0795 85.4169 17.6519C85.7691 17.438 86.159 17.5009 86.5363 17.4695C87.882 22.2173 87.9763 22.3305 89.8252 19.8088C88.9888 18.7083 88.1084 17.6456 87.184 16.6205C86.9702 16.8218 86.7501 17.0167 86.5426 17.2242C86.335 16.5702 86.1338 15.9162 85.9263 15.2685C84.3542 13.6398 82.6751 12.118 80.8955 10.7156C80.7446 10.703 80.5936 10.6905 80.449 10.6779C79.6818 10.5961 78.9083 10.5207 78.1411 10.4389C78.1348 10.4829 78.1285 10.5333 78.1222 10.5773C77.9776 10.0302 77.8707 9.49565 77.789 8.95483H68.7335C70.0289 9.55224 71.2929 10.2 72.5255 10.9106C72.6638 10.9231 72.7833 10.9672 72.8776 11.0552C72.9216 11.0992 72.9657 11.1495 73.0034 11.1935C74.9025 12.3255 76.7136 13.5895 78.4178 14.9792C78.6819 15.193 78.946 15.4131 79.2102 15.6395C80.864 17.0482 82.4173 18.5763 83.8574 20.205Z" fill="#4353FF"/>
<path d="M66.4005 97.2394C67.9034 96.7175 69.3686 96.1263 70.8024 95.466C70.9282 93.1707 71.098 90.8943 72.3683 89.4479C72.4752 89.3222 72.5632 89.1775 72.6449 89.0266C70.5257 90.2592 68.3059 91.3219 65.9854 92.2023C66.0546 93.9631 66.1112 95.6296 66.4005 97.2394Z" fill="#4353FF"/>
<path d="M60.8791 94.7868C60.8603 94.4661 60.8351 94.1454 60.8162 93.8247C59.9736 94.0322 59.1183 94.2209 58.2568 94.3781C59.0995 94.6045 59.9484 94.8309 60.7911 95.0635C61.0175 96.2835 61.1307 97.5161 61.181 98.7549C61.8287 98.604 62.4764 98.4405 63.1116 98.2707C63.1178 97.95 63.1241 97.623 63.1241 97.3023C63.1053 94.202 62.8474 93.9065 60.8728 94.7994L60.8791 94.7868Z" fill="#4353FF"/>
<path d="M74.9403 92.8123C74.8208 92.9695 74.7453 93.2085 74.6887 93.4726C75.11 93.2336 75.5314 92.9821 75.9464 92.7305C75.8584 92.7117 75.7766 92.6928 75.6886 92.6676C75.437 92.5985 75.1541 92.523 74.9403 92.8123Z" fill="#4353FF"/>
<path d="M94.3718 73.0349C94.6485 72.5066 94.9126 71.9784 95.1704 71.4376C94.7428 71.1735 94.3152 70.8339 93.8813 70.5886C94.0636 71.3998 94.2271 72.2111 94.3718 73.0286V73.0349Z" fill="#4353FF"/>
<path d="M15.7527 79.3612C15.5263 80.688 15.1176 80.4994 14.0423 79.248C12.0802 76.9715 10.1371 74.9089 7.73488 76.0786C7.55251 76.1666 7.37643 76.066 7.22551 75.8647C10.049 80.512 13.6021 84.6687 17.7273 88.1651C17.7839 87.5865 17.8594 87.0206 17.9914 86.5112C18.4002 84.8951 18.8593 83.7883 19.4001 83.1406C18.1109 81.952 16.891 80.688 15.7527 79.3549V79.3612Z" fill="#4353FF"/>
<path d="M6.88593 73.6197C7.31983 72.2174 7.75374 70.7962 8.28198 69.5385C8.45806 69.1234 8.64042 68.7713 8.83537 68.5009C6.28852 62.8538 4.86731 56.5904 4.86731 50.0063C4.86731 42.9255 6.50862 36.2156 9.43278 30.2478C9.16866 30.0529 8.75362 30.1158 8.44548 30.1535C7.68457 30.2478 6.69727 30.9458 6.84191 28.3424C6.8985 27.3362 7.45189 26.0911 7.93611 25.6258C8.84165 24.7516 9.9107 24.563 10.8288 23.7329C11.7973 22.8588 12.4764 23.0537 13.1053 24.0473C17.3815 17.9852 23.1166 13.0236 29.795 9.6655C29.3108 9.69065 28.7888 9.45797 28.2229 8.96118H21.4879C12.8537 14.9604 6.20048 23.6197 2.71035 33.7442C2.60973 34.0335 2.51541 34.3291 2.41479 34.6246C2.51541 34.8321 2.61602 35.0522 2.71035 35.2849V35.2975C3.14426 36.3854 3.46497 37.706 3.68507 39.2467C3.84857 40.3849 3.50899 42.5607 3.15055 42.3343C2.99962 42.24 2.85499 42.1205 2.71035 41.9948C2.50283 41.8124 2.3016 41.6175 2.11294 41.3785C1.69161 40.8565 1.35203 40.2717 1.08163 39.624C0.647718 41.6615 0.33958 43.743 0.16979 45.8622C0.33958 45.9691 0.534524 46.1137 0.760911 46.2772C1.33317 46.6986 1.95573 46.8055 2.5217 47.2457C2.59087 47.3023 2.64747 47.3714 2.71664 47.428C4.59062 49.0568 5.33266 52.2639 4.67237 55.9804C4.39567 57.5274 4.28248 59.414 3.76053 60.5144C3.23859 61.6338 2.91158 62.816 2.71664 64.0486C2.6286 64.5957 2.572 65.1554 2.53427 65.7213C2.59716 65.9037 2.65375 66.0861 2.71664 66.2621C3.85486 69.5699 5.33895 72.7205 7.1186 75.6761C6.84191 75.1415 6.70356 74.236 6.89221 73.6197H6.88593Z" fill="#4353FF"/>
<path d="M51.503 95.1076C51.0062 95.1264 50.5031 95.1327 50 95.1327C46.8872 95.1327 43.8435 94.8183 40.9068 94.2146C40.8502 94.3844 40.8062 94.573 40.7747 94.8057C40.4729 96.8055 40.0704 98.8178 38.9196 98.7675C42.4852 99.5787 46.1954 100.006 50.0063 100.006C50.8615 100.006 51.7168 99.9874 52.5594 99.9434C52.3456 99.3712 52.1758 98.6291 52.0249 97.7362C51.8803 96.8369 51.679 95.9817 51.503 95.1076Z" fill="#4353FF"/>
<path d="M30.9835 8.94849C30.9144 9.03024 30.8515 9.1057 30.7823 9.17487C30.9395 9.09941 31.103 9.02395 31.2665 8.94849H30.9898H30.9835Z" fill="#4353FF"/>
<path d="M37.4859 95.0635C37.2469 94.3781 37.0016 93.7115 36.7249 93.1392C32.7506 91.913 29.0089 90.1522 25.5817 87.9386C25.3616 88.5926 25.0409 89.1083 24.563 89.385C24.0096 89.7057 23.3115 89.9321 22.8085 89.5422C20.161 87.5047 19.7208 87.14 18.3688 88.6995C24.1856 93.4599 31.0904 96.9438 38.6492 98.7046C37.8946 98.321 37.9009 96.2395 37.4921 95.0635H37.4859Z" fill="#4353FF"/>
</g>
<defs>
<clipPath id="clip0_50_29">
<rect width="100" height="100.006" fill="white"/>
</clipPath>
</defs>
</svg>
