<svg width="60" height="60" viewBox="0 0 60 60" fill="none" xmlns="http://www.w3.org/2000/svg">
<g clip-path="url(#clip0_125_6270)">
<path d="M41.4123 49.9702L28.8632 52.4003C25.9072 52.9719 23.5098 50.3638 23.5098 47.5793V18.0211C23.5098 15.2365 25.9056 12.5157 28.8632 11.9425L41.4123 9.51238C44.3683 8.94078 46.7657 10.7323 46.7657 13.5168V43.8917C46.7657 46.6762 44.3699 49.397 41.4123 49.9702Z" fill="url(#paint0_linear_125_6270)"/>
<path fill-rule="evenodd" clip-rule="evenodd" d="M31.5073 47.4612L18.9583 49.8913C15.6198 50.5369 13.0098 47.598 13.0098 44.5794V15.0212C13.0098 11.9698 15.6033 9.06514 18.7681 8.45177L31.3172 6.02164C32.9162 5.71245 34.4018 6.03686 35.4969 6.85579C36.5962 7.67781 37.2657 8.97239 37.2657 10.517V40.8918C37.2657 43.9432 34.6721 46.8479 31.5073 47.4612ZM31.4123 6.51252C34.3683 5.94092 36.7657 7.73248 36.7657 10.517V40.8918C36.7657 43.6763 34.3699 46.3971 31.4123 46.9703L18.8632 49.4005C15.9072 49.9721 13.5098 47.3639 13.5098 44.5794V15.0212C13.5098 12.2367 15.9056 9.51587 18.8632 8.94263L31.4123 6.51252Z" fill="white"/>
<path d="M31.4123 46.9703L18.8632 49.4004C15.9072 49.972 13.5098 47.3639 13.5098 44.5794V15.0212C13.5098 12.2367 15.9056 9.51585 18.8632 8.94262L31.4123 6.5125C34.3683 5.94091 36.7657 7.73246 36.7657 10.517V40.8918C36.7657 43.6763 34.3699 46.3971 31.4123 46.9703Z" fill="url(#paint1_linear_125_6270)"/>
<path d="M25.0397 35.4451C20.9111 35.4451 17.5518 32.0858 17.5518 27.9572C17.5518 23.8286 20.9111 20.4692 25.0397 20.4692C29.1683 20.4692 32.5277 23.8286 32.5277 27.9572C32.5277 32.0858 29.1683 35.4451 25.0397 35.4451ZM25.0397 21.9668C21.7359 21.9668 19.0493 24.6533 19.0493 27.9572C19.0493 31.261 21.7359 33.9476 25.0397 33.9476C28.3436 33.9476 31.0301 31.261 31.0301 27.9572C31.0301 24.6533 28.3436 21.9668 25.0397 21.9668Z" fill="url(#paint2_linear_125_6270)"/>
<path d="M25.0396 35.4451C23.9682 35.4451 23.0177 34.5796 22.3645 33.0101C21.7978 31.6481 21.4858 29.8533 21.4858 27.9572C21.4858 26.0611 21.7978 24.2663 22.3645 22.9043C23.0177 21.3348 23.9682 20.4692 25.0396 20.4692C26.1109 20.4692 27.0614 21.3348 27.7146 22.9043C28.2813 24.2663 28.5933 26.0611 28.5933 27.9572C28.5933 29.8533 28.2813 31.6481 27.7146 33.0101C27.0614 34.5796 26.1109 35.4451 25.0396 35.4451ZM25.0396 21.9668C24.2018 21.9668 22.9834 24.3006 22.9834 27.9572C22.9834 31.6138 24.2018 33.9476 25.0396 33.9476C25.8774 33.9476 27.0957 31.6138 27.0957 27.9572C27.0957 24.3006 25.8774 21.9668 25.0396 21.9668Z" fill="url(#paint3_linear_125_6270)"/>
<path d="M31.7795 28.7052H18.3012C17.888 28.7052 17.5532 28.3704 17.5532 27.9572C17.5532 27.544 17.888 27.2092 18.3012 27.2092H31.7795C32.1927 27.2092 32.5275 27.544 32.5275 27.9572C32.5275 28.3704 32.1927 28.7052 31.7795 28.7052Z" fill="url(#paint4_linear_125_6270)"/>
</g>
<defs>
<linearGradient id="paint0_linear_125_6270" x1="24.9867" y1="61.779" x2="62.1929" y2="49.1507" gradientUnits="userSpaceOnUse">
<stop stop-color="#E0E1F3"/>
<stop offset="1" stop-color="#4353FF"/>
</linearGradient>
<linearGradient id="paint1_linear_125_6270" x1="36.7935" y1="29.7144" x2="10.3241" y2="30.1227" gradientUnits="userSpaceOnUse">
<stop offset="0.338663" stop-color="white"/>
<stop offset="1" stop-color="white" stop-opacity="0"/>
</linearGradient>
<linearGradient id="paint2_linear_125_6270" x1="18.5028" y1="38.6783" x2="37.6539" y2="26.6391" gradientUnits="userSpaceOnUse">
<stop stop-color="#E0E1F3"/>
<stop offset="1" stop-color="#4353FF"/>
</linearGradient>
<linearGradient id="paint3_linear_125_6270" x1="21.9372" y1="38.6783" x2="33.5815" y2="35.2042" gradientUnits="userSpaceOnUse">
<stop stop-color="#E0E1F3"/>
<stop offset="1" stop-color="#4353FF"/>
</linearGradient>
<linearGradient id="paint4_linear_125_6270" x1="18.5042" y1="29.0282" x2="19.1623" y2="24.8871" gradientUnits="userSpaceOnUse">
<stop stop-color="#E0E1F3"/>
<stop offset="1" stop-color="#4353FF"/>
</linearGradient>
<clipPath id="clip0_125_6270">
<rect width="60" height="60" fill="white"/>
</clipPath>
</defs>
</svg>
