<svg width="60" height="60" viewBox="0 0 60 60" fill="none" xmlns="http://www.w3.org/2000/svg">
<g clip-path="url(#clip0_125_6254)">
<path fill-rule="evenodd" clip-rule="evenodd" d="M33.5341 43.2182C33.5436 43.2187 33.5532 43.2192 33.5628 43.2195C34.2258 43.2424 34.8922 43.2293 35.5601 43.1787C36.0778 43.1395 36.5171 42.7949 36.7017 42.3099C37.2994 40.7453 38.4981 39.4127 40.1525 38.6892C41.7709 37.9804 43.5184 37.9886 45.047 38.57C45.5958 38.7807 46.218 38.6533 46.6426 38.2466C47.0901 37.8204 47.6307 37.288 47.9524 36.9107C48.2872 36.522 48.3737 35.9684 48.1631 35.5013C47.4722 33.9694 47.3759 32.173 48.0373 30.4859C48.6922 28.812 49.9677 27.5642 51.4963 26.9061C51.9674 26.7024 52.2942 26.263 52.3287 25.754C52.3301 25.7361 52.3312 25.7181 52.3318 25.7C52.3547 25.037 52.3416 24.3707 52.291 23.7027C52.2541 23.2157 51.947 22.7981 51.5069 22.5966C51.4789 22.5836 51.4503 22.5715 51.4212 22.5603C49.8599 21.9626 48.5305 20.7638 47.8087 19.1144C47.0868 17.4633 47.1081 15.675 47.7286 14.1235C47.9214 13.6433 47.8332 13.093 47.4804 12.7124C47.0215 12.2176 46.5365 11.7522 46.0302 11.3161C46.0167 11.3045 46.003 11.2932 45.9892 11.2823C45.6027 10.9709 45.0673 10.8951 44.6136 11.0998C43.3122 11.6866 41.8198 11.8445 40.3658 11.4731C40.113 11.4081 39.8613 11.3271 39.6119 11.2296C37.9363 10.5747 36.6886 9.29755 36.0288 7.76566C35.8214 7.28225 35.3641 6.95072 34.8383 6.93112C34.2762 6.91184 33.7119 6.91695 33.1462 6.95038C33.0361 6.95678 32.926 6.96425 32.8158 6.9728L32.8154 6.97324C32.7805 6.97631 32.746 6.98076 32.712 6.98654C32.2394 7.0615 31.8464 7.39037 31.6726 7.84164C31.0749 9.40292 29.8761 10.7323 28.2267 11.4541C26.7412 12.1036 25.1448 12.1515 23.7096 11.7027C23.5497 11.6524 23.3919 11.5959 23.2364 11.5333C22.7546 11.3406 22.2043 11.4288 21.8238 11.7816C21.3322 12.2372 20.87 12.719 20.4372 13.2204C20.4088 13.2533 20.3823 13.2874 20.3577 13.3224C20.0774 13.7127 20.0356 14.2281 20.2324 14.6747C20.9069 16.1952 20.9967 17.9769 20.3419 19.6509C19.687 21.3265 18.4098 22.5742 16.878 23.234C16.3946 23.4414 16.063 23.8987 16.0434 24.4246C16.0206 25.0909 16.032 25.7605 16.0843 26.4317C16.1235 26.9494 16.468 27.3871 16.9531 27.5733C18.516 28.171 19.847 29.3697 20.5705 31.0241C21.294 32.6785 21.2711 34.4716 20.6456 36.0264C20.4529 36.5082 20.5411 37.0585 20.8939 37.4391C21.3495 37.9306 21.8313 38.3928 22.3327 38.8256C22.7328 39.1702 23.2962 39.2355 23.778 39.0216C25.0911 38.4361 26.5996 38.286 28.065 38.676C28.0646 38.6766 28.0643 38.6772 28.064 38.6778C28.3041 38.7415 28.5441 38.8182 28.7809 38.9129C28.9022 38.9604 29.0213 39.011 29.138 39.0648C30.631 39.7584 31.745 40.9614 32.3536 42.381C32.5607 42.8614 33.0113 43.1944 33.5341 43.2182ZM31.7662 33.181C33.6176 33.7347 35.6677 33.6602 37.577 32.8246C41.8559 30.953 43.8091 25.9654 41.9359 21.6849C41.6783 21.0958 41.3617 20.5508 40.9961 20.0538C38.7046 16.9414 34.4881 15.7117 30.7972 17.3269C26.5168 19.1985 24.5652 24.1861 26.4384 28.4666C27.4617 30.8062 29.4168 32.4506 31.6784 33.1542C31.7076 33.1633 31.7369 33.1722 31.7662 33.181Z" fill="url(#paint0_linear_125_6254)"/>
<path fill-rule="evenodd" clip-rule="evenodd" d="M16.2354 42.6552L19.8439 52.9632L23.6552 42.7278L33.9632 39.1212L23.7278 35.3099L20.1212 25L16.3099 35.2354L6 38.8439L16.2354 42.6552ZM7.47194 38.8584L16.6298 42.2685L19.8584 51.4913L23.2685 42.3333L32.491 39.1065L23.3333 35.6965L20.1065 26.4723L16.6965 35.6298L7.47194 38.8584Z" fill="white"/>
<path d="M19.8439 52.9632L16.2354 42.6552L6 38.8439L16.3099 35.2354L20.1212 25L23.7278 35.3099L33.9632 39.1212L23.6552 42.7278L19.8439 52.9632Z" fill="url(#paint1_linear_125_6254)"/>
<path d="M22.0199 40.3836C22.8248 39.2618 22.5679 37.6999 21.4461 36.895C20.3243 36.0901 18.7624 36.347 17.9574 37.4688C17.1525 38.5906 17.4094 40.1525 18.5312 40.9574C19.653 41.7624 21.215 41.5055 22.0199 40.3836Z" fill="url(#paint2_linear_125_6254)"/>
</g>
<defs>
<linearGradient id="paint0_linear_125_6254" x1="18.3382" y1="51.0696" x2="64.7716" y2="21.8793" gradientUnits="userSpaceOnUse">
<stop stop-color="#E0E1F3"/>
<stop offset="1" stop-color="#4353FF"/>
</linearGradient>
<linearGradient id="paint1_linear_125_6254" x1="33.9966" y1="40.1316" x2="2.18788" y2="41.0404" gradientUnits="userSpaceOnUse">
<stop offset="0.338663" stop-color="white"/>
<stop offset="1" stop-color="white" stop-opacity="0"/>
</linearGradient>
<linearGradient id="paint2_linear_125_6254" x1="21.6246" y1="42.7862" x2="22.0863" y2="35.2479" gradientUnits="userSpaceOnUse">
<stop stop-color="#E0E1F3"/>
<stop offset="1" stop-color="#4353FF"/>
</linearGradient>
<clipPath id="clip0_125_6254">
<rect width="60" height="60" fill="white"/>
</clipPath>
</defs>
</svg>
