<svg width="60" height="60" viewBox="0 0 60 60" fill="none" xmlns="http://www.w3.org/2000/svg">
<g clip-path="url(#clip0_124_6164)">
<path fill-rule="evenodd" clip-rule="evenodd" d="M7.78027 32.0504C7.78027 20.6641 17.0108 11.4336 28.3971 11.4336C39.7833 11.4336 49.0138 20.6641 49.0138 32.0504C49.0138 43.4366 39.7833 52.6672 28.3971 52.6672C17.0108 52.6672 7.78027 43.4366 7.78027 32.0504ZM13.8196 32.0504C13.8196 40.1001 20.3457 46.6278 28.3971 46.6278C36.4468 46.6278 42.9745 40.1001 42.9745 32.0504C42.9745 24.0006 36.4468 17.473 28.3971 17.473C20.3473 17.473 13.8196 24.0006 13.8196 32.0504ZM18.2339 32.0505C18.2339 26.4374 22.7838 21.8875 28.3969 21.8875C34.01 21.8875 38.56 26.439 38.56 32.0505C38.56 37.662 34.01 42.2135 28.3969 42.2135C22.7838 42.2135 18.2339 37.6636 18.2339 32.0505Z" fill="url(#paint0_linear_124_6164)"/>
<path fill-rule="evenodd" clip-rule="evenodd" d="M47.2943 13.114H54.6516C55.6039 13.114 56.0791 14.2654 55.4069 14.9376L49.9424 20.4021C49.7428 20.6017 49.4704 20.7151 49.1871 20.7151H43.7011L30.7808 33.6354C29.6546 34.7616 27.8306 34.7616 26.7045 33.6354C25.5783 32.5093 25.5783 30.6853 26.7045 29.5592L39.6248 16.6388V11.1528C39.6248 10.8695 39.7382 10.5971 39.9378 10.3975L45.4023 4.93301C46.0746 4.26077 47.226 4.73602 47.226 5.68831V13.0456C47.226 13.083 47.2569 13.114 47.2943 13.114ZM40.1248 16.8459L27.058 29.9127C26.1271 30.8436 26.1271 32.351 27.058 33.2819C27.9889 34.2128 29.4963 34.2128 30.4272 33.2819L43.494 20.2151H49.1871C49.3374 20.2151 49.4827 20.1547 49.5889 20.0485L55.0533 14.584C55.411 14.2264 55.1579 13.614 54.6516 13.614H47.2943C46.9807 13.614 46.726 13.3592 46.726 13.0456V5.68831C46.726 5.18204 46.1135 4.9289 45.7559 5.28656L40.2914 10.7511C40.1852 10.8572 40.1248 11.0026 40.1248 11.1528V16.8459Z" fill="#ECCCBB"/>
<path d="M54.6516 13.614H47.2943C46.9807 13.614 46.726 13.3592 46.726 13.0456V5.68835C46.726 5.18207 46.1135 4.92893 45.7559 5.28659L40.2914 10.7511C40.1852 10.8572 40.1248 11.0026 40.1248 11.1528V16.846L27.058 29.9127C26.1271 30.8436 26.1271 32.351 27.058 33.2819C27.9889 34.2128 29.4963 34.2128 30.4272 33.2819L43.494 20.2151H49.1871C49.3374 20.2151 49.4827 20.1547 49.5889 20.0486L55.0533 14.5841C55.411 14.2264 55.1579 13.614 54.6516 13.614Z" fill="url(#paint1_linear_124_6164)"/>
</g>
<defs>
<linearGradient id="paint0_linear_124_6164" x1="10.3989" y1="61.5692" x2="63.1279" y2="28.4212" gradientUnits="userSpaceOnUse">
<stop stop-color="#E0E1F3"/>
<stop offset="1" stop-color="#4353FF"/>
</linearGradient>
<linearGradient id="paint1_linear_124_6164" x1="55.2553" y1="20.7365" x2="22.4254" y2="21.6745" gradientUnits="userSpaceOnUse">
<stop offset="0.338663" stop-color="#ECCCBB"/>
<stop offset="1" stop-color="#ECCCBB" stop-opacity="0"/>
</linearGradient>
<clipPath id="clip0_124_6164">
<rect width="60" height="60" fill="white"/>
</clipPath>
</defs>
</svg>
