<svg width="60" height="60" viewBox="0 0 60 60" fill="none" xmlns="http://www.w3.org/2000/svg">
<g clip-path="url(#clip0_124_6190)">
<path d="M47.1588 47.3692C45.8915 48.6365 44.2306 49.2702 42.5697 49.2702C40.9088 49.2702 39.2462 48.6365 37.9789 47.3692L32.6353 42.0256C34.6718 41.2335 36.5793 40.0152 38.2239 38.3706C39.8439 36.7505 41.0492 34.8741 41.8429 32.8718L47.1604 38.1893C49.6951 40.7256 49.6951 44.8346 47.1604 47.3692H47.1588Z" fill="url(#paint0_linear_124_6190)"/>
<path fill-rule="evenodd" clip-rule="evenodd" d="M26.7246 42.633C35.4292 42.633 42.4858 35.5765 42.4858 26.8718C42.4858 18.1671 35.4292 11.1106 26.7246 11.1106C18.0199 11.1106 10.9634 18.1671 10.9634 26.8718C10.9634 35.5765 18.0199 42.633 26.7246 42.633ZM42.9858 26.8718C42.9858 35.8526 35.7054 43.133 26.7246 43.133C17.7438 43.133 10.4634 35.8526 10.4634 26.8718C10.4634 17.891 17.7438 10.6106 26.7246 10.6106C35.7054 10.6106 42.9858 17.891 42.9858 26.8718Z" fill="#ECCCBB"/>
<path d="M26.7246 43.133C35.7054 43.133 42.9858 35.8526 42.9858 26.8718C42.9858 17.891 35.7054 10.6106 26.7246 10.6106C17.7438 10.6106 10.4634 17.891 10.4634 26.8718C10.4634 35.8526 17.7438 43.133 26.7246 43.133Z" fill="url(#paint1_linear_124_6190)"/>
<path d="M26.7246 33.5906C30.4353 33.5906 33.4433 30.5825 33.4433 26.8718C33.4433 23.1612 30.4353 20.1531 26.7246 20.1531C23.0139 20.1531 20.0059 23.1612 20.0059 26.8718C20.0059 30.5825 23.0139 33.5906 26.7246 33.5906Z" fill="white"/>
</g>
<defs>
<linearGradient id="paint0_linear_124_6190" x1="33.6784" y1="52.8105" x2="54.6639" y2="39.5957" gradientUnits="userSpaceOnUse">
<stop stop-color="#E0E1F3"/>
<stop offset="1" stop-color="#4353FF"/>
</linearGradient>
<linearGradient id="paint1_linear_124_6190" x1="43.0246" y1="28.2092" x2="6.02972" y2="29.2662" gradientUnits="userSpaceOnUse">
<stop offset="0.338663" stop-color="#ECCCBB"/>
<stop offset="1" stop-color="#ECCCBB" stop-opacity="0"/>
</linearGradient>
<clipPath id="clip0_124_6190">
<rect width="60" height="60" fill="white"/>
</clipPath>
</defs>
</svg>
