<svg width="60" height="60" viewBox="0 0 60 60" fill="none" xmlns="http://www.w3.org/2000/svg">
<g clip-path="url(#clip0_124_6210)">
<path d="M51.7687 13.3705V35.1403C51.7687 37.786 49.6228 39.9319 46.9771 39.9319H43.6618V21.9657C43.6618 19.32 41.5175 17.1757 38.8718 17.1757H19.3623V13.3705C19.3623 10.7248 21.5066 8.57886 24.1523 8.57886H46.9771C49.6228 8.57886 51.7687 10.7248 51.7687 13.3705Z" fill="url(#paint0_linear_124_6210)"/>
<path fill-rule="evenodd" clip-rule="evenodd" d="M16.0768 16.6545H38.8983C41.8208 16.6545 44.19 19.0237 44.19 21.9462V43.7143C44.19 46.6368 41.8208 49.006 38.8983 49.006H16.0768C13.1543 49.006 10.7852 46.6368 10.7852 43.7143V21.9462C10.7852 19.0237 13.1543 16.6545 16.0768 16.6545ZM16.0768 17.1545H38.8983C41.5447 17.1545 43.69 19.2998 43.69 21.9462V43.7143C43.69 46.3607 41.5447 48.506 38.8983 48.506H16.0768C13.4304 48.506 11.2852 46.3607 11.2852 43.7143V21.9462C11.2852 19.2998 13.4304 17.1545 16.0768 17.1545Z" fill="#ECCCBB"/>
<path d="M38.8983 17.1545H16.0768C13.4304 17.1545 11.2852 19.2998 11.2852 21.9462V43.7143C11.2852 46.3607 13.4304 48.506 16.0768 48.506H38.8983C41.5447 48.506 43.69 46.3607 43.69 43.7143V21.9462C43.69 19.2998 41.5447 17.1545 38.8983 17.1545Z" fill="url(#paint1_linear_124_6210)"/>
<path d="M31.9279 36.5302H16.3265C15.6357 36.5302 15.0771 35.97 15.0771 35.2808C15.0771 34.59 15.6373 34.0315 16.3265 34.0315H31.9279C32.6187 34.0315 33.1773 34.5917 33.1773 35.2808C33.1773 35.9717 32.6171 36.5302 31.9279 36.5302Z" fill="white"/>
<path d="M25.575 41.998H16.3265C15.6357 41.998 15.0771 41.4378 15.0771 40.7486C15.0771 40.0578 15.6373 39.4993 16.3265 39.4993H25.575C26.2658 39.4993 26.8243 40.0594 26.8243 40.7486C26.8243 41.4394 26.2642 41.998 25.575 41.998Z" fill="white"/>
</g>
<defs>
<linearGradient id="paint0_linear_124_6210" x1="21.4204" y1="46.7008" x2="62.0746" y2="20.285" gradientUnits="userSpaceOnUse">
<stop stop-color="#E0E1F3"/>
<stop offset="1" stop-color="#4353FF"/>
</linearGradient>
<linearGradient id="paint1_linear_124_6210" x1="43.7287" y1="34.1196" x2="6.86958" y2="35.2081" gradientUnits="userSpaceOnUse">
<stop offset="0.338663" stop-color="#ECCCBB"/>
<stop offset="1" stop-color="#ECCCBB" stop-opacity="0"/>
</linearGradient>
<clipPath id="clip0_124_6210">
<rect width="60" height="60" fill="white"/>
</clipPath>
</defs>
</svg>
