<svg width="60" height="60" viewBox="0 0 60 60" fill="none" xmlns="http://www.w3.org/2000/svg">
<g clip-path="url(#clip0_125_6284)">
<path d="M47.786 17.2721V43.8776C47.786 46.7209 45.48 49.0285 42.6367 49.0285H17.4193C14.576 49.0285 12.27 46.7225 12.27 43.8776V17.2721C12.27 14.6378 14.2478 12.4658 16.7987 12.1587C32.5 12.1587 30.4658 12.1228 42.6399 12.1228C45.4832 12.1228 47.7892 14.4288 47.7892 17.2737L47.786 17.2721Z" fill="url(#paint0_linear_125_6284)"/>
<path fill-rule="evenodd" clip-rule="evenodd" d="M33.3507 11.0224H33.3458V36.5661C33.3458 37.2297 32.921 37.731 32.4094 37.9834C31.8972 38.2361 31.2411 38.2751 30.6514 37.9918L25.2576 35.3961C24.9902 35.2667 24.6525 35.2667 24.385 35.3961L24.3841 35.3966L18.9915 37.9916C18.9915 37.9916 18.9915 37.9916 18.9915 37.9916C18.4027 38.2751 17.7465 38.2365 17.2341 37.9841C16.7222 37.732 16.2969 37.2307 16.2969 36.5661V10.5224C16.2969 9.54252 17.211 8.89013 18.1448 8.90046C19.3457 8.91372 21.1652 8.90159 22.787 8.88339V8.82412L23.2962 8.83355L23.287 9.33347V9.37756C23.2867 9.37756 23.2873 9.37756 23.287 9.37756C21.5527 9.39879 19.4701 9.41512 18.1393 9.40043C17.4011 9.39226 16.7969 9.8969 16.7969 10.5224V36.5661C16.7969 37.4268 17.8927 37.9657 18.7746 37.5411L24.1672 34.946C24.5723 34.7501 25.0704 34.7501 25.4754 34.946L30.868 37.5411C31.7516 37.9657 32.8458 37.4251 32.8458 36.5661V10.5224H32.8507C32.8507 10.4897 32.849 10.4572 32.8458 10.4252C32.8312 10.2814 32.7846 10.1455 32.7121 10.0224C32.4923 9.64921 32.0343 9.39461 31.5082 9.40043C30.1774 9.41512 28.0956 9.40043 26.3597 9.37757C26.3595 9.37757 26.36 9.37758 26.3597 9.37757L26.3589 9.33347L26.3496 8.83355L26.8589 8.8241V8.88377C28.4816 8.90293 30.3015 8.91372 31.5027 8.90046C32.4365 8.89013 33.3507 9.54252 33.3507 10.5224V11.0224ZM25.8589 9.3421C26.1753 9.33688 26.3589 9.33347 26.3589 9.33347L26.3496 8.83355L25.9278 8.84089C25.6607 8.84535 25.2799 8.85142 24.8238 8.85791C24.3677 8.85142 23.9864 8.84535 23.7189 8.84088L23.2962 8.83355L23.287 9.33347C23.287 9.33347 23.4707 9.33687 23.787 9.34208C24.0505 9.34643 24.4059 9.35203 24.8238 9.35796C25.2411 9.35203 25.5959 9.34644 25.8589 9.3421Z" fill="white"/>
<path d="M32.8507 10.5224C32.8507 9.89693 32.2464 9.39229 31.5082 9.40045C30.1772 9.41515 28.0949 9.40045 26.3589 9.37759V9.3335C26.3589 9.3335 25.7432 9.34493 24.8238 9.35799C23.9043 9.34493 23.287 9.3335 23.287 9.3335V9.37759C21.5526 9.39882 19.4703 9.41515 18.1393 9.40045C17.4011 9.39229 16.7969 9.89693 16.7969 10.5224V36.5661C16.7969 37.4268 17.8927 37.9657 18.7746 37.5411L24.1672 34.9461C24.5723 34.7501 25.0704 34.7501 25.4754 34.9461L30.868 37.5411C31.7516 37.9657 32.8458 37.4252 32.8458 36.5661V10.5224H32.8507Z" fill="url(#paint1_linear_125_6284)"/>
<path d="M24.6735 22.0621L26.2576 25.2729L29.8015 25.789L27.2375 28.2877L27.8434 31.8185L24.6735 30.1511L21.5035 31.8185L22.1094 28.2877L19.5454 25.789L23.0893 25.2729L24.6735 22.0621Z" fill="url(#paint2_linear_125_6284)"/>
</g>
<defs>
<linearGradient id="paint0_linear_125_6284" x1="14.5258" y1="56.9962" x2="60.9161" y2="28.9287" gradientUnits="userSpaceOnUse">
<stop stop-color="#E0E1F3"/>
<stop offset="1" stop-color="#4353FF"/>
</linearGradient>
<linearGradient id="paint1_linear_125_6284" x1="32.8698" y1="24.6775" x2="14.5982" y2="24.973" gradientUnits="userSpaceOnUse">
<stop offset="0.338663" stop-color="white"/>
<stop offset="1" stop-color="white" stop-opacity="0"/>
</linearGradient>
<linearGradient id="paint2_linear_125_6284" x1="20.1968" y1="33.9249" x2="32.9331" y2="25.508" gradientUnits="userSpaceOnUse">
<stop stop-color="#E0E1F3"/>
<stop offset="1" stop-color="#4353FF"/>
</linearGradient>
<clipPath id="clip0_125_6284">
<rect width="60" height="60" fill="white"/>
</clipPath>
</defs>
</svg>
