<svg width="60" height="60" viewBox="0 0 60 60" fill="none" xmlns="http://www.w3.org/2000/svg">
<g clip-path="url(#clip0_124_6154)">
<path d="M44.3955 11.6149H43.5642V9.75476C43.5642 8.93982 42.9045 8.28003 42.0895 8.28003H40.8124C39.9975 8.28003 39.3377 8.93982 39.3377 9.75476V11.6149H34.1084V9.75476C34.1084 8.93982 33.4486 8.28003 32.6336 8.28003H31.3565C30.5416 8.28003 29.8818 8.93982 29.8818 9.75476V11.6149H24.9383V9.75476C24.9383 8.93982 24.2785 8.28003 23.4635 8.28003H22.1864C21.3715 8.28003 20.7117 8.93982 20.7117 9.75476V11.6149H19.5897C16.7464 11.6149 14.4404 13.9209 14.4404 16.7642V41.5684C14.4404 44.4117 16.7464 46.7177 19.5897 46.7177H44.3939C47.2372 46.7177 49.5432 44.4117 49.5432 41.5684V16.7642C49.5432 13.9209 47.2372 11.6149 44.3939 11.6149H44.3955Z" fill="url(#paint0_linear_124_6154)"/>
<path fill-rule="evenodd" clip-rule="evenodd" d="M35.8278 24.6762C42.6674 31.5159 42.6674 42.6052 35.8278 49.4449C28.9881 56.2845 17.8988 56.2845 11.0591 49.4449C4.21945 42.6052 4.21945 31.5159 11.0591 24.6762C17.8988 17.8366 28.9881 17.8366 35.8278 24.6762ZM35.4742 25.0298C42.1186 31.6742 42.1186 42.4469 35.4742 49.0913C28.8298 55.7357 18.0571 55.7357 11.4127 49.0913C4.76827 42.4469 4.76827 31.6742 11.4127 25.0298C18.0571 18.3854 28.8298 18.3854 35.4742 25.0298Z" fill="#ECCCBB"/>
<path d="M35.4741 49.0913C42.1185 42.4469 42.1185 31.6742 35.4741 25.0298C28.8297 18.3854 18.057 18.3854 11.4126 25.0298C4.76819 31.6742 4.76819 42.4469 11.4126 49.0913C18.057 55.7357 28.8297 55.7357 35.4741 49.0913Z" fill="url(#paint1_linear_124_6154)"/>
<path d="M31.2878 38.2874H23.1825C22.5048 38.2874 21.9561 37.7387 21.9561 37.0609V26.2463C21.9561 25.5685 22.5048 25.0198 23.1825 25.0198C23.8603 25.0198 24.409 25.5685 24.409 26.2463V35.8361H31.2878C31.9656 35.8361 32.5143 36.3848 32.5143 37.0626C32.5143 37.7403 31.9656 38.2891 31.2878 38.2891V38.2874Z" fill="white"/>
</g>
<defs>
<linearGradient id="paint0_linear_124_6154" x1="16.6697" y1="55.0161" x2="63.7735" y2="27.9735" gradientUnits="userSpaceOnUse">
<stop stop-color="#E0E1F3"/>
<stop offset="1" stop-color="#4353FF"/>
</linearGradient>
<linearGradient id="paint1_linear_124_6154" x1="36.4924" y1="25.9905" x2="9.90391" y2="54.1431" gradientUnits="userSpaceOnUse">
<stop offset="0.338663" stop-color="#ECCCBB"/>
<stop offset="1" stop-color="#ECCCBB" stop-opacity="0"/>
</linearGradient>
<clipPath id="clip0_124_6154">
<rect width="60" height="60" fill="white"/>
</clipPath>
</defs>
</svg>
