<svg width="60" height="60" viewBox="0 0 60 60" fill="none" xmlns="http://www.w3.org/2000/svg">
<g clip-path="url(#clip0_124_6232)">
<path fill-rule="evenodd" clip-rule="evenodd" d="M38.6778 15.266C39.5566 20.6799 35.8802 25.7812 30.4662 26.66C25.0523 27.5388 19.951 23.8624 19.0722 18.4484C18.1934 13.0345 21.8698 7.93317 27.2838 7.05437C32.6977 6.17556 37.799 9.85202 38.6778 15.266ZM43.1981 33.7837C43.1992 33.7841 43.2003 33.7844 43.2014 33.7848L43.1998 33.7864C43.1992 33.7855 43.1987 33.7846 43.1981 33.7837ZM43.1981 33.7837C41.7262 31.378 38.9289 29.8162 34.1701 29.8162H24.3027C16.7625 29.8162 13.9028 34.1326 13.9028 39.4567V46.8581C13.9028 47.7367 14.672 48.4504 15.6193 48.4504H33.4091C32.0372 46.8499 31.2092 44.7726 31.2092 42.4976C31.2092 37.4381 35.3101 33.3373 40.3679 33.3373C41.3564 33.3373 42.3074 33.4937 43.1981 33.7837Z" fill="url(#paint0_linear_124_6232)"/>
<path fill-rule="evenodd" clip-rule="evenodd" d="M42.5857 33.0931C47.7783 34.3187 50.9942 39.5216 49.7686 44.7141C48.543 49.9067 43.3401 53.1226 38.1476 51.897C32.955 50.6715 29.7391 45.4686 30.9647 40.276C32.1902 35.0834 37.3931 31.8676 42.5857 33.0931ZM42.4708 33.5797C47.3947 34.7419 50.4441 39.6755 49.282 44.5993C48.1199 49.5231 43.1862 52.5725 38.2624 51.4104C33.3386 50.2483 30.2892 45.3147 31.4513 40.3909C32.6134 35.4671 37.547 32.4176 42.4708 33.5797Z" fill="#ECCCBB"/>
<path d="M49.2821 44.5992C50.4442 39.6754 47.3947 34.7418 42.4709 33.5797C37.5471 32.4176 32.6135 35.467 31.4514 40.3908C30.2893 45.3146 33.3387 50.2482 38.2625 51.4104C43.1863 52.5725 48.1199 49.523 49.2821 44.5992Z" fill="url(#paint1_linear_124_6232)"/>
<path d="M40.1165 46.0971C39.9075 46.0971 39.7082 46.0072 39.5678 45.8505L35.449 41.2319C35.1779 40.9282 35.2057 40.4627 35.5078 40.1933C35.8116 39.9222 36.277 39.9499 36.5465 40.252L40.0528 44.1846L43.9626 38.7153C44.1994 38.3854 44.6583 38.3086 44.9882 38.5438C45.3181 38.7806 45.3948 39.2395 45.1597 39.5694L40.7159 45.7868C40.5852 45.968 40.3795 46.0824 40.1573 46.0938C40.1443 46.0938 40.1312 46.0938 40.1181 46.0938L40.1165 46.0971Z" fill="white"/>
</g>
<defs>
<linearGradient id="paint0_linear_124_6232" x1="15.7635" y1="57.4155" x2="59.4437" y2="38.0415" gradientUnits="userSpaceOnUse">
<stop stop-color="#E0E1F3"/>
<stop offset="1" stop-color="#4353FF"/>
</linearGradient>
<linearGradient id="paint1_linear_124_6232" x1="43.2092" y1="33.7314" x2="39.0016" y2="54.151" gradientUnits="userSpaceOnUse">
<stop offset="0.338663" stop-color="#ECCCBB"/>
<stop offset="1" stop-color="#ECCCBB" stop-opacity="0"/>
</linearGradient>
<clipPath id="clip0_124_6232">
<rect width="60" height="60" fill="white"/>
</clipPath>
</defs>
</svg>
