<svg width="60" height="60" viewBox="0 0 60 60" fill="none" xmlns="http://www.w3.org/2000/svg">
<g clip-path="url(#clip0_125_6244)">
<path d="M46.9561 14.8551L32.3231 8.42053C31.776 8.18046 31.1538 8.18046 30.6067 8.42053L15.9721 14.8551C14.6721 15.4267 13.8311 16.7136 13.8311 18.1345V32.3036C13.8311 39.803 31.4429 50.0493 31.4625 50.0608C31.482 50.0493 49.0938 39.803 49.0938 32.3036V18.1345C49.0938 16.7136 48.2544 15.4267 46.9528 14.8551H46.9561Z" fill="url(#paint0_linear_125_6244)"/>
<path fill-rule="evenodd" clip-rule="evenodd" d="M20.27 28.3261C26.0953 30.6832 28.9068 37.3163 26.5496 43.1416C24.1925 48.9669 17.5594 51.7784 11.7341 49.4213C5.90884 47.0641 3.09734 40.431 5.45445 34.6057C7.81157 28.7804 14.4447 25.9689 20.27 28.3261ZM20.0824 28.7896C25.6517 31.0431 28.3397 37.3847 26.0862 42.954C23.8326 48.5233 17.491 51.2113 11.9217 48.9578C6.35237 46.7042 3.66441 40.3626 5.91795 34.7933C8.17148 29.224 14.5131 26.536 20.0824 28.7896Z" fill="white"/>
<path d="M26.086 42.954C28.3395 37.3847 25.6516 31.043 20.0823 28.7895C14.513 26.536 8.17132 29.2239 5.91779 34.7932C3.66425 40.3625 6.35221 46.7042 11.9215 48.9577C17.4908 51.2112 23.8325 48.5233 26.086 42.954Z" fill="url(#paint1_linear_125_6244)"/>
<path d="M15.7028 43.1459C15.4545 43.1459 15.2161 43.0398 15.0511 42.8536L10.1582 37.3679C9.83652 37.007 9.86918 36.455 10.2285 36.1332C10.5894 35.8115 11.1414 35.8442 11.4631 36.2035L15.6276 40.8742L20.2707 34.3776C20.5516 33.9857 21.097 33.8942 21.489 34.1751C21.8809 34.456 21.9724 35.0015 21.6915 35.3934L16.4132 42.7785C16.258 42.9941 16.0147 43.128 15.7485 43.1427C15.7322 43.1427 15.7175 43.1427 15.7011 43.1427L15.7028 43.1459Z" fill="url(#paint2_linear_125_6244)"/>
</g>
<defs>
<linearGradient id="paint0_linear_125_6244" x1="16.0705" y1="59.0894" x2="65.185" y2="33.0551" gradientUnits="userSpaceOnUse">
<stop stop-color="#E0E1F3"/>
<stop offset="1" stop-color="#4353FF"/>
</linearGradient>
<linearGradient id="paint1_linear_125_6244" x1="20.9214" y1="29.101" x2="12.2939" y2="52.308" gradientUnits="userSpaceOnUse">
<stop offset="0.338663" stop-color="white"/>
<stop offset="1" stop-color="white" stop-opacity="0"/>
</linearGradient>
<linearGradient id="paint2_linear_125_6244" x1="10.6934" y1="45.1179" x2="23.4045" y2="34.6914" gradientUnits="userSpaceOnUse">
<stop stop-color="#E0E1F3"/>
<stop offset="1" stop-color="#4353FF"/>
</linearGradient>
<clipPath id="clip0_125_6244">
<rect width="60" height="60" fill="white"/>
</clipPath>
</defs>
</svg>
