<svg width="60" height="60" viewBox="0 0 60 60" fill="none" xmlns="http://www.w3.org/2000/svg">
<g clip-path="url(#clip0_122_6127)">
<path fill-rule="evenodd" clip-rule="evenodd" d="M44.1227 11.7097H47.7923C50.5145 11.7097 52.7212 13.9164 52.7212 16.6385V44.5734C52.7212 47.2955 50.5145 49.5023 47.7923 49.5023H44.1227C41.4006 49.5023 39.1938 47.2955 39.1938 44.5734V16.6385C39.1938 13.9164 41.4006 11.7097 44.1227 11.7097ZM31.8348 20.821H28.1652C25.443 20.821 23.2363 23.0278 23.2363 25.7499V44.5735C23.2363 47.2956 25.443 49.5023 28.1652 49.5023H31.8348C34.5569 49.5023 36.7636 47.2956 36.7636 44.5735V25.7499C36.7636 23.0278 34.5569 20.821 31.8348 20.821ZM15.8773 34.043H12.2076C9.48552 34.043 7.27881 36.2497 7.27881 38.9718V44.5735C7.27881 47.2956 9.48552 49.5023 12.2076 49.5023H15.8773C18.5994 49.5023 20.8061 47.2956 20.8061 44.5735V38.9718C20.8061 36.2497 18.5994 34.043 15.8773 34.043Z" fill="url(#paint0_linear_122_6127)"/>
<path fill-rule="evenodd" clip-rule="evenodd" d="M26.4301 9.95404C30.8736 14.3976 30.8736 21.6019 26.4301 26.0455C21.9866 30.489 14.7822 30.489 10.3387 26.0455C5.89516 21.6019 5.89516 14.3976 10.3387 9.95404C14.7822 5.51052 21.9866 5.51052 26.4301 9.95404ZM26.0766 10.3076C30.3248 14.5559 30.3248 21.4437 26.0766 25.6919C21.8283 29.9402 14.9405 29.9402 10.6922 25.6919C6.44397 21.4437 6.44397 14.5559 10.6922 10.3076C14.9405 6.05933 21.8283 6.05933 26.0766 10.3076Z" fill="#ECCCBB"/>
<path d="M26.0765 25.6919C30.3247 21.4437 30.3247 14.5559 26.0765 10.3076C21.8282 6.05933 14.9404 6.05933 10.6922 10.3076C6.4439 14.5559 6.4439 21.4437 10.6922 25.6919C14.9404 29.9402 21.8282 29.9402 26.0765 25.6919Z" fill="url(#paint1_linear_122_6127)"/>
<path d="M22.0831 20.6903C21.67 20.6903 21.3352 20.3555 21.3352 19.9423V14.6183H16.3574C15.9442 14.6183 15.6094 14.2835 15.6094 13.8703C15.6094 13.4571 15.9442 13.1223 16.3574 13.1223H22.0848C22.498 13.1223 22.8328 13.4571 22.8328 13.8703V19.9439C22.8328 20.3571 22.498 20.6919 22.0848 20.6919L22.0831 20.6903Z" fill="white"/>
<path d="M14.2328 22.4689C14.0417 22.4689 13.849 22.3954 13.7036 22.25C13.4113 21.9577 13.4113 21.4841 13.7036 21.1918L21.5558 13.3396C21.8481 13.0473 22.3217 13.0473 22.614 13.3396C22.9064 13.6319 22.9064 14.1056 22.614 14.3979L14.7619 22.25C14.6149 22.397 14.4238 22.4689 14.2328 22.4689Z" fill="white"/>
</g>
<defs>
<linearGradient id="paint0_linear_122_6127" x1="10.1648" y1="57.6614" x2="61.7606" y2="18.6604" gradientUnits="userSpaceOnUse">
<stop stop-color="#E0E1F3"/>
<stop offset="1" stop-color="#4353FF"/>
</linearGradient>
<linearGradient id="paint1_linear_122_6127" x1="26.7275" y1="10.9219" x2="9.72754" y2="28.9219" gradientUnits="userSpaceOnUse">
<stop offset="0.338663" stop-color="#ECCCBB"/>
<stop offset="1" stop-color="#ECCCBB" stop-opacity="0"/>
</linearGradient>
<clipPath id="clip0_122_6127">
<rect width="60" height="60" fill="white"/>
</clipPath>
</defs>
</svg>
