<svg width="60" height="60" viewBox="0 0 60 60" fill="none" xmlns="http://www.w3.org/2000/svg">
<g clip-path="url(#clip0_124_6221)">
<path d="M51.6728 40.149H48.0815V36.5578L45.346 33.8223H41.7547V30.231L38.4574 26.9337C40.8091 21.9901 39.9403 15.8953 35.8476 11.8042C30.6493 6.60594 22.2223 6.60594 17.0257 11.8042C11.8274 17.0025 11.8274 25.4295 17.0257 30.6262C21.1183 34.7188 27.2116 35.5877 32.1551 33.236L48.7625 49.8434L54.374 49.1526L55.0648 43.5411L51.6744 40.1507L51.6728 40.149ZM24.8892 19.6678C23.6007 20.9564 21.5103 20.9564 20.2201 19.6678C18.9299 18.3793 18.9315 16.2888 20.2201 14.9987C21.5086 13.7101 23.5991 13.7101 24.8892 14.9987C26.1778 16.2872 26.1778 18.3776 24.8892 19.6678Z" fill="url(#paint0_linear_124_6221)"/>
<path fill-rule="evenodd" clip-rule="evenodd" d="M8.73073 26.2597L17.5706 23.4317C20.4262 22.5182 23.4818 24.0926 24.3954 26.9482L29.3058 42.2978C30.2194 45.1535 28.645 48.209 25.7893 49.1226L16.9495 51.9505C14.0938 52.8641 11.0382 51.2897 10.1247 48.434L5.21421 33.0845C4.30065 30.2288 5.87505 27.1732 8.73073 26.2597ZM8.88308 26.7359L17.7229 23.9079C20.3156 23.0785 23.0897 24.5079 23.9192 27.1006L28.8296 42.4501C29.659 45.0428 28.2296 47.8169 25.637 48.6464L16.7972 51.4743C14.2045 52.3037 11.4303 50.8743 10.6009 48.2817L5.69044 32.9321C4.86101 30.3395 6.29041 27.5653 8.88308 26.7359Z" fill="#ECCCBB"/>
<path d="M17.7227 23.908L8.88293 26.736C6.29025 27.5654 4.86086 30.3396 5.69028 32.9322L10.6007 48.2818C11.4302 50.8744 14.2043 52.3038 16.797 51.4744L25.6368 48.6465C28.2295 47.817 29.6589 45.0429 28.8295 42.4502L23.919 27.1007C23.0896 24.508 20.3154 23.0786 17.7227 23.908Z" fill="url(#paint1_linear_124_6221)"/>
<path d="M13.2332 44.5487C12.918 44.5487 12.624 44.3478 12.5212 44.031C12.3938 43.6374 12.6077 43.2161 13.0013 43.0871L21.0462 40.4659C21.4397 40.3369 21.8611 40.5524 21.9901 40.946C22.1175 41.3396 21.9036 41.7626 21.51 41.89L13.4651 44.5112C13.3884 44.5357 13.31 44.5487 13.2332 44.5487Z" fill="white"/>
<path d="M14.3665 47.8364C14.0513 47.8364 13.7573 47.6355 13.6545 47.3187C13.5271 46.9251 13.741 46.5021 14.1346 46.3748L20.2866 44.3709C20.6802 44.2419 21.1016 44.4575 21.2306 44.851C21.358 45.2446 21.144 45.6676 20.7505 45.795L14.5984 47.7989C14.5217 47.8234 14.4433 47.8364 14.3665 47.8364Z" fill="white"/>
</g>
<defs>
<linearGradient id="paint0_linear_124_6221" x1="15.7903" y1="58.8975" x2="69.42" y2="25.1833" gradientUnits="userSpaceOnUse">
<stop stop-color="#E0E1F3"/>
<stop offset="1" stop-color="#4353FF"/>
</linearGradient>
<linearGradient id="paint1_linear_124_6221" x1="26.7215" y1="35.7858" x2="6.11789" y2="42.8585" gradientUnits="userSpaceOnUse">
<stop offset="0.338663" stop-color="#ECCCBB"/>
<stop offset="1" stop-color="#ECCCBB" stop-opacity="0"/>
</linearGradient>
<clipPath id="clip0_124_6221">
<rect width="60" height="60" fill="white"/>
</clipPath>
</defs>
</svg>
