<svg width="60" height="60" viewBox="0 0 60 60" fill="none" xmlns="http://www.w3.org/2000/svg">
<g clip-path="url(#clip0_125_6294)">
<path fill-rule="evenodd" clip-rule="evenodd" d="M11.9288 12H15.5985C18.3206 12 20.5273 14.2067 20.5273 16.9288V44.8637C20.5273 47.5858 18.3206 49.7925 15.5985 49.7925H11.9288C9.20671 49.7925 7 47.5858 7 44.8637V16.9288C7 14.2067 9.20671 12 11.9288 12ZM31.5985 12H27.9288C25.2067 12 23 14.2067 23 16.9288V44.8637C23 47.5858 25.2067 49.7925 27.9288 49.7925H31.5985C34.3206 49.7925 36.5273 47.5858 36.5273 44.8637V16.9288C36.5273 14.2067 34.3206 12 31.5985 12ZM47.7923 12H44.1227C41.4006 12 39.1938 14.2067 39.1938 16.9288V44.8637C39.1938 47.5858 41.4006 49.7925 44.1227 49.7925H47.7923C50.5145 49.7925 52.7212 47.5858 52.7212 44.8637V16.9288C52.7212 14.2067 50.5145 12 47.7923 12Z" fill="url(#paint0_linear_125_6294)"/>
<path d="M32.1701 11.0033L32.1698 11.0037C31.3771 11.8511 30.9121 13.0045 30.9621 14.2571L32.1701 11.0033ZM32.1701 11.0033C32.494 10.6554 32.6003 10.149 32.4215 9.70019C32.2368 9.23394 32.027 8.78117 31.7942 8.3438L31.7941 8.34362M32.1701 11.0033L31.7941 8.34362M31.7941 8.34362C31.5725 7.928 31.13 7.66756 30.6544 7.69149L30.6543 7.6915M31.7941 8.34362L30.6543 7.6915M30.6543 7.6915C29.4929 7.75063 28.3074 7.36013 27.3844 6.50571L27.3842 6.50554M30.6543 7.6915L27.3842 6.50554M27.3842 6.50554C26.4591 5.65086 25.9743 4.49926 25.9403 3.33248L25.9403 3.33224M27.3842 6.50554L25.9403 3.33224M25.9403 3.33224C25.926 2.85662 25.631 2.43508 25.2008 2.24808L25.2004 2.24792M25.9403 3.33224L25.2004 2.24792M25.2004 2.24792C24.7462 2.05132 24.2804 1.87981 23.8033 1.73339L23.8028 1.73323M25.2004 2.24792L23.8028 1.73323M23.8028 1.73323C23.3418 1.59284 22.8448 1.73623 22.5242 2.09268L22.7101 2.25986L22.5247 2.09209C21.7446 2.95396 20.6322 3.51261 19.3798 3.56278C18.1254 3.61295 16.972 3.14556 16.1258 2.34834L16.1256 2.3482M23.8028 1.73323L16.1256 2.3482M16.1256 2.3482C15.7778 2.02111 15.2716 1.9149 14.8216 2.09365L16.1256 2.3482ZM13.4743 2.7162L13.4743 2.71619C13.9093 2.48489 14.3596 2.27677 14.8214 2.09372L13.4743 2.7162ZM13.4743 2.7162C13.0564 2.9384 12.7964 3.38402 12.8227 3.8604L13.0723 3.84662M13.4743 2.7162L8.46211 8.59153M8.46211 8.59153L8.46272 8.59151C9.63131 8.55925 10.7848 8.07385 11.64 7.14576C12.4934 6.21766 12.8835 5.02655 12.8226 3.85964L13.0723 3.84662M8.46211 8.59153C7.98535 8.60585 7.56189 8.90098 7.37503 9.3344L7.37503 9.33442M8.46211 8.59153L7.37503 9.33442M13.0723 3.84662C13.1365 5.07782 12.7248 6.33551 11.8239 7.31517L13.0723 3.84662ZM7.37503 9.33442C7.1808 9.78504 7.0095 10.2494 6.86506 10.7257C6.72256 11.1879 6.86843 11.687 7.2235 12.0074C8.08584 12.7886 8.64564 13.9044 8.69575 15.1625L8.69576 15.1625M7.37503 9.33442L8.69576 15.1625M8.69576 15.1625C8.74587 16.419 8.27898 17.576 7.48097 18.4253L7.48081 18.4255M8.69576 15.1625L7.48081 18.4255M7.48081 18.4255C7.15433 18.7736 7.04821 19.2821 7.22682 19.7308M7.48081 18.4255L7.22682 19.7308M12.2777 22.9108L12.2776 22.9107C11.349 22.0543 10.1599 21.6639 8.9933 21.7265L12.2777 22.9108ZM12.2777 22.9108C13.2042 23.7652 13.6892 24.9204 13.7233 26.0912L13.7233 26.0914M12.2777 22.9108L13.7233 26.0914M13.7233 26.0914C13.7376 26.5689 14.0325 26.9907 14.4651 27.1777L14.4655 27.1779L13.7233 26.0914ZM20.282 25.8571L20.2818 25.8571C19.0295 25.9073 17.9171 26.4659 17.135 27.3297L16.9497 27.162L17.1356 27.3291C16.815 27.6856 16.318 27.8289 15.8571 27.6886C15.857 27.6886 15.857 27.6886 15.857 27.6886L15.9298 27.4494L20.282 25.8571ZM20.282 25.8571C21.736 25.798 23.0562 26.4388 23.921 27.4805L23.996 27.5708M20.282 25.8571L23.996 27.5708M23.996 27.5708H24.1134M23.996 27.5708H24.1134M24.1134 27.5708H24.1152H24.1565M24.1134 27.5708H24.1565M24.1565 27.5708L24.1956 27.5576M24.1565 27.5708L24.1956 27.5576M24.1956 27.5576C24.8884 27.3224 25.5544 27.0333 26.1897 26.6941L26.1898 26.694M24.1956 27.5576L26.1898 26.694M26.1898 26.694C26.6051 26.4719 26.8648 26.0289 26.841 25.5532L26.841 25.5531M26.1898 26.694L26.841 25.5531M26.841 25.5531C26.7819 24.386 27.172 23.1985 28.0254 22.2723C28.879 21.3458 30.0271 20.8605 31.1899 20.8265L31.1901 20.8265M26.841 25.5531L31.1901 20.8265M31.1901 20.8265C31.6658 20.8121 32.0869 20.5163 32.2734 20.0836C32.4695 19.6292 32.6427 19.1609 32.7891 18.6808C32.9295 18.221 32.7859 17.7244 32.4335 17.4021L32.3067 17.2861M31.1901 20.8265L32.3067 17.2861M32.3067 17.2861L32.3057 17.2866M32.3067 17.2861L32.3057 17.2866M32.3057 17.2866C31.5172 16.5116 31.0116 15.4488 30.9621 14.2574L32.3057 17.2866ZM7.22682 19.7308C7.40964 20.1914 7.61749 20.6404 7.84851 21.0742L7.22682 19.7308Z" stroke="white" stroke-width="0.5"/>
<path d="M32.261 17.5884C31.3545 16.762 30.7671 15.5894 30.7123 14.2674C30.6594 12.9454 31.1505 11.7275 31.9872 10.8329C32.2478 10.553 32.3309 10.1483 32.1892 9.79271C32.0079 9.33503 31.8021 8.89058 31.5735 8.46127C31.396 8.12841 31.0428 7.92226 30.667 7.94118C29.4413 8.00359 28.1891 7.5913 27.2145 6.68917C26.2381 5.78704 25.7263 4.57097 25.6904 3.33976C25.6791 2.96341 25.4449 2.62676 25.1011 2.47735C24.6554 2.28445 24.1983 2.11613 23.73 1.97239C23.3636 1.86081 22.9669 1.97428 22.7101 2.25986C21.8866 3.16955 20.7119 3.75962 19.3898 3.81258C18.0659 3.86553 16.8477 3.37192 15.9544 2.53031C15.6748 2.26743 15.2707 2.18421 14.9137 2.32605C14.4604 2.50572 14.0185 2.70998 13.5917 2.93693C13.2574 3.11471 13.0515 3.47026 13.0723 3.84662C13.1365 5.07782 12.7248 6.33551 11.8239 7.31517C10.9211 8.29484 9.70291 8.80737 8.46962 8.84141C8.09188 8.85276 7.75381 9.08727 7.60461 9.43337C7.41386 9.87593 7.24577 10.3317 7.10412 10.7989C6.9908 11.1658 7.10601 11.5648 7.39119 11.822C8.30152 12.6466 8.89267 13.8249 8.94556 15.1525C8.99844 16.4783 8.5055 17.7 7.66316 18.5965C7.40064 18.8764 7.31753 19.283 7.45918 19.6386C7.63861 20.0906 7.84258 20.5312 8.06922 20.9568C8.24675 21.2915 8.60182 21.4977 8.97955 21.4769C10.211 21.4107 11.4669 21.823 12.4471 22.727C13.4254 23.6291 13.9373 24.849 13.9732 26.0839C13.9845 26.4622 14.2187 26.7988 14.5643 26.9482C15.0081 27.1393 15.4633 27.3076 15.9298 27.4494C16.2962 27.561 16.6928 27.4475 16.9497 27.162C17.775 26.2504 18.9498 25.6603 20.2718 25.6073C21.8073 25.5449 23.2011 26.222 24.1134 27.3208H24.1152C24.7952 27.0901 25.4486 26.8064 26.0719 26.4735C26.4043 26.2958 26.6102 25.9421 26.5913 25.5657C26.5289 24.3345 26.9407 23.0806 27.8416 22.1029C28.7425 21.1251 29.955 20.6126 31.1826 20.5766C31.5584 20.5653 31.8946 20.3308 32.0438 19.9847C32.2365 19.5383 32.4064 19.0788 32.55 18.6078C32.6614 18.2428 32.5481 17.8457 32.2648 17.5866L32.261 17.5884Z" fill="url(#paint1_linear_125_6294)"/>
<path d="M22.9144 16.9291C24.1397 15.2191 23.7486 12.8382 22.041 11.6112C20.3333 10.3842 17.9556 10.7758 16.7303 12.4859C15.505 14.1959 15.8961 16.5768 17.6038 17.8038C19.3115 19.0308 21.6891 18.6392 22.9144 16.9291Z" fill="url(#paint2_linear_125_6294)"/>
</g>
<defs>
<linearGradient id="paint0_linear_125_6294" x1="9.90365" y1="57.9517" x2="61.5847" y2="18.6465" gradientUnits="userSpaceOnUse">
<stop stop-color="#E0E1F3"/>
<stop offset="1" stop-color="#4353FF"/>
</linearGradient>
<linearGradient id="paint1_linear_125_6294" x1="32.6228" y1="15.7621" x2="3.58039" y2="16.5909" gradientUnits="userSpaceOnUse">
<stop offset="0.338663" stop-color="white"/>
<stop offset="1" stop-color="white" stop-opacity="0"/>
</linearGradient>
<linearGradient id="paint2_linear_125_6294" x1="22.3127" y1="20.5914" x2="23.0174" y2="9.10054" gradientUnits="userSpaceOnUse">
<stop stop-color="#E0E1F3"/>
<stop offset="1" stop-color="#4353FF"/>
</linearGradient>
<clipPath id="clip0_125_6294">
<rect width="60" height="60" fill="white"/>
</clipPath>
</defs>
</svg>
