<svg width="24" height="24" viewBox="0 0 24 24" fill="none" xmlns="http://www.w3.org/2000/svg">
<path d="M22.0617 7.09902C21.9422 6.6538 21.7078 6.24778 21.382 5.92161C21.0563 5.59543 20.6505 5.36054 20.2055 5.24043C18.5672 4.7998 12 4.7998 12 4.7998C12 4.7998 5.43281 4.7998 3.79453 5.23809C3.34927 5.3578 2.94334 5.59257 2.61751 5.9188C2.29169 6.24504 2.05744 6.65126 1.93828 7.09668C1.5 8.7373 1.5 12.1592 1.5 12.1592C1.5 12.1592 1.5 15.5811 1.93828 17.2193C2.17969 18.124 2.89219 18.8365 3.79453 19.0779C5.43281 19.5186 12 19.5186 12 19.5186C12 19.5186 18.5672 19.5186 20.2055 19.0779C21.1102 18.8365 21.8203 18.124 22.0617 17.2193C22.5 15.5811 22.5 12.1592 22.5 12.1592C22.5 12.1592 22.5 8.7373 22.0617 7.09902ZM9.91406 15.2998V9.01855L15.3516 12.1357L9.91406 15.2998Z" fill="white"/>
</svg>
