<svg width="220" height="28" viewBox="0 0 220 28" fill="none" xmlns="http://www.w3.org/2000/svg">
<g clip-path="url(#clip0_646_688)">
<path d="M39.3468 18.3504C38.9357 19.7125 38.0026 20.3774 36.4868 20.3774C35.3606 20.3774 34.5455 19.977 33.9843 19.1583C33.423 18.3397 33.1406 17.0777 33.1406 15.5297C33.1406 14.0389 33.4051 12.9163 33.9271 12.1978C34.449 11.4792 35.1712 11.1681 36.1901 11.1681C36.9265 11.1681 37.166 11.3076 37.2268 11.3648C37.427 11.6002 37.5516 11.8905 37.5843 12.1978C37.7988 13.2917 38.5353 13.4562 38.9571 13.4562C39.1269 13.4614 39.2955 13.4261 39.449 13.3534C39.6026 13.2807 39.7366 13.1726 39.8402 13.0379C40.0203 12.8068 40.1195 12.5229 40.1226 12.2299C40.1226 11.5149 39.6793 10.9358 38.8034 10.4782C37.9904 10.058 37.0873 9.84203 36.1722 9.84896C35.4104 9.8422 34.655 9.98766 33.9502 10.2768C33.2455 10.566 32.6055 10.993 32.068 11.5328C31.4901 12.1022 31.0369 12.7856 30.7372 13.5395C30.4375 14.2934 30.2978 15.1014 30.327 15.9122C30.2953 16.6913 30.4226 17.4687 30.701 18.197C30.9794 18.9253 31.4032 19.5893 31.9465 20.1486C32.4655 20.6723 33.0855 21.0849 33.7689 21.3615C34.4523 21.638 35.1848 21.7727 35.9219 21.7574C38.3851 21.7574 39.9474 20.6849 40.5695 18.5399L40.7017 18.0858H39.4219L39.3468 18.3504ZM56.2817 19.9055C56.2192 19.8751 56.1654 19.8293 56.1253 19.7724C56.0853 19.7155 56.0604 19.6493 56.0529 19.5802C55.9845 18.8674 55.9618 18.1509 55.985 17.4352V14.5751C56.0238 13.6897 55.9335 12.8033 55.7168 11.9439C55.4944 11.3111 55.0532 10.7786 54.4727 10.4424C53.7748 10.0335 52.9754 9.83023 52.1668 9.85611C51.3808 9.85045 50.6069 10.0501 49.9217 10.4353C49.4885 10.6832 49.0935 10.9927 48.7491 11.354V3.21729H48.1306L47.9948 3.24589C46.9938 3.61199 45.932 3.7831 44.8666 3.74996H44.5091V5.04055H44.8666C45.7175 5.04055 45.9391 5.23003 45.9999 5.31225C46.0607 5.39448 46.2323 5.777 46.2323 7.09977V17.428C46.2323 18.572 46.2323 19.262 46.1894 19.4801C46.1716 19.6365 46.0979 19.7811 45.982 19.8876C45.9534 19.9127 45.7747 20.0485 45.0418 20.0485H44.4233V21.3391H50.4079V20.0485H50.0504C49.7052 20.0855 49.3564 20.0313 49.0387 19.8912C48.9758 19.8534 48.9226 19.8014 48.8835 19.7393C48.8444 19.6772 48.8204 19.6068 48.8135 19.5337C48.7603 18.8343 48.7424 18.1328 48.7598 17.4316V13.3668C49.0533 12.7711 49.4758 12.2484 49.9968 11.8367C50.4465 11.5012 50.9946 11.324 51.5555 11.3326C51.9826 11.3141 52.4045 11.4318 52.7603 11.6686C53.0482 11.8619 53.2545 12.1547 53.3395 12.4909C53.4507 13.0932 53.4974 13.7056 53.4789 14.3177V17.428C53.4789 18.5613 53.4789 19.2441 53.436 19.4694C53.4176 19.6276 53.3442 19.7744 53.2286 19.8841C53.2 19.9091 53.0177 20.0485 52.2777 20.0485H51.6842V21.3391H57.7618V20.0485H57.4043C57.0241 20.0853 56.6405 20.0364 56.2817 19.9055ZM72.6303 19.0296C72.4766 19.9699 72.0869 19.9699 71.9403 19.9699C71.7008 19.9699 71.6472 19.8805 71.615 19.7875C71.5828 19.6946 71.4827 19.2477 71.4827 18.025V13.8351C71.5184 13.1158 71.4115 12.3965 71.1681 11.7187C70.8798 11.1508 70.4176 10.6899 69.8489 10.4031C69.0205 9.99375 68.1012 9.803 67.1784 9.84896C65.6626 9.84896 64.515 10.1564 63.7678 10.757C63.0206 11.3576 62.6131 11.9833 62.6131 12.5839C62.6038 12.7318 62.627 12.8799 62.6811 13.0179C62.7352 13.1559 62.8189 13.2804 62.9262 13.3826C63.0335 13.4848 63.1619 13.5623 63.3024 13.6096C63.4428 13.6569 63.5919 13.6728 63.7392 13.6564C64.2683 13.6564 64.944 13.3811 65.1692 12.0726C65.2407 11.6543 65.5017 11.1002 66.9353 11.1002C67.4053 11.0768 67.8721 11.1898 68.2795 11.4255C68.5434 11.5695 68.7474 11.8027 68.8551 12.0834C68.9603 12.562 69.0035 13.0523 68.9838 13.542V13.8101L67.2356 14.5251C65.957 15.019 64.7471 15.675 63.6355 16.4771C62.6953 17.1921 62.2055 18.0572 62.2055 19.0368C62.196 19.399 62.272 19.7583 62.4273 20.0856C62.5825 20.4129 62.8128 20.6991 63.0993 20.9208C64.1039 21.7216 65.4338 21.8646 67.1462 21.121C67.8267 20.8119 68.4787 20.4434 69.0946 20.0199C69.2072 20.4134 69.4204 20.7707 69.7131 21.0567C70.155 21.4366 70.7253 21.6335 71.3075 21.6072C72.8412 21.6072 73.6957 20.7421 73.785 19.1047V18.7472H72.6804L72.6303 19.0296ZM65.0155 18.5542C65.0155 17.378 66.0415 16.3662 68.0686 15.544L68.9659 15.1865V18.5899C68.4779 18.9839 67.9522 19.3288 67.3965 19.6195C66.4455 20.095 65.7734 20.1021 65.348 19.6195C65.1118 19.3163 64.9937 18.9378 65.0155 18.5542ZM84.9284 9.84896C84.1499 9.88148 83.4053 10.1763 82.8155 10.6855C82.4728 10.9524 82.1685 11.2652 81.9111 11.615C81.8511 11.0918 81.7311 10.5772 81.5536 10.0813L81.4356 9.76316L81.1138 9.86684C80.1245 10.196 79.1074 10.4353 78.0751 10.5818L77.764 10.6176V11.8581H78.3861C78.7007 11.8217 79.0191 11.8789 79.3013 12.0226C79.3653 12.0712 79.4179 12.1331 79.4556 12.2041C79.4932 12.2751 79.515 12.3535 79.5194 12.4337C79.548 12.6947 79.5623 13.3847 79.5623 14.4893V17.4101C79.5813 18.1173 79.5622 18.825 79.5051 19.5301C79.4961 19.6035 79.4704 19.6738 79.4302 19.7357C79.3899 19.7977 79.3361 19.8496 79.2727 19.8876C78.9964 20.0177 78.6901 20.0708 78.3861 20.0414H77.764V21.3319H83.9774V20.0485H83.2624C82.9437 20.0811 82.6222 20.0254 82.3329 19.8876C82.2686 19.8404 82.2158 19.7792 82.1786 19.7086C82.1415 19.638 82.1209 19.5598 82.1184 19.4801C82.0898 19.2155 82.0755 18.5256 82.0755 17.428V15.5833C82.0552 14.878 82.1236 14.173 82.2793 13.4848C82.4436 12.9554 82.7474 12.4799 83.1588 12.1084C83.6986 11.5828 84.0311 11.472 84.2313 11.472C84.2813 11.472 84.4386 11.472 84.5888 11.8653C84.9463 12.8377 85.4825 13.0379 85.8865 13.0379C86.0487 13.0392 86.2094 13.0061 86.3579 12.9408C86.5064 12.8755 86.6394 12.7794 86.7481 12.6589C86.9755 12.4253 87.1036 12.1127 87.1056 11.7866C87.0842 11.292 86.873 10.8246 86.5157 10.4817C86.3118 10.2688 86.0646 10.1021 85.7908 9.99293C85.5169 9.88376 85.2228 9.83467 84.9284 9.84896ZM93.462 6.61356C93.683 6.61693 93.9022 6.57379 94.1055 6.48695C94.3087 6.40011 94.4914 6.2715 94.6417 6.10948C94.9493 5.79091 95.1212 5.36539 95.1212 4.92257C95.1212 4.47976 94.9493 4.05424 94.6417 3.73566C94.4882 3.57827 94.3047 3.45319 94.1021 3.36779C93.8995 3.28238 93.6819 3.23839 93.462 3.23839C93.2421 3.23839 93.0245 3.28238 92.8218 3.36779C92.6192 3.45319 92.4358 3.57827 92.2822 3.73566C92.1246 3.88937 91.9999 4.07355 91.9157 4.27698C91.8315 4.48041 91.7896 4.69885 91.7924 4.919C91.7889 5.14137 91.8304 5.36216 91.9146 5.56801C91.9988 5.77386 92.1238 5.9605 92.2822 6.11663C92.4337 6.27665 92.6168 6.40345 92.8199 6.489C93.023 6.57454 93.2416 6.61696 93.462 6.61356ZM95.2137 19.8876C95.1489 19.8395 95.0955 19.7778 95.0572 19.7067C95.0189 19.6357 94.9966 19.5571 94.9921 19.4765C94.9706 19.287 94.942 18.7615 94.942 17.428V9.84896H94.3128L94.1913 9.87041C93.0839 10.2163 91.941 10.4358 90.7843 10.5246L90.4625 10.5568V11.7974H91.1775C91.472 11.779 91.7675 11.8067 92.0534 11.8796C92.1705 11.9484 92.2583 12.0578 92.3001 12.187C92.343 12.2907 92.4431 12.6983 92.4431 14.2784V17.4137C92.4431 18.8938 92.4181 19.3371 92.4002 19.4658C92.3824 19.6222 92.3087 19.7668 92.1928 19.8733C92.1642 19.8984 91.9891 20.0342 91.2669 20.0342H90.4482V21.3248H96.7367V20.0485H96.1325C95.8172 20.0829 95.4986 20.0271 95.2137 19.8876ZM107.333 19.2727C106.951 19.8626 106.532 20.1486 106.05 20.1486C105.807 20.1468 105.572 20.0652 105.381 19.9162C105.18 19.7671 105.037 19.5521 104.977 19.3085C104.872 18.696 104.832 18.074 104.859 17.453V11.5471H107.984V10.2565H104.859V7.01039H103.787L103.74 7.31069C103.662 8.12103 103.329 8.88576 102.789 9.49503C102.587 9.7266 102.339 9.91402 102.061 10.0456C101.783 10.1773 101.481 10.2503 101.173 10.2601H100.816V11.5471H102.317V17.0634C102.288 17.9371 102.348 18.8115 102.496 19.6731C102.646 20.2592 102.994 20.775 103.483 21.1317C104.002 21.536 104.644 21.7516 105.302 21.7431C105.907 21.7362 106.5 21.575 107.026 21.2747C107.603 20.9506 108.06 20.4492 108.331 19.8447L108.466 19.5552L107.494 18.9724L107.333 19.2727ZM119.581 11.5507H119.939C120.571 11.5507 121.011 11.6865 121.011 11.8224C120.878 12.2681 120.714 12.7041 120.521 13.1273L118.412 18.1323L115.91 12.7948C115.729 12.4485 115.572 12.0901 115.441 11.7223C115.441 11.7223 115.566 11.565 116.356 11.5399H116.714V10.2672H111.219V11.5578H111.577C111.902 11.5202 112.231 11.5932 112.51 11.7652C112.617 11.8546 112.867 12.1406 113.278 13.0379L117.1 21.2604L116.167 23.5806C116.075 23.8504 115.929 24.0986 115.738 24.3099C115.453 24.5283 115.137 24.7041 114.801 24.8319C113.793 25.2895 113.282 25.9044 113.282 26.6194C113.282 27.3344 113.711 27.7241 114.458 27.7241C114.727 27.7147 114.991 27.6457 115.23 27.5221C115.469 27.3984 115.678 27.2232 115.842 27.0091C116.362 26.3186 116.774 25.5532 117.064 24.7389L121.694 13.6027C122.155 12.4945 122.441 12.0655 122.598 11.8975C122.873 11.655 123.23 11.527 123.596 11.5399H123.936V10.2672H119.581V11.5507ZM129.266 18.8294C129.106 18.9836 128.979 19.1686 128.892 19.3732C128.806 19.5778 128.761 19.7977 128.762 20.0199C128.761 20.2427 128.804 20.4635 128.889 20.6697C128.974 20.8758 129.098 21.0632 129.255 21.2211C129.41 21.3888 129.598 21.5219 129.807 21.6119C130.017 21.7018 130.243 21.7465 130.471 21.7431C130.927 21.7421 131.365 21.5603 131.688 21.2373C132.011 20.9144 132.193 20.4766 132.194 20.0199C132.197 19.7953 132.154 19.5725 132.067 19.3652C131.98 19.158 131.852 18.9707 131.69 18.8151C131.366 18.497 130.929 18.3199 130.475 18.3226C130.021 18.3253 129.586 18.5075 129.266 18.8294ZM130.489 9.54508C130.259 9.5408 130.03 9.58543 129.819 9.67603C129.608 9.76664 129.418 9.90113 129.262 10.0706C128.951 10.3913 128.778 10.8213 128.78 11.2682C128.778 11.4901 128.821 11.71 128.906 11.915C128.991 12.1201 129.115 12.3062 129.273 12.4623C129.429 12.6276 129.617 12.7587 129.827 12.8473C130.036 12.9359 130.261 12.9801 130.489 12.9771C130.714 12.9796 130.937 12.9365 131.146 12.8505C131.354 12.7645 131.543 12.6373 131.7 12.4766C131.864 12.3213 131.994 12.1338 132.082 11.9259C132.17 11.7179 132.214 11.494 132.212 11.2682C132.212 11.0418 132.168 10.8175 132.081 10.6083C131.995 10.399 131.868 10.2088 131.708 10.0487C131.548 9.88863 131.358 9.76172 131.149 9.67529C130.939 9.58886 130.715 9.54461 130.489 9.54508ZM161.234 11.5435H161.591C162.042 11.5614 162.528 11.6543 162.528 11.8546C162.44 12.2009 162.32 12.5384 162.17 12.8627L160.233 17.9035L157.373 10.2672H156.397L153.429 17.9071L151.642 13.2023C151.437 12.7715 151.28 12.3195 151.174 11.8546C151.174 11.7259 151.213 11.6937 151.267 11.6686C151.568 11.5691 151.887 11.5314 152.203 11.5578H152.561V10.2672H147.102V11.5578H147.459C148.056 11.5578 148.228 11.6865 148.267 11.7294C148.306 11.7723 148.532 12.0869 148.982 13.2953L152.257 21.7574H153.276L156.186 14.1783L159.046 21.7574H160.118L163.432 13.2953L163.711 12.5588C163.792 12.2416 163.965 11.9554 164.208 11.7366C164.445 11.61 164.712 11.5484 164.98 11.5578H165.338V10.2672H161.234V11.5435ZM179.663 19.0296C179.509 19.9699 179.12 19.9699 178.973 19.9699C178.73 19.9699 178.676 19.8805 178.644 19.7875C178.612 19.6946 178.512 19.2477 178.512 18.025V13.8351C178.55 13.1157 178.443 12.396 178.197 11.7187C177.91 11.1499 177.448 10.6886 176.878 10.4031C176.052 9.99191 175.133 9.80104 174.211 9.84896C172.692 9.84896 171.544 10.1564 170.801 10.757C170.057 11.3576 169.642 11.9868 169.642 12.5839C169.633 12.7318 169.656 12.8799 169.71 13.0179C169.764 13.1559 169.848 13.2804 169.955 13.3826C170.063 13.4848 170.191 13.5623 170.332 13.6096C170.472 13.6569 170.621 13.6728 170.768 13.6564C171.301 13.6564 171.977 13.3811 172.198 12.0726C172.266 11.6543 172.527 11.1002 173.964 11.1002C174.434 11.0775 174.901 11.1904 175.309 11.4255C175.573 11.5695 175.777 11.8027 175.884 12.0834C175.988 12.5622 176.03 13.0524 176.009 13.542V13.8101L174.265 14.5251C172.987 15.0179 171.777 15.6714 170.665 16.4699C169.728 17.1849 169.253 18.0501 169.253 19.0296C169.243 19.3918 169.319 19.7511 169.474 20.0785C169.63 20.4058 169.86 20.6919 170.146 20.9137C171.154 21.7181 172.463 21.8646 174.193 21.1139C174.868 20.8055 175.515 20.4395 176.127 20.0199C176.245 20.4123 176.463 20.7672 176.76 21.0495C177.202 21.4294 177.772 21.6263 178.355 21.6001C179.427 21.6001 180.718 21.1639 180.828 19.0976L180.85 18.7401H179.71L179.663 19.0296ZM172.048 18.5542C172.048 17.378 173.074 16.3662 175.098 15.544L175.995 15.1865V18.5899C175.508 18.9852 174.982 19.3301 174.426 19.6195C173.478 20.095 172.806 20.1021 172.381 19.6195C172.141 19.3184 172.022 18.9383 172.048 18.5542ZM190.928 19.2727C190.545 19.8626 190.124 20.1486 189.644 20.1486C189.402 20.1474 189.167 20.0656 188.976 19.9162C188.772 19.7668 188.628 19.5503 188.568 19.3049C188.468 18.6907 188.429 18.0678 188.454 17.4459V11.5471H191.579V10.2565H188.454V7.01039H187.382L187.339 7.31069C187.257 8.12076 186.923 8.88477 186.384 9.49503C186.182 9.72574 185.936 9.91265 185.659 10.0442C185.382 10.1758 185.082 10.2493 184.775 10.2601H184.418V11.5471H185.916V17.0634C185.894 17.9343 185.961 18.8051 186.116 19.6624C186.267 20.2467 186.616 20.7607 187.103 21.1174C187.622 21.5217 188.264 21.7373 188.922 21.7288C189.527 21.7219 190.12 21.5607 190.646 21.2604C191.223 20.9363 191.68 20.4349 191.95 19.8304L192.09 19.5409L191.114 18.9581L190.928 19.2727ZM204.72 18.5077C204.484 19.0868 204.072 19.5774 203.542 19.9108C203.013 20.2441 202.392 20.4035 201.767 20.3667C201.317 20.3908 200.869 20.2913 200.471 20.0789C200.074 19.8666 199.742 19.5494 199.512 19.1619C198.982 18.3075 198.711 16.9919 198.711 15.2508C198.711 15.0685 198.711 14.8182 198.739 14.4929H206.015V14.1354C205.947 13.0452 205.498 12.0137 204.745 11.2218C203.934 10.3173 202.783 9.85969 201.324 9.85969C200.59 9.84832 199.862 9.99873 199.192 10.3002C198.522 10.6017 197.927 11.047 197.449 11.6043C196.414 12.7968 195.866 14.3343 195.912 15.9122C195.882 17.0103 196.159 18.0949 196.712 19.0439C197.212 19.8748 197.916 20.564 198.757 21.0459C199.593 21.5236 200.541 21.7691 201.503 21.7572C202.466 21.7452 203.407 21.4762 204.231 20.978C205.072 20.4846 205.7 19.6958 205.993 18.7651L206.14 18.3003H204.813L204.72 18.5077ZM203.108 13.2667H198.886C199.208 11.8367 199.958 11.1217 201.21 11.1217C201.47 11.1094 201.731 11.1531 201.973 11.2498C202.215 11.3465 202.434 11.494 202.614 11.6823C202.795 11.8706 202.933 12.0954 203.019 12.3416C203.106 12.5877 203.138 12.8495 203.115 13.1094C203.115 13.1523 203.112 13.2274 203.108 13.2667ZM219.425 10.4817C219.222 10.2702 218.976 10.1043 218.704 9.99519C218.433 9.88607 218.141 9.83622 217.848 9.84896C217.071 9.88172 216.327 10.1766 215.739 10.6855C215.396 10.9532 215.09 11.2659 214.831 11.615C214.771 11.0918 214.651 10.5772 214.473 10.0813L214.359 9.76316L214.033 9.86684C213.046 10.1955 212.032 10.4348 211.002 10.5818L210.687 10.6176V11.8581H211.306C211.621 11.8214 211.941 11.8786 212.224 12.0226C212.288 12.0709 212.341 12.1328 212.378 12.2039C212.415 12.2751 212.436 12.3535 212.439 12.4337C212.471 12.6947 212.485 13.3882 212.485 14.4893V17.4101C212.506 18.1174 212.485 18.8252 212.425 19.5301C212.416 19.6036 212.391 19.6741 212.35 19.7362C212.31 19.7982 212.256 19.85 212.192 19.8876C211.915 20.0148 211.609 20.0666 211.306 20.0378H210.687V21.3284H216.901V20.0485H216.186C215.867 20.0816 215.545 20.026 215.256 19.8876C215.192 19.8401 215.139 19.7789 215.101 19.7084C215.063 19.6379 215.042 19.5599 215.038 19.4801C215.013 19.2084 214.999 18.5184 214.999 17.428V15.5833C214.979 14.878 215.047 14.1731 215.202 13.4848C215.366 12.9549 215.67 12.4793 216.082 12.1084C216.622 11.5828 216.954 11.472 217.136 11.472C217.194 11.472 217.344 11.472 217.494 11.8653C217.851 12.8377 218.388 13.0379 218.792 13.0379C218.954 13.0392 219.115 13.0061 219.263 12.9408C219.412 12.8755 219.545 12.7794 219.653 12.6589C219.881 12.4255 220.009 12.1127 220.011 11.7866C219.992 11.2921 219.782 10.8243 219.425 10.4817Z" fill="white"/>
<path d="M11.9763 13.0881H7.68631C7.50426 13.0881 7.32967 13.1605 7.20095 13.2892C7.07222 13.4179 6.9999 13.5925 6.9999 13.7745V15.6336C6.9999 15.8156 7.07222 15.9902 7.20095 16.1189C7.32967 16.2476 7.50426 16.32 7.68631 16.32H11.9763C12.1584 16.32 12.333 16.2476 12.4617 16.1189C12.5904 15.9902 12.6627 15.8156 12.6627 15.6336V13.7745C12.6627 13.5925 12.5904 13.4179 12.4617 13.2892C12.333 13.1605 12.1584 13.0881 11.9763 13.0881ZM18.9762 3.48561L18.0181 1.58727C18.0181 1.58727 18.3363 1.40137 18.4793 1.32987C18.6223 1.25837 18.7296 1.169 18.5329 0.800769C18.3363 0.432541 18.1218 0.518342 18.1218 0.518342C18.1218 0.518342 17.843 0.672068 17.5355 0.829369C17.3798 0.583784 17.1666 0.379885 16.9143 0.235353C16.662 0.090822 16.3782 0.0100227 16.0876 -3.73118e-05H15.0151C14.9263 -0.0125994 14.8359 -0.00636067 14.7497 0.0182744C14.6634 0.0429094 14.5834 0.0853907 14.5146 0.142964C14.4473 0.214974 14.3651 0.271462 14.2737 0.308504C14.1823 0.345546 14.084 0.362253 13.9855 0.357465H6.76038C6.68888 0.357465 6.67458 0.314565 6.63167 0.285965C6.45101 0.192996 6.24708 0.154964 6.04505 0.176565C5.84302 0.198165 5.65174 0.278453 5.49482 0.407516C5.38042 0.536217 4.92281 1.09392 4.65111 1.40137C4.47225 1.61228 4.23038 1.76016 3.96113 1.82323C3.99301 1.78192 4.01232 1.73232 4.01676 1.68033C4.02119 1.62835 4.01057 1.57618 3.98615 1.53007L3.8789 1.31557L4.02906 0.908019L4.16491 0.836519L4.08626 0.650618C4.08626 0.650618 4.00046 0.686368 3.84315 0.765018C3.68585 0.843669 3.68585 0.91517 3.68585 0.91517C3.61793 1.17257 3.42845 1.18687 3.42845 1.18687C3.42845 1.18687 3.01375 0.400366 2.95655 0.300265C2.89935 0.200164 2.78852 -0.114438 1.40141 0.629167C0.0143001 1.37277 0.357503 1.65878 0.357503 1.65878L0.815106 2.57041L0.672105 2.68481L1.02961 3.37121C1.02961 3.37121 0.943807 3.41411 0.643505 3.61431C0.456666 3.69284 0.296516 3.82372 0.182344 3.99117C0.0681725 4.15862 0.00484861 4.35551 0 4.55812L0 24.5068C0 26.0083 0.429003 26.6947 2.10212 26.6947H17.3639C18.347 26.6947 19.2908 26.1799 19.2908 24.4639V4.74402C19.3051 3.75732 19.1049 3.74302 18.9762 3.48561ZM8.01879 1.83038H13.1025C13.21 1.82312 13.3178 1.83802 13.4193 1.87417C13.5208 1.91032 13.6138 1.96694 13.6925 2.04052C13.7713 2.1141 13.834 2.20307 13.8769 2.30191C13.9198 2.40074 13.942 2.50735 13.942 2.61509C13.942 2.72284 13.9198 2.82945 13.8769 2.92828C13.834 3.02712 13.7713 3.11609 13.6925 3.18967C13.6138 3.26325 13.5208 3.31987 13.4193 3.35602C13.3178 3.39217 13.21 3.40707 13.1025 3.39981H8.01879C7.91128 3.40707 7.80343 3.39217 7.70193 3.35602C7.60042 3.31987 7.50743 3.26325 7.42871 3.18967C7.34999 3.11609 7.28724 3.02712 7.24433 2.92828C7.20142 2.82945 7.17928 2.72284 7.17928 2.61509C7.17928 2.50735 7.20142 2.40074 7.24433 2.30191C7.28724 2.20307 7.34999 2.1141 7.42871 2.04052C7.50743 1.96694 7.60042 1.91032 7.70193 1.87417C7.80343 1.83802 7.91128 1.82312 8.01879 1.83038ZM14.461 17.5176C14.461 17.5176 16.1627 20.4884 16.5202 21.1677C16.9921 22.0722 16.3486 22.4583 16.3486 22.4583C16.3486 22.4583 15.4906 22.8873 15.0616 22.1008C14.7041 21.443 13.51 19.3516 13.0882 18.7045C12.5483 17.8751 12.3195 17.5891 11.5902 17.5891H8.01521C7.27875 17.5891 7.04995 17.8751 6.4994 18.7045C6.07755 19.3516 4.87991 21.443 4.51526 22.1008C4.08268 22.873 3.21752 22.4583 3.21752 22.4583C3.21752 22.4583 2.56687 22.0722 3.04592 21.1677C3.40343 20.4884 5.11944 17.5176 5.11944 17.5176C5.35642 17.1556 5.50463 16.7428 5.55202 16.3128V13.0059C5.50358 12.5733 5.35151 12.1588 5.10871 11.7976C5.10871 11.7976 3.3927 8.83028 3.0352 8.15102C2.55614 7.26084 3.21752 6.87474 3.21752 6.87474C3.21752 6.87474 4.08268 6.44574 4.51526 7.23224C4.87276 7.88647 6.07755 9.97429 6.4994 10.6178C7.04995 11.4472 7.27875 11.7296 8.01521 11.7296H11.5902C12.3052 11.7296 12.5483 11.4472 13.0882 10.6178C13.51 9.97429 14.6969 7.88647 15.0616 7.23224C15.4906 6.46004 16.3486 6.87474 16.3486 6.87474C16.3486 6.87474 16.9921 7.26084 16.5202 8.15817C16.1627 8.83743 14.461 11.8047 14.461 11.8047C14.2247 12.1654 14.0776 12.5771 14.032 13.0059V16.3235C14.0804 16.7494 14.2273 17.1582 14.461 17.5176Z" fill="#FFC907"/>
</g>
<defs>
<clipPath id="clip0_646_688">
<rect width="220" height="27.7172" fill="white"/>
</clipPath>
</defs>
</svg>
