<svg width="140" height="55" viewBox="0 0 140 55" fill="none" xmlns="http://www.w3.org/2000/svg">
<rect width="54.1738" height="54.1738" fill="white"/>
<path fill-rule="evenodd" clip-rule="evenodd" d="M35.196 12.4858H9.63226L13.7707 16.4651L35.0523 16.6079L35.0537 16.6079C35.3977 16.6079 35.8697 16.7416 36.3933 17.0174C36.913 17.2912 37.4687 17.6973 37.9783 18.2224C38.9972 19.2724 39.8213 20.7867 39.8213 22.6559C39.8213 26.3699 36.9278 28.1344 35.4509 28.5616H31.4425L25.6097 22.7288H19.608L38.2376 41.5039H44.5214L35.6266 32.4657C37.1067 32.1614 39.1293 31.4016 40.842 30.0116C42.7197 28.4876 44.2279 26.2021 44.2279 22.9404C44.2279 19.692 42.8855 17.0789 41.0896 15.2794C39.299 13.4852 37.0427 12.4858 35.196 12.4858ZM19.3509 28.5616H13.3497L26.145 41.5039H32.1462L19.3509 28.5616Z" fill="#222222"/>
<g clip-path="url(#clip0_56_29183)">
<path fill-rule="evenodd" clip-rule="evenodd" d="M9.94541 12.6123C9.94541 12.6123 9.94541 12.6674 9.93754 12.691C9.9218 12.7067 9.89819 12.7382 9.88246 12.7539C9.85885 12.7697 9.83524 12.7697 9.81164 12.7854C9.7959 12.7933 9.78803 12.8169 9.77229 12.8326C9.73295 12.872 9.72508 12.8798 9.70934 12.9507C9.6936 13.0215 9.70934 13.0844 9.71721 13.1631C9.74869 13.1631 9.77229 13.0451 9.83524 13.0215C9.85098 13.0215 9.88246 13.0057 9.89819 13.0215C9.94541 13.0766 9.83524 13.171 9.81951 13.2182C9.7959 13.2733 9.7959 13.3126 9.76442 13.3598C9.76442 13.3756 9.74082 13.3835 9.73295 13.3992C9.73295 13.4149 9.73295 13.4385 9.72508 13.4621C9.71721 13.5172 9.70147 13.5802 9.67787 13.6274C9.65426 13.6667 9.62278 13.7061 9.59918 13.7454C9.48901 13.95 9.41033 14.1782 9.26869 14.3828C9.24508 14.4143 9.22147 14.4615 9.19 14.5008C9.15852 14.5402 9.10344 14.5874 9.10344 14.611C9.10344 14.6267 9.11918 14.6425 9.11918 14.6739C9.11918 14.6739 9.10344 14.6739 9.10344 14.6897C9.10344 14.6976 9.10344 14.7054 9.10344 14.7133C9.10344 14.7369 9.07983 14.7526 9.07196 14.7684C9.10344 14.8392 9.10344 14.9021 9.07196 14.9336C9.02475 14.973 8.95393 14.9336 8.89098 14.9494C8.84377 14.9651 8.82016 15.0359 8.78082 15.0674C8.8359 15.0989 8.85951 15.1382 8.91459 15.1461C8.9618 15.1461 9.02475 15.1461 9.07983 15.1461C9.12705 15.1461 9.17426 15.1461 9.23721 15.1461C9.40246 15.1225 9.50475 15.0674 9.61492 14.9966C9.67 14.9572 9.74082 14.91 9.81164 14.8864C9.87459 14.8628 9.94541 14.8471 10.0084 14.8235C10.1736 14.7605 10.3782 14.6346 10.5592 14.5953C10.6379 14.5795 10.7087 14.5795 10.7323 14.5166C10.7323 14.493 10.7323 14.4694 10.7323 14.4457C10.7402 14.3828 10.7874 14.312 10.811 14.2333C10.8346 14.1546 10.8582 14.0759 10.8818 14.013C10.8975 13.9894 10.9211 13.95 10.9369 13.9264C10.9605 13.8949 10.9762 13.8556 10.992 13.8398C11.0077 13.8241 11.0707 13.769 11.1021 13.7612C11.1257 13.7533 11.1808 13.7454 11.2123 13.7454C11.228 13.7454 11.2438 13.7612 11.2595 13.7612C11.3146 13.7612 11.3775 13.7297 11.4484 13.7454C11.4877 13.8084 11.4326 13.8241 11.4011 13.8477C11.3775 13.8713 11.3539 13.9107 11.3225 13.9264C11.3067 13.9343 11.2752 13.9343 11.2595 13.95C11.2359 13.9657 11.2202 14.0051 11.2044 14.0287C11.1808 14.0523 11.1415 14.068 11.1336 14.0917C11.1336 14.0995 11.1336 14.1231 11.1179 14.1389C11.0943 14.2097 11.0313 14.2648 11.0785 14.3828C11.1651 14.3828 11.1887 14.2884 11.2595 14.2805C11.291 14.2805 11.3303 14.2805 11.3382 14.3198C11.3461 14.3513 11.3146 14.3828 11.2752 14.4143C11.2438 14.4379 11.2123 14.4615 11.1887 14.4851C11.1336 14.5323 11.1179 14.5874 11.0549 14.6346C11.0392 14.6503 11.0077 14.6503 10.992 14.6661C10.929 14.7133 10.9054 14.7998 10.8346 14.8471C10.7874 14.8785 10.7323 14.8943 10.6929 14.9258C10.6457 14.9494 10.6064 14.9887 10.567 15.0123C10.4018 15.1303 10.2523 15.2641 10.0634 15.3664C10.0162 15.39 9.96901 15.4136 9.91393 15.4372C9.86672 15.4608 9.81951 15.4923 9.77229 15.508C9.70934 15.5317 9.62278 15.5553 9.5441 15.5867C9.38672 15.6418 9.24508 15.6969 9.04049 15.7048C8.99328 15.7048 8.94606 15.7048 8.89885 15.7048C8.85164 15.7048 8.80442 15.7126 8.76508 15.7284C8.71 15.752 8.67065 15.8621 8.63131 15.9251C8.59196 16.0038 8.54475 16.0589 8.52114 16.1376C8.50541 16.1848 8.49754 16.2477 8.47393 16.2949C8.45032 16.3658 8.42672 16.4208 8.38737 16.468C8.34016 16.5389 8.23 16.5467 8.17491 16.6412C8.19065 16.6648 8.20639 16.6805 8.20639 16.712C8.20639 16.7356 8.19852 16.7592 8.20639 16.7828C8.20639 16.8143 8.23787 16.8379 8.24573 16.8772C8.24573 16.893 8.24573 16.9087 8.24573 16.9323C8.24573 16.948 8.23 16.9717 8.23 16.9795C8.23 17.0031 8.27721 17.0267 8.28508 17.0582C8.30082 17.1212 8.28508 17.1684 8.30082 17.2077C8.31655 17.2313 8.34803 17.2392 8.37164 17.2549C8.39524 17.2707 8.40311 17.2943 8.41885 17.3021C8.43459 17.3179 8.46606 17.3336 8.4818 17.3336C8.50541 17.3336 8.53688 17.2943 8.56049 17.2785C8.65492 17.2471 8.78082 17.2628 8.89885 17.2549C9.02475 17.2392 9.12705 17.1999 9.22147 17.1684C9.23721 17.1762 9.22147 17.2156 9.24508 17.2235C9.41033 17.2077 9.53623 17.1526 9.68574 17.129C9.74869 17.1212 9.82737 17.1054 9.89819 17.1054C9.92967 17.1054 9.95328 17.1212 9.98475 17.129C10.1028 17.1605 10.2129 17.192 10.2995 17.2707C10.2995 17.2707 10.3074 17.2943 10.3152 17.2943C10.3467 17.3179 10.3782 17.3258 10.4097 17.3415C10.449 17.3651 10.4962 17.4123 10.5356 17.4595C10.567 17.4989 10.63 17.5776 10.63 17.609C10.6379 17.6562 10.6143 17.7192 10.5985 17.7507C10.5985 17.7664 10.5749 17.79 10.5513 17.8136C10.5434 17.8294 10.512 17.8687 10.512 17.8766C10.512 17.9002 10.5828 17.971 10.6143 18.0025C10.8346 18.2464 11.0628 18.4589 11.2831 18.6949C11.3146 18.7343 11.3539 18.7736 11.4011 18.7972C11.4011 18.7815 11.4169 18.7736 11.4248 18.7579C11.4405 18.7343 11.4562 18.6713 11.4877 18.6556C11.5034 18.6477 11.527 18.6556 11.5428 18.6477C11.5507 18.6477 11.5743 18.6162 11.5821 18.6084C11.59 18.5926 11.59 18.5769 11.6057 18.5612C11.6136 18.5454 11.6372 18.5297 11.6451 18.5218C11.6687 18.5061 11.6844 18.5218 11.7002 18.4903C11.9654 17.9599 12.0135 18.5605 11.9598 18.8287C11.9205 19.0254 11.889 19.2221 11.8261 19.4267C11.8103 19.4661 11.7946 19.529 11.7789 19.529C11.7474 19.5448 11.6372 19.4976 11.5979 19.4897C11.5428 19.474 11.4798 19.4661 11.4248 19.4425C11.3775 19.4267 11.3067 19.3953 11.3303 19.3481C11.2674 19.3087 11.2044 19.2536 11.1572 19.1985C11.11 19.1356 11.0549 19.0805 10.9998 19.0333C10.8897 18.931 10.7716 18.8444 10.6379 18.7658C10.4962 18.6871 10.3625 18.6241 10.2523 18.5218C10.15 18.4353 10.0477 18.3566 9.98475 18.2228C9.97688 18.2071 9.97688 18.1835 9.96115 18.1677C9.96115 18.1599 9.87459 18.0418 9.85885 18.034C9.84311 18.034 9.76442 18.0497 9.71721 18.0654C9.59131 18.0969 9.45754 18.1599 9.35524 18.1992C9.27655 18.2307 9.19787 18.2621 9.11131 18.2858C9.02475 18.3172 8.93033 18.3251 8.84377 18.3487C8.79655 18.3644 8.74147 18.3881 8.68639 18.4038C8.59983 18.4274 8.50541 18.4353 8.40311 18.4353C8.36377 18.5769 8.34016 18.7028 8.29295 18.8287C8.24573 18.9546 8.20639 19.0805 8.19852 19.2379C8.19065 19.2615 8.16705 19.2379 8.15131 19.2536C8.11196 19.3953 8.05688 19.5369 8.0018 19.6785C7.98606 19.7258 7.97819 19.773 7.95459 19.8123C7.93885 19.8359 7.91524 19.8595 7.8995 19.8831C7.86803 19.9303 7.83655 19.9854 7.80508 20.0326C7.78934 20.0562 7.76573 20.072 7.75 20.0956C7.72639 20.1349 7.71065 20.1979 7.68705 20.253C7.67131 20.3002 7.63983 20.3789 7.60836 20.4025C7.58475 20.4182 7.53754 20.4182 7.49819 20.4261C7.46672 20.4261 7.41164 20.4182 7.3959 20.4261C7.37229 20.434 7.34082 20.552 7.32508 20.5913C7.23852 20.8431 7.17557 21.0635 7.10475 21.3153C7.08901 21.3782 7.06541 21.4333 7.05754 21.5041C7.04967 21.5592 7.04967 21.6379 7.0418 21.7166C7.0418 21.7953 7.01819 21.874 7.02606 21.929C7.02606 21.9448 7.04967 21.9526 7.05754 21.9684C7.07327 21.9999 7.05754 22.0549 7.07327 22.0864C7.07327 22.1022 7.08901 22.1022 7.08901 22.11C7.08901 22.1336 7.08114 22.1651 7.08114 22.1887C7.08114 22.2281 7.08114 22.2753 7.09688 22.3146C7.09688 22.3303 7.11262 22.3382 7.12049 22.354C7.13622 22.3854 7.13623 22.4248 7.14409 22.4641C7.14409 22.4877 7.15983 22.5035 7.17557 22.5271C7.18344 22.5507 7.19131 22.5743 7.19918 22.59C7.20705 22.6136 7.23065 22.6294 7.24639 22.6608C7.26213 22.6845 7.27 22.7159 7.28573 22.7317C7.33295 22.7946 7.40377 22.8418 7.40377 22.9441C7.40377 22.9756 7.37229 23.0307 7.34082 23.07C7.28573 23.133 7.22278 23.1959 7.09688 23.1644C7.08901 23.1644 7.04967 23.1487 7.03393 23.1408C6.9395 23.0858 6.83721 22.9913 6.77426 22.9126C6.64049 22.7395 6.51459 22.4956 6.38868 22.2989C6.31786 22.1887 6.19196 21.9999 6.25491 21.8818C6.27852 21.8346 6.34147 21.8189 6.39655 21.7717C6.47524 21.7166 6.49098 21.63 6.59327 21.6536C6.63262 21.5513 6.64049 21.4412 6.64836 21.3389C6.66409 21.2287 6.67196 21.1107 6.67196 21.0005C6.67196 20.8825 6.64836 20.7566 6.65622 20.6228C6.65622 20.4733 6.70344 20.3317 6.75852 20.2136C6.77426 20.1743 6.78999 20.1271 6.8136 20.0956C6.83721 20.0641 6.87655 20.0405 6.89229 20.0012C6.90803 19.9776 6.90803 19.9382 6.92377 19.9067C6.95524 19.8202 6.97098 19.7179 6.99459 19.6156C7.02606 19.474 7.05754 19.3402 7.08114 19.2143C7.11262 19.0176 7.11262 18.7736 7.13622 18.5533C7.14409 18.4825 7.15196 18.4038 7.17557 18.3487C7.19131 18.3172 7.21491 18.2936 7.25426 18.27C7.23852 18.2385 7.20705 18.2228 7.19918 18.1913C7.18344 18.1756 7.17557 18.2228 7.15196 18.1992C7.12049 18.1205 7.07327 18.0497 7.04967 17.9631C7.04967 17.9395 7.04967 17.9159 7.03393 17.8923C7.03393 17.8687 7.01032 17.853 7.00245 17.8294C6.98672 17.79 6.97885 17.7349 6.97885 17.6877C6.97885 17.672 6.97885 17.6326 6.97885 17.6169C6.98672 17.5933 7.01819 17.5854 7.02606 17.554C7.02606 17.5146 6.99459 17.4044 6.98672 17.3572C6.98672 17.31 6.98672 17.2707 6.97098 17.2392C6.95524 17.1212 6.92377 16.9795 6.9159 16.8772C6.9159 16.8143 6.9159 16.7277 6.90803 16.6726C6.90803 16.6097 6.88442 16.5625 6.88442 16.5074C6.88442 16.4602 6.89229 16.4051 6.90016 16.3579C6.92377 16.2241 6.97098 16.1297 7.02606 16.0195C7.03393 15.9959 7.04967 15.9802 7.05754 15.9566C7.06541 15.9172 7.06541 15.8779 7.07327 15.8464C7.12049 15.5946 7.25426 15.4058 7.41163 15.2405C7.49819 15.1461 7.60049 15.0595 7.71065 14.9808C7.81295 14.9021 7.93098 14.8077 8.08049 14.7762C8.11196 14.6582 8.02541 14.5795 7.98606 14.5008C7.93885 14.4143 7.8995 14.3198 7.8995 14.1625C7.8995 13.8792 8.08836 13.651 8.39524 13.6431C8.57623 13.6431 8.72573 13.7061 8.8359 13.8005C8.89885 13.8556 8.9618 13.9264 8.98541 14.013C9.02475 14.0051 9.04836 13.9579 9.07983 13.9264C9.15852 13.832 9.22934 13.7139 9.3159 13.6195C9.36311 13.5723 9.41819 13.5408 9.4418 13.4936C9.45754 13.4621 9.45754 13.4071 9.46541 13.352C9.46541 13.2812 9.48115 13.2182 9.49688 13.1474C9.49688 13.1159 9.49688 13.0766 9.51262 13.0451C9.51262 13.0215 9.55196 12.9821 9.5677 12.9428C9.59131 12.8798 9.59131 12.8169 9.63065 12.7776C9.65426 12.7539 9.6936 12.7303 9.73295 12.6989C9.74869 12.6831 9.77229 12.6753 9.78803 12.6674C9.80377 12.6595 9.82738 12.6359 9.84311 12.6359C9.86672 12.6359 9.89033 12.6359 9.9218 12.6202L9.94541 12.6123Z" fill="#222222"/>
<path d="M7.90535 13.8675C8.11063 13.6584 8.06354 13.8107 8.06354 13.7818C8.04091 13.9648 8.01891 14.0645 8.00929 14.0813C8.00929 14.1037 8.00929 14.1059 8.00929 14.0813C8.00929 13.991 8.00929 13.9423 8.00929 13.8862C8.00929 13.8862 7.99271 13.9006 7.98443 13.9079C7.98443 13.9079 7.99271 13.8934 8.001 13.8862C8.00393 13.8836 8.00679 13.8813 8.00929 13.879C8.04451 13.8457 8.03698 13.8331 7.99271 13.8717C7.99271 13.8717 7.97614 13.879 7.96785 13.8862C7.96785 13.8862 7.98443 13.8717 7.98443 13.8645C8.00929 13.8428 8.02586 13.8212 8.05901 13.8067H8.04244C8.04244 13.8067 8.05072 13.7995 8.05901 13.7923C8.05901 13.7923 8.05901 13.7923 8.05072 13.7923C8.05072 13.7923 8.05072 13.7923 8.04244 13.7923H8.03415H8.01758H8.001C8.001 13.7923 8.01758 13.7923 8.01758 13.785C8.01758 13.785 8.02586 13.785 8.03415 13.7778H8.01758C8.01758 13.7778 8.02586 13.7778 8.03415 13.7706C8.05072 13.7706 8.05901 13.7561 8.07558 13.7561C8.0673 13.7561 8.05072 13.7561 8.04244 13.7561H8.02586C8.02586 13.7561 8.03415 13.7561 8.04244 13.7561C8.04244 13.7561 8.04244 13.7561 8.05072 13.7561H8.0673C8.0673 13.7561 8.0673 13.7561 8.05901 13.7561C8.05901 13.7561 8.0673 13.7417 8.07558 13.7417C8.07558 13.7417 8.08387 13.7417 8.09216 13.7417C8.09216 13.7417 8.09216 13.7417 8.08387 13.7417C8.08387 13.7417 8.07559 13.7417 8.0673 13.7417C8.0673 13.7417 8.05901 13.7417 8.05072 13.7417C8.05072 13.7417 8.05901 13.7417 8.0673 13.7417C8.0673 13.7417 8.07559 13.7417 8.08387 13.7417C8.08387 13.7417 8.07559 13.7417 8.0673 13.7417C8.0673 13.7417 8.07559 13.7417 8.08387 13.7417H8.11702C8.11702 13.7417 8.10045 13.7417 8.09216 13.7417H8.08387C8.08387 13.7417 8.08387 13.7417 8.09216 13.7417C8.10045 13.7417 8.10873 13.7417 8.12531 13.7417C8.12531 13.7417 8.12531 13.7417 8.11702 13.7272C8.11702 13.7272 8.11702 13.7272 8.12531 13.7272C8.12531 13.7272 8.13359 13.7272 8.14188 13.7272H8.10045C8.10873 13.7272 8.11702 13.7272 8.13359 13.7272H8.11702C8.11702 13.7272 8.11702 13.7272 8.12531 13.7272H8.11702C8.11702 13.7272 8.10873 13.7272 8.10045 13.7272H8.09216C8.09216 13.7272 8.10045 13.7272 8.10873 13.7272C8.10873 13.7272 8.10873 13.7272 8.11702 13.7272H8.10873C8.10873 13.7272 8.11702 13.7272 8.12531 13.7272C8.12531 13.7272 8.13359 13.7272 8.14188 13.7272C8.14188 13.7272 8.14188 13.7272 8.15017 13.7272C8.15017 13.7272 8.14188 13.7272 8.13359 13.7272H8.11702C8.11702 13.7272 8.12531 13.7272 8.13359 13.7272C8.13359 13.7272 8.14188 13.7272 8.15017 13.7272C8.15017 13.7272 8.14188 13.7272 8.13359 13.7272C8.13359 13.7272 8.12531 13.7272 8.11702 13.72C8.11702 13.72 8.10873 13.72 8.10045 13.7128C8.10045 13.7128 8.10873 13.7128 8.11702 13.7128H8.13359C8.13359 13.7128 8.12531 13.7128 8.11702 13.7055C8.11702 13.7055 8.12531 13.7055 8.13359 13.7055C8.14188 13.7055 8.15846 13.7055 8.16674 13.7055C8.15846 13.7055 8.15017 13.7055 8.14188 13.6983H8.13359C8.13359 13.6983 8.14188 13.6983 8.15017 13.6983C8.16674 13.6983 8.18332 13.6983 8.1916 13.7055H8.23304C8.23304 13.7055 8.24133 13.7055 8.24961 13.7055C8.24961 13.7055 8.21647 13.7055 8.20818 13.7055C8.20818 13.7055 8.19989 13.7055 8.1916 13.7055C8.1916 13.7055 8.19989 13.7055 8.20818 13.7055C8.20818 13.7055 8.22475 13.7055 8.23304 13.7055C8.22475 13.7055 8.21647 13.7055 8.20818 13.6983C8.20818 13.6983 8.20818 13.6983 8.19989 13.6983C8.19989 13.6983 8.19989 13.6983 8.20818 13.6983C8.20818 13.6983 8.20818 13.6983 8.19989 13.6983C8.19989 13.6983 8.19989 13.6983 8.1916 13.6983C8.1916 13.6983 8.1916 13.6983 8.18332 13.6983C8.18332 13.6983 8.18332 13.6983 8.1916 13.6983C8.1916 13.6983 8.19989 13.6983 8.20818 13.6983C8.20818 13.6983 8.20818 13.6983 8.19989 13.6911C8.19989 13.6911 8.19989 13.6911 8.20818 13.6911C8.21647 13.6911 8.22475 13.6911 8.23304 13.6911C8.23304 13.6911 8.22475 13.6911 8.21647 13.6839C8.21647 13.6839 8.21647 13.6839 8.22475 13.6839C8.22475 13.6839 8.24133 13.6839 8.24961 13.6911C8.24961 13.6766 8.24133 13.6622 8.23304 13.655C8.23304 13.655 8.23304 13.6477 8.23304 13.6405C8.23304 13.6405 8.23304 13.6405 8.23304 13.6477C8.23304 13.6477 8.24133 13.6622 8.24961 13.6694C8.24961 13.6694 8.24961 13.6694 8.24961 13.6622C8.24961 13.6622 8.24961 13.655 8.24961 13.6477C8.24961 13.6477 8.24961 13.6405 8.24961 13.6333C8.24961 13.6188 8.24961 13.5972 8.24961 13.5827C8.24961 13.5827 8.24961 13.5682 8.24961 13.561C8.24961 13.5682 8.24961 13.5755 8.24961 13.5827C8.24961 13.5972 8.24961 13.6116 8.24961 13.6261C8.24961 13.6261 8.24961 13.5972 8.24961 13.5827V13.561C8.24961 13.561 8.24961 13.5827 8.24961 13.5899C8.24961 13.5899 8.24961 13.5755 8.24961 13.5682C8.24961 13.5682 8.24961 13.5682 8.24961 13.5755V13.5538H8.2579V13.5682V13.5466H8.26619C8.26619 13.5466 8.26619 13.5682 8.26619 13.5755C8.26619 13.5755 8.26619 13.5899 8.26619 13.5972V13.5755C8.26619 13.5755 8.26619 13.5755 8.26619 13.5827C8.26619 13.5827 8.26619 13.5827 8.26619 13.5899C8.26619 13.5899 8.26619 13.5899 8.26619 13.5827V13.5682V13.5755V13.561C8.26619 13.561 8.26619 13.5682 8.26619 13.5755C8.26619 13.5755 8.26619 13.5827 8.26619 13.5899V13.5755C8.26619 13.5755 8.26619 13.5755 8.26619 13.5827V13.5755C8.26619 13.5755 8.26619 13.5827 8.26619 13.5899C8.26619 13.5899 8.26619 13.5972 8.26619 13.6044C8.26619 13.6044 8.26619 13.5972 8.26619 13.5899C8.26619 13.5899 8.26619 13.5899 8.26619 13.5827V13.5972C8.26619 13.5972 8.26619 13.6188 8.26619 13.6261C8.26619 13.6261 8.26619 13.6405 8.26619 13.6477C8.26619 13.6477 8.26619 13.6261 8.26619 13.6188C8.26619 13.6044 8.26619 13.5899 8.28276 13.5755C8.28276 13.5755 8.28276 13.5682 8.28276 13.561V13.5755C8.28276 13.5755 8.28276 13.5899 8.28276 13.6044C8.28276 13.5972 8.29105 13.5827 8.29934 13.5755C8.29934 13.5755 8.29934 13.5682 8.29934 13.561V13.5755V13.5682C8.29934 13.5682 8.29934 13.561 8.29934 13.5538C8.29934 13.5538 8.29934 13.5538 8.29934 13.5466C8.29934 13.5466 8.29934 13.5538 8.29934 13.561C8.29934 13.561 8.31591 13.5466 8.33248 13.5321C8.33248 13.5321 8.33248 13.5466 8.33248 13.5538V13.5321C8.33248 13.5321 8.33248 13.5393 8.33248 13.5466V13.5321V13.5393V13.5104V13.496C8.33248 13.496 8.33248 13.5104 8.33248 13.5177V13.5393V13.5321V13.5177V13.5032V13.5249V13.5466V13.5321V13.5538V13.5755V13.5899H8.3242C8.3242 13.5827 8.34077 13.5755 8.34906 13.5682C8.34906 13.5682 8.35735 13.561 8.36563 13.5538L8.35735 13.5682C8.35735 13.5682 8.37392 13.561 8.38221 13.5538H8.39049V13.5393V13.5466C8.39049 13.5466 8.39878 13.5466 8.40707 13.5393L8.42364 13.5321C8.42364 13.5321 8.41535 13.5466 8.40707 13.5466C8.40707 13.5466 8.40707 13.5466 8.40707 13.5538H8.41536V13.5393C8.41536 13.5393 8.41535 13.5538 8.40707 13.5538C8.40707 13.5538 8.43193 13.5393 8.44022 13.5393C8.44022 13.5393 8.44022 13.5538 8.43193 13.5538C8.43193 13.561 8.42364 13.5755 8.41536 13.5827C8.41536 13.5827 8.41536 13.5827 8.41536 13.5899C8.42364 13.5755 8.44022 13.5682 8.4485 13.5538C8.4485 13.5538 8.45679 13.5466 8.46508 13.5393C8.46508 13.5393 8.45679 13.5466 8.4485 13.5538C8.4485 13.5538 8.4485 13.5466 8.45679 13.5393C8.45679 13.5393 8.45679 13.5393 8.46508 13.5393C8.46508 13.5393 8.48165 13.5321 8.48165 13.5249C8.48165 13.5249 8.48994 13.5249 8.49823 13.5177C8.49823 13.5177 8.48994 13.5249 8.48165 13.5321C8.48165 13.5321 8.46508 13.5393 8.46508 13.5466C8.46508 13.5466 8.47336 13.5393 8.48165 13.5321C8.48165 13.5321 8.47336 13.5393 8.46508 13.5466C8.45679 13.5538 8.44022 13.5682 8.43193 13.5755C8.44022 13.5755 8.4485 13.561 8.45679 13.5538C8.45679 13.5538 8.46508 13.5538 8.47336 13.5538C8.47336 13.5538 8.46508 13.5538 8.45679 13.561C8.45679 13.561 8.45679 13.5538 8.45679 13.5466V13.5321H8.46508V13.5466C8.46508 13.5466 8.46508 13.5393 8.46508 13.5321V13.5393V13.5177C8.46508 13.5177 8.46508 13.5249 8.46508 13.5321C8.46508 13.5321 8.46508 13.5393 8.46508 13.5466V13.5321C8.46508 13.5321 8.46508 13.5393 8.46508 13.5466C8.46508 13.5538 8.45679 13.5682 8.4485 13.5755C8.4485 13.5755 8.45679 13.561 8.46508 13.5538C8.46508 13.5538 8.46508 13.5538 8.46508 13.5466C8.46508 13.5466 8.46508 13.5538 8.46508 13.561C8.46508 13.5755 8.4485 13.5827 8.4485 13.5972C8.4485 13.5827 8.46508 13.5682 8.48165 13.561C8.48165 13.5466 8.48994 13.5393 8.49823 13.5249V13.5466C8.49823 13.5466 8.49823 13.5249 8.50651 13.5177V13.5032H8.5148V13.5104C8.5148 13.5104 8.5148 13.496 8.52309 13.4888V13.5032L8.50651 13.5177L8.48994 13.5321V13.5249V13.5393C8.48994 13.561 8.50651 13.5538 8.48165 13.5755C8.48165 13.5755 8.48994 13.5755 8.48994 13.5827C8.48994 13.5827 8.48994 13.5755 8.49823 13.5682C8.5148 13.5321 8.53137 13.5032 8.53966 13.4743C8.53966 13.4888 8.53966 13.5032 8.53137 13.5249C8.53137 13.5249 8.54795 13.5177 8.54795 13.5104C8.53966 13.5249 8.53137 13.5393 8.5148 13.5538C8.5148 13.5538 8.5148 13.561 8.53137 13.5538C8.52309 13.5755 8.53966 13.5682 8.52309 13.5682C8.53966 13.5538 8.56452 13.5393 8.5811 13.5249C8.56452 13.5393 8.55624 13.5466 8.54795 13.561C8.54795 13.561 8.56452 13.561 8.57281 13.561C8.56452 13.561 8.54795 13.5755 8.53966 13.5827C8.53966 13.5827 8.53966 13.5827 8.53966 13.5899C8.53966 13.5899 8.53966 13.5899 8.54795 13.5899C8.54795 13.5899 8.54795 13.5899 8.55623 13.5827C8.57281 13.5682 8.59767 13.5538 8.61424 13.5466C8.61424 13.5466 8.58938 13.561 8.5811 13.5755C8.59767 13.5682 8.61424 13.561 8.63082 13.5466H8.64739V13.5321C8.64739 13.5321 8.63911 13.5466 8.63082 13.5466L8.64739 13.5321V13.5393C8.64739 13.5393 8.68883 13.5177 8.7054 13.5104C8.71369 13.5104 8.72198 13.5032 8.73026 13.496H8.73855C8.73855 13.496 8.72198 13.5104 8.71369 13.5177C8.69712 13.5321 8.68054 13.5466 8.67225 13.5538C8.69712 13.5466 8.71369 13.5321 8.73855 13.5249C8.74684 13.5249 8.75512 13.5177 8.76341 13.5104C8.76341 13.5104 8.74684 13.5249 8.73855 13.5249H8.74684L8.7717 13.5104H8.76341V13.5177H8.77999C8.77999 13.5177 8.80485 13.5032 8.81313 13.5032H8.82142C8.82142 13.5032 8.82142 13.5032 8.81313 13.5032H8.80485C8.80485 13.5032 8.82971 13.5032 8.838 13.5032L8.80485 13.5177L8.7717 13.5393C8.7717 13.5393 8.78827 13.5321 8.80485 13.5249C8.79656 13.5249 8.78827 13.5321 8.77999 13.5393C8.75512 13.5538 8.73855 13.561 8.71369 13.5682C8.73026 13.5682 8.74684 13.561 8.7717 13.5538C8.77999 13.5538 8.78827 13.5538 8.80485 13.5538C8.79656 13.5538 8.78827 13.561 8.77999 13.5682C8.77999 13.5682 8.7717 13.5682 8.76341 13.5682H8.75512C8.75512 13.5682 8.73855 13.5899 8.72198 13.5972C8.73855 13.5972 8.75512 13.5899 8.76341 13.5827C8.76341 13.5827 8.7717 13.5827 8.77999 13.5827H8.76341V13.5972H8.77999H8.78827H8.80485H8.82142L8.80485 13.6116C8.80485 13.6116 8.78827 13.6188 8.77999 13.6261C8.77999 13.6261 8.77999 13.6261 8.78827 13.6261H8.7717C8.7717 13.6261 8.7717 13.6405 8.76341 13.6477V13.655C8.78827 13.655 8.80485 13.6477 8.82142 13.6333C8.80485 13.6477 8.78827 13.655 8.76341 13.6622C8.7717 13.6622 8.78827 13.6622 8.79656 13.6622C8.79656 13.6622 8.78827 13.6622 8.77999 13.6622C8.78827 13.6622 8.80485 13.6622 8.81313 13.6622H8.82971C8.82971 13.6622 8.81313 13.6622 8.80485 13.6622C8.78827 13.6622 8.77999 13.6622 8.76341 13.6622C8.77999 13.6622 8.79656 13.6622 8.81313 13.6694H8.82971C8.82971 13.6694 8.81313 13.6694 8.80485 13.6694H8.81313H8.82971C8.82971 13.6694 8.84628 13.6694 8.85457 13.6694H8.84628C8.84628 13.6694 8.86286 13.6694 8.87114 13.6694C8.86286 13.6694 8.85457 13.6694 8.84628 13.6694C8.838 13.6694 8.82971 13.6694 8.81313 13.6694C8.81313 13.6694 8.82971 13.6694 8.838 13.6694C8.838 13.6694 8.82142 13.6694 8.81313 13.6694C8.81313 13.6694 8.80485 13.6694 8.79656 13.6694C8.79656 13.6694 8.77999 13.6694 8.7717 13.6694C8.7717 13.6694 8.7717 13.6694 8.77999 13.6694C8.77999 13.6694 8.77999 13.6694 8.78827 13.6694C8.81313 13.6694 8.838 13.6839 8.86286 13.6983C8.86286 13.6983 8.87943 13.6983 8.88772 13.7055C8.88772 13.7055 8.88772 13.7055 8.87943 13.7055C8.87943 13.7055 8.86286 13.7055 8.85457 13.7055C8.838 13.7055 8.82142 13.7055 8.80485 13.6983C8.82142 13.7055 8.838 13.7128 8.85457 13.72C8.85457 13.72 8.87114 13.72 8.87943 13.7272C8.87943 13.7272 8.87943 13.7272 8.87114 13.7272C8.87114 13.7272 8.85457 13.7272 8.84628 13.7272H8.85457C8.85457 13.7272 8.86286 13.7272 8.87114 13.7344H8.86286C8.86286 13.7344 8.86286 13.7344 8.87114 13.7344C8.88772 13.7344 8.90429 13.7344 8.88772 13.7417C8.88772 13.7417 8.88772 13.7417 8.87943 13.7417C8.87943 13.7417 8.89601 13.7417 8.89601 13.7489H8.90429C8.90429 13.7489 8.90429 13.7489 8.89601 13.7489C8.88772 13.7489 8.87943 13.7489 8.87114 13.7489C8.87114 13.7489 8.87114 13.7489 8.86286 13.7489C8.86286 13.7489 8.86286 13.7489 8.85457 13.7489C8.85457 13.7489 8.85457 13.7489 8.84628 13.7489C8.84628 13.7489 8.838 13.7489 8.82971 13.7489C8.82971 13.7489 8.82971 13.7489 8.838 13.7561C8.838 13.7561 8.84628 13.7561 8.85457 13.7561C8.87114 13.7561 8.87943 13.7561 8.89601 13.7561C8.89601 13.7561 8.896 13.7561 8.90429 13.7561C8.90429 13.7561 8.90429 13.7561 8.89601 13.7561C8.89601 13.7561 8.87943 13.7561 8.87114 13.7561C8.87943 13.7561 8.88772 13.7561 8.90429 13.7561C8.90429 13.7561 8.91258 13.7561 8.92087 13.7561C8.92087 13.7561 8.91258 13.7561 8.90429 13.7561C8.90429 13.7561 8.90429 13.7561 8.91258 13.7561C8.91258 13.7561 8.92087 13.7561 8.92915 13.7561C8.92915 13.7561 8.93744 13.7561 8.94573 13.7561C8.94573 13.7561 8.93744 13.7561 8.92915 13.7561C8.92915 13.7561 8.92087 13.7561 8.91258 13.7561C8.91258 13.7561 8.92087 13.7561 8.92915 13.7561C8.92915 13.7561 8.92087 13.7561 8.91258 13.7561H8.89601C8.89601 13.7561 8.896 13.7561 8.90429 13.7561C8.90429 13.7561 8.91258 13.7561 8.92087 13.7561C8.92087 13.7561 8.92915 13.7561 8.93744 13.7633C8.93744 13.7633 8.95401 13.7706 8.9623 13.7778C8.9623 13.7778 8.9623 13.7778 8.95401 13.7778C8.94573 13.7778 8.93744 13.7778 8.92915 13.7778C8.92087 13.7778 8.91258 13.7778 8.89601 13.7706C8.89601 13.7706 8.90429 13.7778 8.91258 13.785C8.91258 13.785 8.92087 13.7923 8.92915 13.7995C8.92915 13.7995 8.94573 13.8067 8.95401 13.8139C8.95401 13.8139 8.95401 13.8139 8.94573 13.8139C8.94573 13.8139 8.92915 13.8139 8.92087 13.8139C8.92087 13.8139 8.92915 13.8139 8.93744 13.8139H8.92915C8.93744 13.8139 8.94573 13.8212 8.95401 13.8284H8.9623C8.9623 13.8284 8.9623 13.8284 8.95401 13.8284C8.95401 13.8284 8.95401 13.8284 8.94573 13.8284C8.95401 13.8284 8.9623 13.8356 8.97059 13.8428H8.97888C8.97888 13.8428 8.97888 13.8428 8.97059 13.8428C8.9623 13.8428 8.95401 13.8428 8.93744 13.8356C8.92915 13.8356 8.91258 13.8284 8.90429 13.8212C8.90429 13.8212 8.92087 13.8356 8.92915 13.8428C8.92915 13.8428 8.92915 13.8428 8.92087 13.8428C8.91258 13.8428 8.90429 13.8356 8.89601 13.8284C8.89601 13.8356 8.90429 13.8428 8.91258 13.8501C8.92087 13.8501 8.92915 13.8645 8.93744 13.8717C8.94573 13.879 8.95401 13.8934 8.95401 13.9006C8.9623 13.9223 8.97059 13.944 8.97059 13.9584C8.97059 13.9584 8.97059 13.9657 8.97059 13.9729C8.97059 13.9729 8.97059 13.9657 8.9623 13.9584C8.9623 13.9512 8.95401 13.9368 8.94573 13.9295C8.94573 13.944 8.94573 13.9584 8.94573 13.9729V13.9874C8.94573 13.9874 8.94573 13.9801 8.93744 13.9729V13.9874C8.93744 13.9874 8.93744 14.0018 8.93744 14.009C8.93744 14.009 8.93744 14.0235 8.94573 14.0235C8.94573 14.0235 8.93744 14.0163 8.92915 14.009C8.92915 14.009 8.92915 13.9946 8.92087 13.9874C8.92087 13.9874 8.92087 14.0018 8.92087 14.009C8.92087 14.009 8.92087 13.9946 8.91258 13.9874C8.91258 13.9874 8.91258 13.9874 8.89601 13.9801C8.89601 13.9801 8.89601 13.9801 8.89601 13.9874C8.89601 14.0018 8.91258 14.009 8.92087 14.0163C8.93744 14.0452 8.95401 14.0668 8.97059 14.0885C8.97059 14.0885 8.97888 14.103 8.98716 14.103C8.98716 14.103 8.97059 14.0957 8.9623 14.0885C8.94573 14.0813 8.93744 14.0668 8.92087 14.0524C8.92915 14.0741 8.93744 14.0885 8.95401 14.1102C8.95401 14.1174 8.9623 14.1246 8.97059 14.1319C8.97059 14.1319 8.97059 14.1319 8.9623 14.1319C8.9623 14.1319 8.94573 14.1174 8.93744 14.1174C8.93744 14.1174 8.93744 14.1174 8.93744 14.1246C8.93744 14.1246 8.94573 14.1391 8.95401 14.1463C8.95401 14.1463 8.95401 14.1463 8.94573 14.1391C8.94573 14.1391 8.94573 14.1391 8.95401 14.1463C8.95401 14.1535 8.97059 14.1608 8.97888 14.168C8.97888 14.168 8.97888 14.168 8.97888 14.1752C8.97888 14.1752 8.97888 14.1752 8.97059 14.1752C8.97059 14.1752 8.97059 14.1752 8.9623 14.1752C8.9623 14.1752 8.97888 14.1897 8.98716 14.1969C8.98716 14.1969 8.98716 14.1969 8.99545 14.1969C8.99545 14.1969 9.00374 14.2041 9.01202 14.2114C9.01202 14.2114 8.99545 14.2041 8.98716 14.1969C8.97059 14.1897 8.9623 14.1825 8.94573 14.1752C8.95401 14.1897 8.97059 14.2041 8.97888 14.2186C8.97888 14.2186 8.98716 14.233 8.99545 14.233C8.99545 14.233 8.97888 14.2258 8.97888 14.2186C8.97888 14.2186 8.98716 14.2258 8.99545 14.233C8.99545 14.233 8.99545 14.233 8.98716 14.233C8.98716 14.233 8.98716 14.233 8.98716 14.2403C8.98716 14.2403 8.99545 14.2547 9.00374 14.2619C9.00374 14.2619 9.00374 14.2619 8.99545 14.2619C8.99545 14.2619 9.00374 14.2764 9.01202 14.2764C9.01202 14.2764 9.01202 14.2764 9.00374 14.2764C9.00374 14.2764 8.98716 14.2692 8.97888 14.2619C8.97059 14.2619 8.9623 14.2475 8.95401 14.2403C8.95401 14.2403 8.9623 14.2547 8.97059 14.2619C8.97059 14.2619 8.95401 14.2547 8.95401 14.2475H8.93744V14.233V14.2403L8.95401 14.2547H8.94573V14.2475H8.95401L8.97059 14.2764H8.9623C8.9623 14.2764 8.97059 14.2764 8.97888 14.2908C8.97888 14.2908 8.9623 14.2764 8.95401 14.2692L8.92915 14.2475L8.94573 14.2692C8.94573 14.2692 8.92915 14.2619 8.92915 14.2547C8.92915 14.2547 8.92915 14.2619 8.93744 14.2692C8.93744 14.2692 8.93744 14.2764 8.94573 14.2836L8.92915 14.2692C8.92915 14.2692 8.91258 14.2547 8.90429 14.2475C8.90429 14.2547 8.91258 14.2692 8.92087 14.2764C8.92087 14.2764 8.92087 14.2836 8.92087 14.2908C8.92087 14.2908 8.92087 14.2836 8.91258 14.2764V14.2908V14.2836V14.3053C8.91258 14.3053 8.91258 14.3053 8.91258 14.3125V14.2981L8.88772 14.2836C8.88772 14.2836 8.88772 14.2981 8.88772 14.3053V14.2908C8.88772 14.2908 8.87114 14.2764 8.86286 14.2619C8.86286 14.2692 8.86286 14.2764 8.86286 14.2836V14.2981V14.2764C8.86286 14.2692 8.85457 14.2547 8.84628 14.2475C8.84628 14.2475 8.87114 14.3414 8.87114 14.3486C8.82142 14.3342 8.838 14.2908 8.82142 14.2619C8.82142 14.2619 8.82142 14.2619 8.82142 14.2692C8.82142 14.233 8.82142 14.1825 8.78827 14.1535C8.77999 14.103 8.75512 14.0524 8.76341 14.0163C8.76341 14.0018 8.76341 14.0018 8.75512 14.0163C8.76341 13.9657 8.75512 13.8645 8.7054 13.8717C8.69712 13.8067 8.65568 13.7923 8.61424 13.7417V13.7561C8.61424 13.7489 8.59767 13.7417 8.58938 13.7417C8.60596 13.7706 8.62253 13.785 8.63911 13.8067C8.61424 13.7995 8.59767 13.785 8.57281 13.7706C8.57281 13.7995 8.62253 13.8501 8.63911 13.879C8.59767 13.8645 8.53137 13.8212 8.48994 13.7923C8.48994 13.8067 8.50651 13.8212 8.5148 13.8284C8.49823 13.8212 8.47336 13.8067 8.45679 13.7923C8.45679 13.7923 8.45679 13.8067 8.46508 13.8139C8.44022 13.7923 8.31591 13.72 8.29105 13.7417C8.33248 13.7633 8.39049 13.7778 8.44022 13.8212C8.39049 13.8067 8.33248 13.785 8.29105 13.785C8.29934 13.7995 8.29105 13.7923 8.29105 13.7995C8.31591 13.8139 8.3242 13.8212 8.27447 13.8139C8.27447 13.8212 8.29105 13.8501 8.29934 13.8573C8.27447 13.8573 8.28276 13.8573 8.28276 13.8717H8.2579C8.25946 13.8739 8.0976 14.4092 8.11702 14.4498C8.14188 14.5004 8.10873 14.5365 8.10045 14.5871C8.05901 14.5727 8.08387 14.5076 8.05072 14.4643C8.05072 14.4643 8.05072 14.4787 8.05072 14.4859C8.05072 14.5004 8.05072 14.5148 8.05072 14.5293C8.05072 14.5293 8.05072 14.5365 8.05072 14.5437C8.05072 14.5437 8.05072 14.5365 8.05072 14.5293C8.05072 14.5148 8.05072 14.5004 8.05072 14.4859C8.05072 14.4859 8.05072 14.4859 8.05072 14.4787C8.05072 14.4787 8.05072 14.4859 8.05072 14.4932C8.05072 14.4932 8.05072 14.4932 8.05072 14.5004C8.05072 14.5076 8.05072 14.5221 8.05072 14.5293C8.05072 14.5293 8.05072 14.5148 8.05072 14.5076C8.05072 14.5076 8.05072 14.5221 8.05072 14.5293C8.05072 14.5437 8.04244 14.5582 8.03415 14.5654C8.03415 14.5654 8.03415 14.5727 8.02586 14.5799C8.02586 14.5799 8.02586 14.5727 8.02586 14.5654C8.02586 14.5654 8.02586 14.5582 8.02586 14.551C8.02586 14.5654 8.00929 14.5727 8.001 14.5871C8.001 14.5871 8.001 14.5871 7.99271 14.6016C7.99271 14.6016 7.99271 14.5943 7.99271 14.5871C7.99271 14.5727 8.001 14.5582 8.00929 14.551C8.00929 14.5365 8.00929 14.5221 8.00929 14.5076C8.00929 14.5076 8.00929 14.5076 8.00929 14.5148C8.00929 14.5221 8.00929 14.5365 7.99271 14.5437C7.99271 14.5437 7.99271 14.5437 7.99271 14.551C7.99271 14.551 7.99271 14.551 7.99271 14.5437C7.99271 14.5365 7.99271 14.5221 7.99271 14.5148C7.99271 14.4932 7.98443 14.4715 7.96785 14.4498C7.96785 14.457 7.96785 14.4643 7.96785 14.4787C7.96785 14.4859 7.96785 14.4932 7.96785 14.5004C7.96785 14.5076 7.96785 14.5148 7.95957 14.5221C7.95957 14.5221 7.95957 14.5221 7.95957 14.5148C7.95957 14.5148 7.95957 14.5004 7.95957 14.4932C7.95957 14.4859 7.95957 14.4715 7.95128 14.457C7.95128 14.4426 7.9347 14.4281 7.92642 14.4137C7.92642 14.3992 7.90984 14.3848 7.90156 14.3776C7.90156 14.3776 7.90156 14.3631 7.89327 14.3559C7.89327 14.3631 7.89327 14.3703 7.89327 14.3776C7.89327 14.3776 7.89327 14.3703 7.89327 14.3631C7.89327 14.3631 7.89327 14.3631 7.89327 14.3703C7.89327 14.3776 7.89327 14.392 7.89327 14.3992C7.89327 14.3992 7.89327 14.3992 7.89327 14.4065C7.89327 14.4065 7.89327 14.4065 7.89327 14.3992C7.89327 14.3992 7.89327 14.392 7.89327 14.3848C7.89327 14.392 7.89327 14.4065 7.89327 14.4137C7.89327 14.4137 7.89327 14.4137 7.89327 14.4209C7.89327 14.4209 7.89327 14.4209 7.89327 14.4137C7.89327 14.4065 7.89327 14.392 7.89327 14.3848C7.89327 14.3703 7.89327 14.3631 7.88498 14.3559C7.88498 14.3559 7.88498 14.3776 7.88498 14.3848C7.88498 14.3848 7.88498 14.3848 7.88498 14.392C7.88498 14.392 7.88498 14.3703 7.88498 14.3631C7.88498 14.3414 7.86841 14.327 7.86012 14.3053C7.86012 14.3197 7.86012 14.3342 7.86012 14.3486C7.86012 14.3559 7.86012 14.3631 7.86012 14.3703C7.86012 14.3703 7.86012 14.3559 7.86012 14.3486C7.86012 14.327 7.84355 14.3053 7.83526 14.2764C7.83526 14.2764 7.83526 14.2764 7.83526 14.2836C7.83526 14.2836 7.83526 14.2836 7.83526 14.2764C7.83526 14.2764 7.83526 14.2692 7.83526 14.2619C7.83526 14.2547 7.83526 14.2403 7.83526 14.2258C7.83526 14.2258 7.83526 14.233 7.83526 14.2403C7.83526 14.2403 7.83526 14.2403 7.83526 14.2475C7.83526 14.2475 7.83526 14.2258 7.83526 14.2114C7.83526 14.1969 7.83526 14.1825 7.82697 14.168C7.82697 14.168 7.82697 14.168 7.82697 14.1608C7.82697 14.1752 7.82697 14.1897 7.82697 14.2041C7.82697 14.2114 7.82697 14.2186 7.82697 14.2258C7.82697 14.2258 7.82697 14.2258 7.82697 14.233C7.82697 14.233 7.82697 14.233 7.82697 14.2258C7.84707 14.0685 7.84633 13.9729 7.90535 13.8675ZM8.68883 13.4815C8.68883 13.4815 8.68883 13.4815 8.69712 13.4815C8.69712 13.4815 8.69712 13.4815 8.68883 13.4815ZM8.68883 13.4815C8.68883 13.4815 8.69712 13.4815 8.71369 13.4815C8.71369 13.4815 8.72198 13.4671 8.73026 13.4599C8.73026 13.4599 8.71369 13.4599 8.7054 13.4671C8.7054 13.4671 8.68883 13.4743 8.68883 13.4815ZM8.81313 13.4888C8.81313 13.4888 8.81313 13.4888 8.82142 13.4888C8.82971 13.4888 8.838 13.4743 8.85457 13.4671C8.85457 13.4671 8.82971 13.4815 8.81313 13.4888ZM8.85457 13.5249C8.85457 13.5249 8.87114 13.5249 8.87943 13.5249C8.87943 13.5249 8.88772 13.5249 8.89601 13.5249C8.87943 13.5249 8.87114 13.5249 8.85457 13.5249ZM8.87943 13.4671H8.86286C8.86286 13.4671 8.86286 13.4671 8.87114 13.4671H8.87943ZM8.94573 13.4888C8.94573 13.4888 8.92087 13.5032 8.91258 13.5032H8.92915C8.92915 13.5032 8.93744 13.4888 8.94573 13.4888ZM8.13359 13.6911C8.13359 13.6911 8.14188 13.6911 8.15017 13.6911C8.15017 13.6911 8.14188 13.6911 8.13359 13.6911ZM8.5148 13.4599C8.5148 13.4599 8.49823 13.4815 8.48165 13.4888C8.48994 13.4888 8.50651 13.4671 8.5148 13.4526V13.4599ZM8.53966 13.4165V13.431L8.5148 13.4454L8.53137 13.431V13.4165H8.53966ZM8.43193 13.4888C8.43193 13.4888 8.4485 13.4743 8.45679 13.4599C8.4485 13.4743 8.43193 13.4815 8.43193 13.496C8.43193 13.496 8.43193 13.496 8.43193 13.4888ZM8.35735 13.431C8.35735 13.4382 8.34906 13.4526 8.34077 13.4599C8.34077 13.4599 8.34906 13.4454 8.35735 13.4454C8.35735 13.4454 8.35735 13.4454 8.35735 13.4382V13.431ZM8.41536 13.4743C8.41536 13.4743 8.44022 13.4599 8.4485 13.4526C8.4485 13.4526 8.4485 13.4526 8.4485 13.4454C8.43193 13.4599 8.42364 13.4671 8.41536 13.4815V13.4743ZM8.49823 13.4382L8.5148 13.4237H8.53137C8.53137 13.4237 8.53137 13.4237 8.53137 13.4165C8.52309 13.4237 8.5148 13.431 8.50651 13.4454L8.49823 13.4382ZM8.5148 13.4382L8.49823 13.4526C8.48994 13.4599 8.48165 13.4743 8.46508 13.4815C8.47336 13.4815 8.48165 13.4671 8.48994 13.4599C8.48994 13.4599 8.48994 13.4454 8.49823 13.4382H8.5148Z" fill="#222222"/>
<path d="M7.71063 15.0357H7.44309C7.38801 15.0357 7.31719 15.0279 7.26211 15.0357C7.18342 15.0593 7.09686 15.0672 7.03391 15.138C6.97883 15.2088 6.92375 15.2718 6.86866 15.3347C6.84506 15.3583 6.83719 15.382 6.81358 15.3977C6.78211 15.4213 6.71129 15.4449 6.67194 15.4528C6.61686 15.4685 6.60112 15.4685 6.56178 15.5157C6.54604 15.5393 6.53817 15.5315 6.52243 15.5629C6.51457 15.5865 6.5067 15.6023 6.49883 15.6259C6.48309 15.6574 6.45948 15.681 6.44375 15.7124C6.41227 15.7597 6.38866 15.7911 6.34932 15.8305C6.32571 15.8541 6.28637 15.8698 6.27063 15.8934C6.20768 15.9642 6.20768 16.0587 6.20768 16.1374C6.20768 16.2318 6.20768 16.3262 6.20768 16.4206C6.20768 16.4993 6.21555 16.5859 6.20768 16.6724C6.20768 16.7354 6.1762 16.7905 6.16834 16.8534C6.16047 16.9006 6.16834 16.9479 6.16834 16.9951C6.16834 17.0344 6.14473 17.0502 6.14473 17.0974C6.14473 17.1367 6.14473 17.1603 6.16834 17.1997C6.20768 17.2705 6.26276 17.3256 6.33358 17.3649C6.42014 17.4121 6.51457 17.4357 6.60899 17.4515C6.64834 17.4515 6.66407 17.4672 6.70342 17.4672C6.72702 17.4672 6.7585 17.4672 6.78211 17.4672C6.82932 17.4751 6.8608 17.4987 6.90014 17.5065C6.94735 17.5223 7.00243 17.4987 7.04178 17.5065C7.06539 17.5065 7.07325 17.5223 7.09686 17.5302C7.1126 17.5302 7.14407 17.5302 7.15981 17.5302C7.19916 17.5302 7.2385 17.538 7.26998 17.5144C7.30145 17.4829 7.30932 17.4279 7.32506 17.3885C7.3408 17.3098 7.32506 17.2154 7.32506 17.1367V16.822C7.32506 16.6961 7.30932 16.5544 7.3408 16.4364C7.35653 16.3813 7.3644 16.3262 7.38014 16.279C7.40375 16.2161 7.41948 16.161 7.44309 16.1059C7.47457 16.0193 7.51391 15.9406 7.55326 15.862C7.5926 15.7911 7.63981 15.7124 7.64768 15.6416C7.64768 15.6023 7.64768 15.5551 7.64768 15.5157C7.64768 15.4685 7.66342 15.4213 7.66342 15.3741C7.66342 15.3347 7.68703 15.2954 7.70276 15.2482C7.71063 15.201 7.70276 15.1538 7.70276 15.1065V15.0436L7.71063 15.0357Z" fill="#222222"/>
<path d="M10.6693 13.4463C10.7559 13.4463 10.8424 13.3204 10.8739 13.1552C10.9054 12.9742 10.866 12.8247 10.7716 12.8089C10.6772 12.7932 10.5828 12.9191 10.5513 13.1001C10.5198 13.2811 10.5592 13.4306 10.6536 13.4463C10.6536 13.4463 10.6615 13.4463 10.6693 13.4463ZM10.7559 12.864C10.811 12.8719 10.8424 12.9978 10.8188 13.1473C10.7874 13.2968 10.7165 13.3991 10.6693 13.3912C10.6221 13.3834 10.5906 13.2575 10.6142 13.108C10.6378 12.9585 10.7087 12.864 10.7559 12.864Z" fill="#222222"/>
<path d="M10.7087 13.3207C9.89035 14.5876 9.07199 15.8545 8.25363 17.1213C8.22215 17.1686 8.14346 17.1213 8.17494 17.0741C9.00117 15.8072 9.81166 14.5403 10.63 13.2735C10.6615 13.2262 10.7402 13.2735 10.7087 13.3207Z" fill="#222222"/>
<path d="M8.16705 16.9559C8.11984 17.011 8.14345 17.0896 8.22213 17.1447C8.30082 17.1998 8.38738 17.1841 8.41886 17.1211C8.45033 17.0503 8.46607 17.011 8.50541 16.9401C8.53689 16.8772 8.52115 16.7985 8.47394 16.767C8.42673 16.7355 8.35591 16.7513 8.30869 16.8064C8.25361 16.8614 8.23 16.8929 8.17492 16.9559H8.16705Z" fill="#222222"/>
<path d="M8.28507 16.7201L8.44245 16.5391C8.44245 16.5391 8.52113 16.4919 8.55261 16.5076L8.61556 16.547C8.61556 16.547 8.65491 16.6178 8.63917 16.6571L8.54474 16.8774C8.54474 16.8774 8.5054 16.9247 8.47392 16.9247C8.45818 16.9247 8.43458 16.9247 8.41884 16.9089L8.30868 16.8381C8.30868 16.8381 8.26933 16.7988 8.26146 16.7751C8.26146 16.7515 8.26146 16.7358 8.2772 16.7201H8.28507ZM8.46605 16.8774C8.46605 16.8774 8.48179 16.8774 8.48966 16.8617L8.59195 16.6414C8.59195 16.6414 8.59195 16.602 8.59195 16.5942L8.529 16.5548C8.52113 16.5548 8.5054 16.5548 8.49753 16.5706L8.34015 16.7515C8.34015 16.7515 8.34015 16.7594 8.34015 16.7673C8.34015 16.7751 8.34802 16.783 8.35589 16.7909L8.45818 16.8617C8.45818 16.8617 8.47392 16.8617 8.48179 16.8617L8.46605 16.8774Z" fill="#222222"/>
</g>
<rect width="54.1738" height="54.1738" fill="white"/>
<path fill-rule="evenodd" clip-rule="evenodd" d="M10.9878 12.3941C10.9957 12.3705 10.9957 12.3154 10.9957 12.3154L10.9721 12.3233C10.9406 12.339 10.917 12.339 10.8934 12.339C10.8833 12.339 10.87 12.3487 10.8576 12.3578C10.8506 12.3628 10.844 12.3677 10.8383 12.3705C10.8346 12.3724 10.8305 12.3742 10.8261 12.3762L10.8261 12.3762C10.8119 12.3825 10.7953 12.39 10.7833 12.402C10.7671 12.4149 10.7509 12.4265 10.7359 12.4373L10.7359 12.4373C10.7143 12.4528 10.6949 12.4668 10.681 12.4807C10.6551 12.5065 10.6462 12.5425 10.6365 12.582C10.6314 12.6027 10.6261 12.6243 10.618 12.6459C10.6109 12.6636 10.599 12.6814 10.5881 12.6977C10.5748 12.7175 10.5629 12.7352 10.5629 12.7482C10.5472 12.7797 10.5472 12.819 10.5472 12.8505L10.5429 12.8698C10.5287 12.9329 10.5157 12.9908 10.5157 13.0551C10.5133 13.0718 10.5117 13.0885 10.5101 13.1045L10.5101 13.1045C10.5064 13.1414 10.5031 13.1748 10.4921 13.1967C10.4767 13.2276 10.4478 13.2517 10.4165 13.2779C10.3999 13.2918 10.3826 13.3063 10.3662 13.3226C10.317 13.3763 10.2729 13.4376 10.2295 13.4978L10.2295 13.4978C10.1966 13.5436 10.1641 13.5888 10.1301 13.6295C10.1206 13.639 10.1118 13.65 10.1031 13.6609C10.0829 13.686 10.0632 13.7106 10.0357 13.7161C10.0318 13.7017 10.0267 13.6877 10.0208 13.6741V13.6622C10.0208 13.6477 10.0125 13.6261 10.0042 13.6044C10.0042 13.5972 9.99595 13.5827 9.98766 13.5755C9.9849 13.5731 9.98214 13.5699 9.97937 13.5666C9.97385 13.5602 9.96833 13.5538 9.9628 13.5538C9.95451 13.5466 9.94623 13.5394 9.94623 13.5321C9.95451 13.5394 9.9628 13.5466 9.97109 13.5466H9.97938L9.95451 13.5249C9.9628 13.5321 9.97937 13.5394 9.98766 13.5394C10.0042 13.5466 10.0125 13.5466 10.0208 13.5466C10.0125 13.5394 10.0042 13.5321 9.99595 13.5321H10.0042C9.99595 13.5249 9.98766 13.5177 9.97938 13.5177H9.98766H9.99595H10.0042C9.99595 13.5104 9.97938 13.5032 9.97938 13.5032L9.9628 13.4888L9.94623 13.4743C9.9628 13.4815 9.97109 13.4815 9.97938 13.4815H10.0042H10.0125C10.0042 13.4743 9.98766 13.4671 9.98766 13.4671C9.97937 13.4599 9.97109 13.4599 9.97109 13.4599H9.9628H9.95451H9.94623H9.92137H9.90479H9.88822L9.87993 13.4526H9.8965H9.90479H9.91308H9.92137H9.94623C9.94623 13.4454 9.92965 13.4454 9.92965 13.4454H9.93794C9.95451 13.4382 9.93794 13.4382 9.92137 13.4382C9.91308 13.431 9.90479 13.431 9.90479 13.431H9.92137H9.92965C9.92137 13.4237 9.90479 13.4237 9.90479 13.4237L9.85507 13.4021C9.87164 13.4093 9.88822 13.4093 9.90479 13.4093H9.92965H9.93794C9.92965 13.4021 9.91308 13.4021 9.91308 13.4021C9.88822 13.3876 9.86336 13.3732 9.83849 13.3732H9.84678H9.85507H9.86336C9.84678 13.3659 9.83021 13.3659 9.81363 13.3659C9.83849 13.3587 9.85507 13.3515 9.87164 13.337C9.85507 13.3515 9.83849 13.3587 9.81363 13.3587V13.3515C9.82192 13.3443 9.82192 13.3298 9.82192 13.3298H9.83021C9.83849 13.3226 9.85507 13.3153 9.85507 13.3153L9.87164 13.3009H9.85507H9.83849H9.83021H9.81363V13.2864C9.80535 13.2937 9.78877 13.3009 9.7722 13.3009C9.78877 13.2937 9.80535 13.272 9.80535 13.272H9.81363H9.83021C9.83849 13.2648 9.84678 13.2575 9.85507 13.2575H9.82192C9.81526 13.2595 9.80919 13.2614 9.80356 13.2632C9.78818 13.2681 9.77604 13.272 9.76391 13.272C9.78877 13.2648 9.80535 13.2575 9.83021 13.2431C9.83324 13.2404 9.83627 13.2378 9.83931 13.2355L9.85507 13.2286C9.84981 13.2286 9.84456 13.2315 9.83931 13.2355L9.82192 13.2431L9.85507 13.2214L9.88822 13.207H9.87164H9.86336C9.85507 13.207 9.83021 13.2214 9.83021 13.2214H9.81363V13.219L9.82192 13.2142H9.81363V13.219L9.79706 13.2286H9.78877C9.79705 13.2286 9.80533 13.2214 9.81361 13.2142C9.81288 13.2148 9.79687 13.2286 9.78877 13.2286C9.77634 13.2322 9.76598 13.2377 9.75562 13.2431C9.74527 13.2485 9.73491 13.2539 9.72248 13.2575L9.76391 13.2214L9.78877 13.1997H9.78049L9.78048 13.1997C9.7722 13.207 9.76391 13.2142 9.75562 13.2142C9.73905 13.2214 9.69761 13.2431 9.69761 13.2431V13.2503H9.68104C9.68933 13.2503 9.69761 13.2359 9.69761 13.2359L9.68104 13.2503C9.66447 13.2648 9.64789 13.272 9.63132 13.2792C9.63961 13.2648 9.66447 13.2503 9.66447 13.2503C9.64789 13.2575 9.62303 13.272 9.60646 13.2864L9.59817 13.2937H9.58988V13.2864C9.59817 13.2792 9.61474 13.2648 9.62303 13.2648H9.59817C9.60646 13.2503 9.61474 13.2431 9.63132 13.2286C9.62303 13.2359 9.61267 13.2431 9.60231 13.2503C9.59427 13.2559 9.58623 13.2615 9.57916 13.2671C9.57932 13.2649 9.57999 13.2617 9.5816 13.2575C9.56502 13.2648 9.56502 13.2575 9.56502 13.2575C9.57913 13.2452 9.58724 13.2329 9.59445 13.2206C9.59661 13.2186 9.59817 13.2164 9.59817 13.2142L9.59445 13.2206C9.58956 13.2252 9.5816 13.2286 9.5816 13.2286C9.58988 13.207 9.58988 13.1925 9.58988 13.1781C9.58407 13.1983 9.57418 13.2186 9.56307 13.2414L9.56307 13.2414C9.55834 13.2511 9.55339 13.2612 9.54845 13.272C9.54016 13.2792 9.54016 13.2864 9.54016 13.2864C9.54016 13.2792 9.53187 13.2792 9.53187 13.2792C9.54779 13.2653 9.54672 13.2633 9.54389 13.2579C9.5423 13.2549 9.54016 13.2509 9.54016 13.2431V13.2417L9.54195 13.239C9.54401 13.2359 9.54623 13.2325 9.54845 13.2286V13.2503C9.54845 13.2503 9.54845 13.2286 9.55673 13.2214L9.56502 13.2142L9.57331 13.207V13.1925C9.56502 13.1997 9.56502 13.2142 9.56502 13.2142V13.207H9.55673V13.2214L9.54845 13.2286L9.54016 13.2359V13.2417C9.5354 13.249 9.53187 13.2553 9.53187 13.2648C9.52354 13.2684 9.51521 13.2739 9.50898 13.2802C9.51237 13.2756 9.5153 13.2708 9.5153 13.2648V13.2595C9.52006 13.2575 9.52359 13.2575 9.52359 13.2575H9.5153H9.51362C9.51468 13.2548 9.5153 13.2523 9.5153 13.2503C9.5153 13.2431 9.53187 13.2359 9.53187 13.2359L9.54016 13.2286L9.54845 13.2214C9.54016 13.2286 9.53187 13.2286 9.53187 13.2286C9.53187 13.2359 9.5153 13.2431 9.5153 13.2431V13.2359H9.50701V13.2431C9.49872 13.2503 9.49872 13.2575 9.49872 13.2575C9.49458 13.2648 9.48837 13.2702 9.48215 13.2756C9.47594 13.281 9.46972 13.2864 9.46558 13.2937V13.2864C9.47386 13.2792 9.48215 13.2648 9.48215 13.2575C9.49044 13.2575 9.49044 13.2431 9.49044 13.2431C9.48525 13.2431 9.47359 13.2487 9.46558 13.253V13.2463C9.47033 13.242 9.47386 13.2359 9.47386 13.2359L9.45729 13.2431C9.449 13.2503 9.44072 13.2503 9.44072 13.2503V13.2575H9.43243C9.42414 13.2648 9.40757 13.272 9.40757 13.272L9.41585 13.2575L9.39928 13.272C9.39652 13.2744 9.39283 13.2768 9.38915 13.2792L9.38271 13.2836V13.2792V13.2575V13.2503V13.2431V13.2359L9.34956 13.2648V13.272V13.2792C9.34127 13.2864 9.33298 13.3009 9.33298 13.3081V13.2792C9.31641 13.2937 9.31641 13.3081 9.31641 13.3226V13.3081V13.3009V13.2937V13.2864V13.2792V13.272V13.2648V13.2503H9.30812V13.2575H9.29984V13.2648V13.272V13.2792V13.2864V13.2937V13.3298V13.337V13.3515V13.3659V13.3685L9.29621 13.3696C9.28929 13.362 9.28326 13.3515 9.28326 13.3515V13.3587C9.28663 13.3616 9.29 13.3658 9.29281 13.3706C9.26532 13.3791 9.23927 13.3897 9.21474 13.4022C9.21009 13.4021 9.20524 13.4021 9.20039 13.4021H9.1921C9.19591 13.4054 9.19972 13.4072 9.20353 13.4081L9.20144 13.4093H9.18382H9.16724C9.17553 13.4165 9.18382 13.4165 9.18382 13.4165H9.16724H9.15067C9.15896 13.4237 9.16724 13.4237 9.16724 13.4237C9.16878 13.4251 9.17031 13.4262 9.17179 13.4271L9.16587 13.431C9.15896 13.4356 9.15219 13.4404 9.14558 13.4454H9.14238H9.13409H9.12581C9.11799 13.4454 9.11017 13.4583 9.10931 13.4597C9.10601 13.4586 9.10161 13.4584 9.09583 13.4599C9.07404 13.4653 9.03255 13.4928 8.95557 13.5712C8.90793 13.6563 8.89923 13.735 8.88708 13.8449L8.88262 13.8847C8.8814 13.8804 8.87967 13.8761 8.87719 13.8717V13.9079V13.9296C8.87918 13.914 8.88096 13.8991 8.88262 13.8847C8.88548 13.8948 8.88548 13.905 8.88548 13.9151V13.9151V13.9296V13.944V13.9512V13.9657V13.9801C8.88888 13.992 8.89368 14.0026 8.89816 14.0126C8.90458 14.0268 8.91034 14.0396 8.91034 14.0524V14.009C8.91346 14.0172 8.91776 14.0243 8.9219 14.0312C8.92876 14.0426 8.9352 14.0533 8.9352 14.0668V14.0596C8.94349 14.0668 8.94349 14.0741 8.94349 14.0885V14.0813V14.0741V14.0668V14.0596C8.95178 14.0668 8.95178 14.0813 8.95178 14.0813C8.96007 14.0885 8.97664 14.103 8.97664 14.1174C8.9794 14.1222 8.98309 14.1271 8.98677 14.1319C8.99413 14.1415 9.0015 14.1511 9.0015 14.1608C9.00979 14.1752 9.00979 14.1897 9.00979 14.1969V14.2186V14.2258C9.01807 14.2186 9.01807 14.2114 9.01807 14.2041V14.1825V14.169C9.02398 14.1809 9.0301 14.1925 9.03636 14.204C9.03842 14.2081 9.04061 14.2122 9.04291 14.2163L9.04294 14.2186V14.2475C9.04903 14.2448 9.05289 14.2412 9.05533 14.2373L9.05951 14.244V14.2547C9.05122 14.2619 9.04294 14.2764 9.04294 14.2908V14.3053L9.05122 14.2908C9.05449 14.2851 9.05905 14.2806 9.06337 14.2762L9.06337 14.2762C9.0671 14.2725 9.07064 14.2689 9.07304 14.265L9.07608 14.2697V14.2836C9.0784 14.2816 9.08007 14.2796 9.08127 14.2777C9.11779 14.3348 9.15258 14.3976 9.13079 14.4794C8.98722 14.5096 8.87268 14.5979 8.77323 14.6745L8.76095 14.684C8.7357 14.702 8.71087 14.7204 8.68654 14.7393H8.49337C8.47556 14.7393 8.4561 14.7385 8.43606 14.7376H8.43606H8.43606H8.43605H8.43605H8.43605C8.39412 14.7359 8.34965 14.734 8.31239 14.7393C8.29629 14.7441 8.27987 14.7483 8.26339 14.7525L8.26338 14.7525L8.26338 14.7525L8.26337 14.7525L8.26337 14.7525L8.26337 14.7525C8.19927 14.7688 8.13426 14.7853 8.08419 14.8416C8.02911 14.9124 7.97403 14.9754 7.91894 15.0383L7.91894 15.0383C7.90893 15.0483 7.90176 15.0583 7.89501 15.0677C7.88584 15.0805 7.87746 15.0922 7.86386 15.1013C7.83239 15.1249 7.76157 15.1485 7.72222 15.1564L7.70584 15.1609C7.66351 15.1726 7.6472 15.1771 7.61206 15.2193C7.60525 15.2295 7.59992 15.2338 7.59479 15.238C7.58805 15.2435 7.58165 15.2486 7.57271 15.2665C7.56878 15.2783 7.56484 15.2882 7.56091 15.298C7.55698 15.3078 7.55304 15.3177 7.54911 15.3295C7.54124 15.3452 7.5314 15.359 7.52157 15.3727L7.52157 15.3727C7.51173 15.3865 7.50189 15.4003 7.49402 15.416C7.46255 15.4632 7.43894 15.4947 7.3996 15.5341C7.38927 15.5444 7.37592 15.5532 7.36285 15.5619L7.36285 15.5619C7.34607 15.573 7.32976 15.5837 7.32091 15.597C7.25796 15.6678 7.25796 15.7623 7.25796 15.8409V16.1242C7.25796 16.1499 7.2588 16.1764 7.25965 16.2035C7.26142 16.2594 7.26326 16.3177 7.25796 16.376C7.25796 16.4116 7.24789 16.4447 7.23771 16.4782C7.2299 16.5038 7.22203 16.5297 7.21861 16.557C7.21337 16.5885 7.21512 16.62 7.21687 16.6514C7.21774 16.6672 7.21861 16.6829 7.21861 16.6987C7.21861 16.7174 7.21324 16.7308 7.20762 16.7448C7.20146 16.7602 7.19501 16.7763 7.19501 16.8009C7.19501 16.8403 7.19501 16.8639 7.21861 16.9032C7.25796 16.9741 7.31304 17.0291 7.38386 17.0685C7.47042 17.1157 7.56484 17.1393 7.65927 17.155C7.67894 17.155 7.69271 17.159 7.70648 17.1629C7.72025 17.1668 7.73402 17.1708 7.7537 17.1708H7.83239C7.85789 17.175 7.8788 17.1839 7.89883 17.1923C7.9159 17.1996 7.93232 17.2065 7.95042 17.2101C7.97711 17.219 8.00631 17.2153 8.03376 17.2119C8.04628 17.2103 8.05843 17.2088 8.06982 17.2085C8.07374 17.2285 8.07636 17.2457 8.07636 17.2571C8.07205 17.2743 8.06063 17.2845 8.04991 17.294C8.04107 17.3019 8.0327 17.3094 8.02915 17.32V17.3908C8.02915 17.4381 8.03702 17.4931 8.05276 17.5325C8.05608 17.5425 8.06221 17.551 8.06818 17.5594C8.07635 17.5708 8.08423 17.5818 8.08423 17.5954C8.09997 17.619 8.09997 17.6426 8.09997 17.6663C8.11449 17.7195 8.13796 17.7668 8.16119 17.8137L8.16119 17.8137C8.17572 17.8429 8.19016 17.8721 8.20226 17.9023C8.21526 17.9153 8.22349 17.9068 8.23088 17.8992C8.23692 17.893 8.2424 17.8874 8.24948 17.8945C8.25386 17.912 8.26559 17.9247 8.27783 17.9379C8.28755 17.9484 8.29759 17.9592 8.30456 17.9731C8.26521 17.9967 8.24161 18.0204 8.22587 18.0518C8.20333 18.1044 8.19514 18.1785 8.1876 18.2468L8.18653 18.2564C8.17657 18.3494 8.17081 18.4465 8.16512 18.5425C8.15732 18.6741 8.14964 18.8037 8.13144 18.9174C8.11315 19.015 8.09013 19.1173 8.06605 19.2243L8.06605 19.2243L8.06605 19.2243L8.04489 19.3187C8.03798 19.3487 8.03174 19.3786 8.02559 19.4081L8.02559 19.4081C8.01072 19.4795 7.99633 19.5486 7.97407 19.6099C7.96659 19.6248 7.96267 19.6415 7.95892 19.6575C7.95478 19.6752 7.95085 19.6919 7.94259 19.7043C7.93275 19.7289 7.91367 19.7474 7.89498 19.7654C7.88379 19.7762 7.87274 19.7869 7.8639 19.7987C7.84452 19.8246 7.83044 19.861 7.81731 19.895L7.80882 19.9167C7.75374 20.0348 7.70653 20.1764 7.70653 20.3259C7.70194 20.4039 7.70805 20.4792 7.71394 20.5519C7.71816 20.6038 7.72226 20.6544 7.72226 20.7036C7.72226 20.8138 7.71439 20.9318 7.69866 21.042L7.69822 21.0477C7.69049 21.1484 7.68219 21.2563 7.64357 21.3568C7.57508 21.3409 7.54539 21.3745 7.50963 21.415C7.49198 21.4349 7.47285 21.4566 7.44685 21.4748C7.42499 21.4935 7.40188 21.5073 7.38049 21.5201L7.38048 21.5201L7.38048 21.5201C7.34799 21.5395 7.31945 21.5565 7.30521 21.5849C7.24414 21.6995 7.36082 21.8806 7.43251 21.9919L7.43898 22.002C7.48423 22.0727 7.52947 22.1495 7.57508 22.2269C7.65639 22.3649 7.73886 22.5049 7.82456 22.6158C7.88751 22.6945 7.9898 22.7889 8.08423 22.844C8.09997 22.8518 8.13931 22.8676 8.14718 22.8676C8.27308 22.899 8.33603 22.8361 8.39112 22.7731C8.43077 22.7278 8.3633 22.5691 8.30557 22.4333C8.2831 22.3804 8.26211 22.331 8.24948 22.2931C8.24161 22.2774 8.23374 22.2538 8.22588 22.2302L8.22587 22.2302C8.22259 22.2253 8.2193 22.2207 8.21616 22.2163C8.20425 22.1997 8.1944 22.1859 8.1944 22.1672C8.19189 22.1547 8.19018 22.1422 8.1885 22.1299C8.18493 22.1036 8.18151 22.0785 8.17079 22.0571C8.16768 22.0509 8.16336 22.0459 8.15925 22.0412C8.15295 22.0339 8.14718 22.0273 8.14718 22.0177C8.13144 21.9784 8.13144 21.9312 8.13144 21.8918C8.13144 21.88 8.13341 21.8663 8.13538 21.8525C8.13735 21.8387 8.13931 21.8249 8.13931 21.8131C8.13931 21.8099 8.13661 21.808 8.13345 21.8057C8.12898 21.8026 8.12358 21.7988 8.12358 21.7895C8.11571 21.7738 8.11571 21.7522 8.11571 21.7305C8.11571 21.7089 8.11571 21.6872 8.10784 21.6715C8.10444 21.6647 8.09809 21.6594 8.09199 21.6542C8.08397 21.6475 8.07636 21.6411 8.07636 21.6322C8.07208 21.6022 8.07713 21.5651 8.08262 21.5249C8.08721 21.4913 8.0921 21.4555 8.0921 21.4197C8.09574 21.3833 8.0977 21.3469 8.09953 21.3128C8.10165 21.2732 8.10361 21.2368 8.10784 21.2072C8.11308 21.16 8.12532 21.1198 8.13756 21.0796C8.14368 21.0595 8.1498 21.0394 8.15505 21.0184C8.22587 20.7666 8.28882 20.5463 8.37538 20.2945C8.37955 20.284 8.38482 20.2681 8.39075 20.2502C8.40723 20.2003 8.42884 20.135 8.4462 20.1292C8.45683 20.1239 8.48541 20.1258 8.51254 20.1275C8.52558 20.1284 8.53828 20.1292 8.54849 20.1292C8.56113 20.1267 8.57458 20.125 8.5878 20.1233C8.61573 20.1197 8.64263 20.1163 8.65866 20.1056C8.69013 20.082 8.72161 20.0033 8.73735 19.9561C8.74671 19.9342 8.75484 19.9112 8.76271 19.8888C8.77468 19.8548 8.78606 19.8225 8.8003 19.7987C8.80817 19.7869 8.818 19.7771 8.82784 19.7672C8.83767 19.7574 8.84751 19.7476 8.85538 19.7358C8.87112 19.7122 8.88685 19.6866 8.90259 19.661C8.91833 19.6354 8.93407 19.6099 8.94981 19.5863C8.95767 19.5745 8.96751 19.5627 8.97735 19.5508C8.98718 19.539 8.99702 19.5272 9.00489 19.5154C9.0213 19.4881 9.03011 19.4569 9.03924 19.4246C9.04324 19.4104 9.04731 19.396 9.0521 19.3817L9.05211 19.3817C9.10719 19.24 9.16227 19.0984 9.20161 18.9567C9.20883 18.9495 9.2177 18.9506 9.22595 18.9516C9.23569 18.9527 9.24456 18.9538 9.24882 18.941C9.25669 18.7836 9.29604 18.6577 9.34325 18.5318C9.37472 18.4479 9.39571 18.364 9.41786 18.2754L9.41786 18.2754C9.42893 18.2311 9.4403 18.1856 9.45341 18.1384C9.55571 18.1384 9.65013 18.1305 9.73669 18.1069C9.77056 18.0972 9.80443 18.0846 9.83647 18.0726C9.85653 18.0651 9.87589 18.0579 9.89407 18.0518C9.92931 18.0422 9.96585 18.0352 10.0026 18.0282L10.0026 18.0282C10.0562 18.0179 10.1103 18.0075 10.1616 17.9889C10.2482 17.9653 10.3269 17.9338 10.4055 17.9023C10.4335 17.8916 10.4638 17.8791 10.4956 17.8659L10.4956 17.8659C10.5803 17.8309 10.676 17.7914 10.7675 17.7686C10.8147 17.7528 10.8934 17.7371 10.9092 17.7371C10.9249 17.7449 11.0114 17.863 11.0114 17.8708C11.0215 17.8809 11.0252 17.8943 11.0285 17.9067C11.0304 17.9136 11.0322 17.9203 11.0351 17.9259C11.0928 18.0487 11.1838 18.1251 11.2775 18.2038L11.3026 18.2249C11.3929 18.3088 11.499 18.3662 11.6123 18.4275C11.6373 18.441 11.6626 18.4547 11.6882 18.4689C11.8219 18.5476 11.94 18.6341 12.0501 18.7364C12.1052 18.7836 12.1603 18.8387 12.2075 18.9017C12.2547 18.9567 12.3177 19.0118 12.3806 19.0512C12.357 19.0984 12.4278 19.1299 12.4751 19.1456C12.5106 19.1608 12.5494 19.1695 12.5872 19.178L12.5872 19.178C12.6081 19.1826 12.6286 19.1872 12.6482 19.1928C12.6601 19.1952 12.6786 19.2012 12.6994 19.208C12.7472 19.2236 12.8072 19.2431 12.8292 19.2322C12.8406 19.2322 12.852 19.1989 12.8635 19.1656C12.8678 19.1531 12.8721 19.1406 12.8764 19.1299C12.9262 18.9678 12.9563 18.8107 12.9863 18.6546L12.9863 18.6545L12.9863 18.6544L12.9863 18.6543L12.9863 18.6542L12.9864 18.6541L12.9864 18.654C12.9942 18.6132 13.002 18.5725 13.0101 18.5318C13.013 18.5177 13.0164 18.5017 13.0201 18.4842L13.0201 18.4842C13.0507 18.3414 13.1013 18.1043 13.0101 18.0277C12.9228 17.9273 12.8594 18.0265 12.7973 18.1238C12.7818 18.1482 12.7663 18.1725 12.7505 18.1935C12.7409 18.2127 12.7313 18.2143 12.7199 18.2162C12.7126 18.2175 12.7046 18.2188 12.6954 18.2249C12.6932 18.2272 12.6897 18.23 12.6857 18.2333C12.6755 18.2417 12.6617 18.253 12.656 18.2643C12.6455 18.2748 12.6421 18.2853 12.6386 18.2958C12.6368 18.301 12.6351 18.3063 12.6324 18.3115C12.6302 18.3137 12.6268 18.3177 12.6228 18.3224L12.6228 18.3225L12.6228 18.3225L12.6228 18.3225L12.6228 18.3225C12.6125 18.3346 12.5987 18.3508 12.5931 18.3508C12.5852 18.3548 12.5754 18.3548 12.5655 18.3548C12.5557 18.3548 12.5459 18.3548 12.538 18.3587C12.5166 18.3694 12.5025 18.4019 12.4907 18.429C12.4851 18.4418 12.4801 18.4534 12.4751 18.461C12.472 18.4672 12.4676 18.4722 12.4635 18.4769C12.4572 18.4842 12.4514 18.4908 12.4514 18.5004C12.4042 18.4767 12.3649 18.4374 12.3334 18.3981C12.2355 18.2931 12.136 18.1929 12.0363 18.0924L12.0363 18.0924L12.0363 18.0924L12.0363 18.0924L12.0363 18.0924L12.0363 18.0924L12.0363 18.0924L12.0363 18.0924C11.9118 17.9669 11.7869 17.8411 11.6646 17.7056C11.6331 17.6741 11.5623 17.6033 11.5623 17.5797C11.5623 17.5752 11.5725 17.5604 11.5828 17.5457C11.5905 17.5346 11.5982 17.5235 11.6016 17.5167L11.6016 17.5167C11.6252 17.4931 11.6488 17.4695 11.6488 17.4538C11.6646 17.4223 11.6882 17.3594 11.6803 17.3122C11.6803 17.2807 11.6173 17.202 11.5859 17.1626C11.5465 17.1154 11.4993 17.0682 11.46 17.0446C11.4495 17.0394 11.439 17.035 11.4285 17.0306C11.4075 17.0219 11.3865 17.0131 11.3655 16.9974C11.3577 16.9974 11.3498 16.9738 11.3498 16.9738C11.2633 16.8951 11.1531 16.8636 11.0351 16.8322C11.0235 16.8293 11.013 16.8253 11.0028 16.8215L11.0028 16.8215C10.9852 16.8149 10.9684 16.8085 10.9485 16.8085C10.8971 16.8085 10.8417 16.8168 10.791 16.8244L10.791 16.8244L10.791 16.8244L10.7909 16.8244C10.7717 16.8273 10.7533 16.83 10.736 16.8322C10.6716 16.8423 10.6115 16.8584 10.5508 16.8746L10.5508 16.8746L10.5508 16.8746C10.4707 16.8959 10.3894 16.9176 10.2954 16.9266C10.2823 16.9222 10.2813 16.9083 10.2803 16.8954C10.2796 16.8849 10.2788 16.875 10.2718 16.8715L10.2314 16.8852C10.1481 16.9136 10.0573 16.9445 9.94915 16.9581C9.90981 16.9607 9.86959 16.9607 9.82995 16.9607C9.75068 16.9607 9.67374 16.9607 9.61079 16.9817C9.6028 16.987 9.59391 16.995 9.58472 17.0033L9.58472 17.0033C9.56677 17.0195 9.54772 17.0367 9.5321 17.0367C9.51636 17.0367 9.48489 17.021 9.46915 17.0053C9.46161 17.0015 9.45588 16.9941 9.44935 16.9857C9.44226 16.9766 9.43423 16.9663 9.42194 16.9581C9.41407 16.9528 9.40532 16.9484 9.39658 16.9441C9.3791 16.9353 9.36161 16.9266 9.35112 16.9108C9.34719 16.901 9.34522 16.8907 9.34423 16.8798C9.39842 16.8898 9.44717 16.8689 9.46912 16.825L9.48334 16.7928C9.50631 16.7406 9.5227 16.7033 9.55568 16.644C9.56167 16.632 9.56595 16.6194 9.56862 16.6068C9.58381 16.5942 9.59496 16.5809 9.59496 16.5809L9.68939 16.3605C9.70198 16.3291 9.67933 16.2775 9.66975 16.2581L10.2273 15.3949C10.3505 15.3758 10.4527 15.3398 10.5597 15.3021L10.5944 15.2899C10.6398 15.2717 10.6878 15.2562 10.7324 15.2417L10.7324 15.2417L10.7324 15.2417L10.7324 15.2417L10.7324 15.2417L10.7324 15.2417C10.7651 15.2311 10.796 15.2212 10.8226 15.2112C10.8541 15.2007 10.8855 15.1832 10.917 15.1657C10.9328 15.157 10.9485 15.1482 10.9642 15.1404C11.0193 15.1167 11.0665 15.0931 11.1137 15.0695C11.2439 14.999 11.3553 14.9136 11.4662 14.8287L11.4662 14.8286L11.4662 14.8286C11.5161 14.7903 11.566 14.7521 11.6173 14.7154C11.6339 14.7055 11.6504 14.6929 11.6674 14.6797L11.6674 14.6797C11.6911 14.6616 11.7158 14.6426 11.7433 14.6289C11.7647 14.6118 11.7907 14.5993 11.8176 14.5864C11.8402 14.5756 11.8634 14.5645 11.8849 14.5502C11.9223 14.5252 11.9465 14.4893 11.9703 14.454C11.9916 14.4225 12.0126 14.3915 12.0423 14.3692C12.0501 14.3613 12.0619 14.3574 12.0737 14.3535C12.0855 14.3495 12.0974 14.3456 12.1052 14.3377C12.1392 14.3122 12.1594 14.2844 12.1795 14.2568C12.1967 14.2333 12.2137 14.2099 12.239 14.1882C12.2626 14.1646 12.2941 14.141 12.3255 14.1174C12.3358 14.1092 12.3454 14.1011 12.354 14.0929L14.8209 16.4648L36.1025 16.6077L36.1039 16.6077C36.4479 16.6077 36.9199 16.7414 37.4435 17.0172C37.9632 17.291 38.5189 17.697 39.0285 18.2221C40.0474 19.2722 40.8715 20.7865 40.8715 22.6556C40.8715 26.3696 37.978 28.1342 36.5011 28.5613H32.4927L26.6599 22.7285H20.6582L39.2878 41.5037H45.5716L36.6768 32.4654C38.1569 32.1612 40.1795 31.4014 41.8922 30.0113C43.7699 28.4874 45.2781 26.2018 45.2781 22.9402C45.2781 19.6917 43.9357 17.0787 42.1398 15.2792C40.3492 13.485 38.0929 12.4856 36.2462 12.4856H10.8666C10.8769 12.4796 10.8871 12.4762 10.8973 12.4728C10.9092 12.4689 10.921 12.4649 10.9328 12.4571C10.9406 12.4492 10.9505 12.4374 10.9603 12.4256L10.9603 12.4256L10.9603 12.4256L10.9603 12.4256C10.9701 12.4138 10.98 12.402 10.9878 12.3941ZM10.7828 12.5821C10.7736 12.598 10.7677 12.6177 10.7596 12.6538C10.7476 12.7081 10.754 12.7577 10.7612 12.8134V12.8134L10.7612 12.8134C10.7634 12.8303 10.7657 12.8479 10.7675 12.8662C10.7814 12.8662 10.7938 12.8432 10.8087 12.8155C10.8275 12.7804 10.8504 12.7378 10.8855 12.7246C10.8903 12.7246 10.8965 12.7232 10.9033 12.7216C10.9099 12.7201 10.9171 12.7184 10.924 12.7178L10.7828 12.5821ZM10.96 12.7525C10.9625 12.7869 10.9319 12.8287 10.9053 12.8649C10.8893 12.8866 10.8748 12.9063 10.8698 12.9213C10.8605 12.9431 10.8549 12.9623 10.8495 12.9806L10.8495 12.9806C10.8413 13.0087 10.8338 13.0344 10.8147 13.063C10.8147 13.0719 10.8071 13.0783 10.7991 13.085C10.793 13.0902 10.7867 13.0955 10.7833 13.1023C10.7833 13.1181 10.7833 13.1417 10.7754 13.1653C10.7675 13.2203 10.7518 13.2833 10.7282 13.3305C10.7164 13.3502 10.7026 13.3699 10.6888 13.3895C10.6751 13.4092 10.6613 13.4289 10.6495 13.4485C10.6093 13.5231 10.5733 13.6009 10.5369 13.6795L10.5369 13.6795L10.5369 13.6795L10.5369 13.6795L10.5369 13.6795L10.5369 13.6795L10.5369 13.6795C10.4736 13.8164 10.409 13.9559 10.319 14.0859C10.3088 14.0995 10.2986 14.1161 10.2877 14.1337C10.2735 14.1568 10.2582 14.1816 10.2403 14.204C10.2299 14.2169 10.217 14.2308 10.2043 14.2443C10.1785 14.2719 10.1537 14.2983 10.1537 14.3141C10.1537 14.3206 10.1564 14.3272 10.1596 14.3348C10.1641 14.3456 10.1695 14.3586 10.1695 14.3771C10.1695 14.3771 10.1537 14.3771 10.1537 14.3928V14.4164C10.1537 14.4319 10.1435 14.4441 10.1343 14.455L10.1343 14.455C10.1295 14.4607 10.125 14.4661 10.1223 14.4715C10.1537 14.5423 10.1537 14.6053 10.1223 14.6367C10.0947 14.6597 10.0591 14.6559 10.0217 14.6518H10.0217C9.99502 14.6489 9.96747 14.6459 9.94128 14.6525C9.91344 14.6618 9.89381 14.6902 9.87433 14.7184C9.86076 14.7381 9.84727 14.7576 9.83112 14.7705C9.85136 14.7821 9.86735 14.7947 9.88221 14.8064C9.9078 14.8267 9.93005 14.8442 9.96489 14.8492H10.1301H10.2875C10.3788 14.8362 10.4508 14.8135 10.5156 14.784L10.8636 14.2436C11.0735 13.9176 11.2834 13.5916 11.4937 13.2656L10.96 12.7525ZM11.561 13.3303L10.6858 14.6852C10.7373 14.6493 10.7996 14.6103 10.8619 14.5895C10.8934 14.5777 10.9269 14.5679 10.9603 14.5581C10.9937 14.5482 11.0272 14.5384 11.0587 14.5266C11.1197 14.5033 11.1861 14.4715 11.2547 14.4386L11.2548 14.4386C11.3719 14.3824 11.4954 14.3232 11.6095 14.2984C11.6228 14.2957 11.6358 14.2935 11.6485 14.2914C11.7107 14.2809 11.763 14.272 11.7826 14.2197V14.1489C11.7871 14.1131 11.8043 14.0747 11.8226 14.0338C11.8365 14.0028 11.8511 13.9703 11.8613 13.9364C11.8849 13.8577 11.9085 13.779 11.9321 13.7161C11.9356 13.7108 11.9395 13.7048 11.9436 13.6983L11.561 13.3303ZM12.1458 13.8927C12.1457 13.8929 12.1455 13.8931 12.1454 13.8934C12.12 13.9443 12.0934 13.9974 12.1288 14.0859C12.1756 14.0859 12.204 14.0584 12.2314 14.0318C12.2414 14.022 12.2513 14.0124 12.2619 14.0043L12.1458 13.8927ZM9.46531 13.2465L9.46558 13.2463V13.2431C9.46558 13.2431 9.46558 13.2445 9.46531 13.2465ZM9.46265 13.2545C9.46426 13.2522 9.46499 13.249 9.46531 13.2465C9.46285 13.2487 9.46007 13.2503 9.45729 13.2503V13.2575H9.46558V13.253L9.46265 13.2545ZM9.46265 13.2545L9.45729 13.2575C9.45972 13.2575 9.46143 13.2563 9.46265 13.2545ZM9.64218 16.3448L9.56152 16.5185C9.55431 16.5009 9.54355 16.4857 9.52971 16.4749L9.64218 16.3008V16.3448ZM9.43116 16.461L9.56095 16.2612C9.55593 16.2634 9.55112 16.2672 9.54775 16.274L9.39037 16.455V16.4707C9.39037 16.4736 9.39147 16.4766 9.39325 16.4795C9.40542 16.4713 9.41822 16.4651 9.43116 16.461ZM9.49267 16.2425C9.49267 16.2425 9.56015 16.202 9.59512 16.2085C9.76853 15.9413 9.9414 15.674 10.1139 15.4068L10.0908 15.4079H9.94915C9.90194 15.4079 9.85472 15.4158 9.81538 15.4315C9.77612 15.4483 9.74485 15.5091 9.71589 15.5655C9.70421 15.5882 9.69291 15.6101 9.68161 15.6282C9.6671 15.6572 9.65152 15.6831 9.63645 15.708C9.61065 15.7507 9.58635 15.791 9.57145 15.8407C9.56556 15.8583 9.56078 15.8782 9.55586 15.8986C9.54762 15.9328 9.53901 15.9685 9.52423 15.9981C9.50063 16.0689 9.47702 16.124 9.43767 16.1712C9.41618 16.2034 9.38163 16.2226 9.34518 16.2429C9.30157 16.2671 9.25522 16.2929 9.22522 16.3443L9.23324 16.3559C9.24589 16.3738 9.25669 16.389 9.25669 16.4151C9.25669 16.423 9.25582 16.4308 9.25494 16.4387C9.25319 16.4545 9.25145 16.4702 9.25669 16.4859C9.25669 16.5024 9.26529 16.5167 9.27462 16.5322C9.28279 16.5458 9.29152 16.5603 9.29554 16.578C9.3103 16.5611 9.32532 16.5446 9.34392 16.5255C9.33191 16.5119 9.31632 16.4925 9.31168 16.4786C9.31168 16.455 9.31168 16.4392 9.32742 16.4235H9.33529L9.49267 16.2425ZM9.11381 13.4625C9.11742 13.4609 9.12131 13.4599 9.12581 13.4599H9.11752H9.10967C9.11132 13.4605 9.11268 13.4614 9.11381 13.4625ZM9.50701 13.2575L9.48215 13.2792C9.48768 13.2792 9.4932 13.2728 9.49872 13.2664C9.50149 13.2632 9.50425 13.2599 9.50701 13.2575ZM9.58102 13.2731L9.58044 13.2728C9.58066 13.2729 9.58081 13.2729 9.5809 13.273C9.58101 13.2731 9.58105 13.2731 9.58102 13.2731ZM9.74734 13.1853H9.73905C9.73905 13.1781 9.75562 13.1708 9.75562 13.1708C9.76391 13.1636 9.78049 13.1636 9.78049 13.1636C9.7722 13.1708 9.76391 13.1853 9.76391 13.1853H9.74734ZM9.87164 13.1925H9.86336C9.87338 13.1881 9.88643 13.1811 9.89518 13.1763C9.89136 13.1789 9.88807 13.1818 9.88511 13.1844L9.88511 13.1844C9.87993 13.1889 9.87579 13.1925 9.87164 13.1925ZM9.90479 13.1708C9.90123 13.1724 9.89806 13.1743 9.89518 13.1763L9.90479 13.1708ZM9.99595 13.1925C9.99595 13.1925 9.99183 13.1949 9.98639 13.1977C9.9892 13.1949 9.99258 13.1925 9.99595 13.1925ZM9.98639 13.1977C9.97846 13.2019 9.96772 13.207 9.9628 13.207H9.97938C9.97938 13.207 9.98229 13.2019 9.98639 13.1977ZM9.54272 13.186C9.55499 13.1767 9.56502 13.1636 9.56502 13.1636V13.1564C9.55959 13.1658 9.55061 13.1784 9.54272 13.186ZM9.54272 13.186C9.53923 13.1886 9.53555 13.1909 9.53187 13.1925C9.53473 13.1925 9.53857 13.1899 9.54272 13.186ZM9.56502 13.1492L9.58988 13.1347V13.1202H9.5816C9.57893 13.1226 9.57626 13.1249 9.57359 13.1275H9.56502L9.54845 13.1419C9.54016 13.1492 9.54016 13.1636 9.54016 13.1636C9.5374 13.166 9.53464 13.1692 9.53187 13.1724C9.52993 13.1747 9.52799 13.177 9.52605 13.1789C9.52288 13.1813 9.51933 13.1835 9.5153 13.1853C9.51888 13.1853 9.52246 13.1826 9.52605 13.1789C9.53196 13.1744 9.53658 13.1692 9.54069 13.1645C9.54343 13.1614 9.54594 13.1586 9.54845 13.1564L9.55673 13.1492L9.56502 13.1419H9.56127C9.56537 13.1359 9.56948 13.1314 9.57359 13.1275H9.5816V13.1347L9.56502 13.1492ZM9.50701 13.1636C9.49872 13.1781 9.48215 13.1925 9.48215 13.1925V13.1997C9.48215 13.191 9.48823 13.1849 9.49486 13.1782C9.49918 13.1739 9.50374 13.1693 9.50701 13.1636ZM9.40064 13.152C9.40469 13.1457 9.40757 13.139 9.40757 13.1347V13.1419V13.1492C9.40519 13.1492 9.40282 13.1503 9.40064 13.152ZM9.39099 13.1636C9.3944 13.1606 9.39781 13.1564 9.40064 13.152C9.39521 13.1562 9.39099 13.1636 9.39099 13.1636ZM9.47381 13.1731L9.46558 13.1781V13.1853C9.46823 13.1807 9.47089 13.1768 9.47381 13.1731ZM9.49872 13.1564C9.49353 13.1609 9.48183 13.1683 9.47381 13.1731C9.48002 13.1655 9.48746 13.159 9.49872 13.1492V13.1564ZM14.3999 28.5613H20.4011L33.1964 41.5037H27.1952L14.3999 28.5613Z" fill="#24282B"/>
<path d="M80.878 13.3361V13.2278C82.9908 12.6319 84.2097 11.44 84.2097 9.16473C84.2097 5.29131 81.1489 4.31618 76.5983 4.31618H63.8404V23.277H76.0295C81.9344 23.277 84.914 22.0581 84.914 17.6971C84.914 15.178 83.4242 13.9049 80.878 13.3361ZM76.815 8.16252C78.4673 8.16252 78.982 9.00221 78.982 9.95025C78.982 10.8983 78.684 12.0089 76.815 12.0089H69.2307V8.16252H76.815ZM76.9234 19.4307H69.2307V15.3676H76.9234C79.0632 15.3676 79.4424 16.3428 79.4424 17.2908C79.4424 18.2388 79.1445 19.4307 76.9234 19.4307Z" fill="white"/>
<path d="M87.0854 23.277H91.961V8.83969H87.0854V23.277ZM89.5232 7.40409C91.013 7.40409 92.0423 6.56439 92.0423 5.1017C92.0423 3.63901 91.013 2.79932 89.5232 2.79932C88.0334 2.79932 87.0041 3.63901 87.0041 5.1017C87.0041 6.56439 88.0334 7.40409 89.5232 7.40409Z" fill="white"/>
<path d="M106.92 8.83969V10.7899C105.701 9.32725 103.914 8.43339 101.747 8.43339C97.5483 8.43339 94.1354 10.6274 94.1354 15.5301C94.1354 19.7557 97.5483 22.3831 101.747 22.3831C103.914 22.3831 105.701 21.8143 106.92 20.7037V21.9227C106.92 24.3876 105.133 24.9564 102.586 24.9564C100.338 24.9564 99.1735 24.4688 98.8756 23.6562H94.4062C94.7042 26.4732 97.6025 28.3152 102.586 28.3152C106.704 28.2881 111.796 27.6922 111.796 21.9227V8.83969H106.92ZM103.047 19.2952C100.067 19.2952 98.7401 17.7242 98.7401 15.5301C98.7401 13.3361 100.067 11.7651 103.047 11.7651C106.027 11.7651 107.435 13.3361 107.435 15.5301C107.435 17.7242 106.027 19.2952 103.047 19.2952Z" fill="white"/>
<path d="M79.1174 50.7875H85.0223L80.5801 43.8803C82.9908 42.9594 84.3722 41.1445 84.3722 38.2192C84.3722 34.3457 81.5281 31.8267 76.2733 31.8267H63.8404V50.7875H69.2307V44.6117H75.2711L79.1174 50.7875ZM69.2307 35.673H76.1107C78.6027 35.673 78.9007 37.3253 78.9007 38.2192C78.9007 39.113 78.5757 40.7924 76.1107 40.7924H69.2307V35.673Z" fill="white"/>
<path d="M94.7675 35.9439C90.5419 35.9439 85.8559 37.9754 85.8559 43.5553C85.8559 49.1352 90.5419 51.1667 94.7675 51.1667C98.993 51.1667 103.679 49.1352 103.679 43.5553C103.679 37.9754 98.993 35.9439 94.7675 35.9439ZM94.7675 47.835C91.7879 47.835 90.4607 45.9118 90.4607 43.5553C90.4607 41.1987 91.7879 39.2756 94.7675 39.2756C97.747 39.2756 99.0472 41.1987 99.0472 43.5553C99.0472 45.9118 97.747 47.835 94.7675 47.835Z" fill="white"/>
<path d="M117.027 50.7875H122.661L116.052 42.1468L122.363 36.3502H116.268L110.716 41.6592V31.8267H105.84V50.7875H110.716V47.0766L112.855 45.0992L117.027 50.7875Z" fill="white"/>
<path d="M132.524 41.8759C130.059 41.5508 127.919 41.3612 127.919 40.3319C127.919 39.411 128.867 38.8963 131.007 38.8963C133.174 38.8963 134.312 39.7631 134.312 40.7112L139.269 40.7382C139.269 38.0296 136.939 35.9439 131.061 35.9439C125.752 35.9439 123.098 37.7587 123.098 40.7382C123.098 43.6907 125.617 44.3679 129.301 44.9367C132.443 45.4243 134.881 45.4784 134.881 46.7786C134.881 47.8079 133.824 48.1871 131.603 48.1871C129.544 48.1871 127.811 47.7537 127.811 46.1285L122.664 46.1014C122.664 49.4331 125.509 51.1667 131.305 51.1667C136.777 51.1667 140 49.704 140 46.2098C140 42.526 136.235 42.3364 132.524 41.8759Z" fill="white"/>
<defs>
<clipPath id="clip0_56_29183">
<rect width="5.92525" height="10.56" fill="white" transform="matrix(-1 0 0 1 12.0621 12.6123)"/>
</clipPath>
</defs>
</svg>
