<svg width="140" height="55" viewBox="0 0 140 55" fill="none" xmlns="http://www.w3.org/2000/svg">
<rect width="54.1738" height="54.1738" fill="#222222"/>
<path d="M31.6394 41.2926H26.2334L13.8565 28.7735H19.2625L31.6394 41.2926Z" fill="white"/>
<path d="M44.0162 41.2926H38.3257L20.1161 22.9407H25.5221L31.3548 28.7735H35.4805C36.9979 28.3467 40.0329 26.5257 40.0329 22.6562C40.0329 18.7866 36.6186 16.3966 35.0537 16.3966L13.8565 16.2543L10.1577 12.6978H35.1959C38.7525 12.6978 44.0162 16.5673 44.0162 22.9407C44.0162 29.3141 38.136 31.8558 35.1959 32.33L44.0162 41.2926Z" fill="white"/>
<g clip-path="url(#clip0_50_859)">
<path fill-rule="evenodd" clip-rule="evenodd" d="M10.3687 12.6123C10.3687 12.6123 10.3687 12.6674 10.3608 12.691C10.3451 12.7067 10.3215 12.7382 10.3057 12.7539C10.2821 12.7697 10.2585 12.7697 10.2349 12.7854C10.2192 12.7933 10.2113 12.8169 10.1956 12.8326C10.1562 12.872 10.1483 12.8798 10.1326 12.9507C10.1169 13.0215 10.1326 13.0844 10.1405 13.1631C10.172 13.1631 10.1956 13.0451 10.2585 13.0215C10.2743 13.0215 10.3057 13.0057 10.3215 13.0215C10.3687 13.0766 10.2585 13.171 10.2428 13.2182C10.2192 13.2733 10.2192 13.3126 10.1877 13.3598C10.1877 13.3756 10.1641 13.3835 10.1562 13.3992C10.1562 13.4149 10.1562 13.4385 10.1483 13.4621C10.1405 13.5172 10.1247 13.5802 10.1011 13.6274C10.0775 13.6667 10.0461 13.7061 10.0224 13.7454C9.91228 13.95 9.8336 14.1782 9.69196 14.3828C9.66835 14.4143 9.64474 14.4615 9.61327 14.5008C9.58179 14.5402 9.52671 14.5874 9.52671 14.611C9.52671 14.6267 9.54245 14.6425 9.54245 14.6739C9.54245 14.6739 9.52671 14.6739 9.52671 14.6897C9.52671 14.6976 9.52671 14.7054 9.52671 14.7133C9.52671 14.7369 9.5031 14.7526 9.49523 14.7684C9.52671 14.8392 9.52671 14.9021 9.49523 14.9336C9.44802 14.973 9.3772 14.9336 9.31425 14.9494C9.26704 14.9651 9.24343 15.0359 9.20409 15.0674C9.25917 15.0989 9.28277 15.1382 9.33786 15.1461C9.38507 15.1461 9.44802 15.1461 9.5031 15.1461C9.55032 15.1461 9.59753 15.1461 9.66048 15.1461C9.82573 15.1225 9.92802 15.0674 10.0382 14.9966C10.0933 14.9572 10.1641 14.91 10.2349 14.8864C10.2979 14.8628 10.3687 14.8471 10.4316 14.8235C10.5969 14.7605 10.8015 14.6346 10.9824 14.5953C11.0611 14.5795 11.132 14.5795 11.1556 14.5166C11.1556 14.493 11.1556 14.4694 11.1556 14.4457C11.1634 14.3828 11.2106 14.312 11.2343 14.2333C11.2579 14.1546 11.2815 14.0759 11.3051 14.013C11.3208 13.9894 11.3444 13.95 11.3602 13.9264C11.3838 13.8949 11.3995 13.8556 11.4152 13.8398C11.431 13.8241 11.4939 13.769 11.5254 13.7612C11.549 13.7533 11.6041 13.7454 11.6356 13.7454C11.6513 13.7454 11.667 13.7612 11.6828 13.7612C11.7379 13.7612 11.8008 13.7297 11.8716 13.7454C11.911 13.8084 11.8559 13.8241 11.8244 13.8477C11.8008 13.8713 11.7772 13.9107 11.7457 13.9264C11.73 13.9343 11.6985 13.9343 11.6828 13.95C11.6592 13.9657 11.6434 14.0051 11.6277 14.0287C11.6041 14.0523 11.5647 14.068 11.5569 14.0917C11.5569 14.0995 11.5569 14.1231 11.5411 14.1389C11.5175 14.2097 11.4546 14.2648 11.5018 14.3828C11.5884 14.3828 11.612 14.2884 11.6828 14.2805C11.7143 14.2805 11.7536 14.2805 11.7615 14.3198C11.7693 14.3513 11.7379 14.3828 11.6985 14.4143C11.667 14.4379 11.6356 14.4615 11.612 14.4851C11.5569 14.5323 11.5411 14.5874 11.4782 14.6346C11.4624 14.6503 11.431 14.6503 11.4152 14.6661C11.3523 14.7133 11.3287 14.7998 11.2579 14.8471C11.2106 14.8785 11.1556 14.8943 11.1162 14.9258C11.069 14.9494 11.0297 14.9887 10.9903 15.0123C10.8251 15.1303 10.6756 15.2641 10.4867 15.3664C10.4395 15.39 10.3923 15.4136 10.3372 15.4372C10.29 15.4608 10.2428 15.4923 10.1956 15.508C10.1326 15.5317 10.0461 15.5553 9.96737 15.5867C9.80999 15.6418 9.66835 15.6969 9.46376 15.7048C9.41655 15.7048 9.36933 15.7048 9.32212 15.7048C9.27491 15.7048 9.22769 15.7126 9.18835 15.7284C9.13327 15.752 9.09392 15.8621 9.05458 15.9251C9.01523 16.0038 8.96802 16.0589 8.94441 16.1376C8.92868 16.1848 8.92081 16.2477 8.8972 16.2949C8.87359 16.3658 8.84999 16.4208 8.81064 16.468C8.76343 16.5389 8.65327 16.5467 8.59818 16.6412C8.61392 16.6648 8.62966 16.6805 8.62966 16.712C8.62966 16.7356 8.62179 16.7592 8.62966 16.7828C8.62966 16.8143 8.66113 16.8379 8.669 16.8772C8.669 16.893 8.669 16.9087 8.669 16.9323C8.669 16.948 8.65327 16.9717 8.65327 16.9795C8.65327 17.0031 8.70048 17.0267 8.70835 17.0582C8.72408 17.1212 8.70835 17.1684 8.72409 17.2077C8.73982 17.2313 8.7713 17.2392 8.7949 17.2549C8.81851 17.2707 8.82638 17.2943 8.84212 17.3021C8.85786 17.3179 8.88933 17.3336 8.90507 17.3336C8.92868 17.3336 8.96015 17.2943 8.98376 17.2785C9.07818 17.2471 9.20409 17.2628 9.32212 17.2549C9.44802 17.2392 9.55032 17.1999 9.64474 17.1684C9.66048 17.1762 9.64474 17.2156 9.66835 17.2235C9.83359 17.2077 9.9595 17.1526 10.109 17.129C10.172 17.1212 10.2506 17.1054 10.3215 17.1054C10.3529 17.1054 10.3765 17.1212 10.408 17.129C10.5261 17.1605 10.6362 17.192 10.7228 17.2707C10.7228 17.2707 10.7306 17.2943 10.7385 17.2943C10.77 17.3179 10.8015 17.3258 10.8329 17.3415C10.8723 17.3651 10.9195 17.4123 10.9588 17.4595C10.9903 17.4989 11.0533 17.5776 11.0533 17.609C11.0611 17.6562 11.0375 17.7192 11.0218 17.7507C11.0218 17.7664 10.9982 17.79 10.9746 17.8136C10.9667 17.8294 10.9352 17.8687 10.9352 17.8766C10.9352 17.9002 11.0061 17.971 11.0375 18.0025C11.2579 18.2464 11.4861 18.4589 11.7064 18.6949C11.7379 18.7343 11.7772 18.7736 11.8244 18.7972C11.8244 18.7815 11.8402 18.7736 11.848 18.7579C11.8638 18.7343 11.8795 18.6713 11.911 18.6556C11.9267 18.6477 11.9503 18.6556 11.9661 18.6477C11.9739 18.6477 11.9975 18.6162 12.0054 18.6084C12.0133 18.5926 12.0133 18.5769 12.029 18.5612C12.0369 18.5454 12.0605 18.5297 12.0684 18.5218C12.092 18.5061 12.1077 18.5218 12.1234 18.4903C12.2021 18.3858 12.2738 18.199 12.3831 18.3246C12.4854 18.4106 12.4092 18.6984 12.3831 18.8287C12.3438 19.0254 12.3123 19.2221 12.2493 19.4267C12.2336 19.4661 12.2179 19.529 12.2021 19.529C12.1706 19.5448 12.0605 19.4976 12.0211 19.4897C11.9661 19.474 11.9031 19.4661 11.848 19.4425C11.8008 19.4267 11.73 19.3953 11.7536 19.3481C11.6906 19.3087 11.6277 19.2536 11.5805 19.1985C11.5333 19.1356 11.4782 19.0805 11.4231 19.0333C11.3129 18.931 11.1949 18.8444 11.0611 18.7658C10.9195 18.6871 10.7857 18.6241 10.6756 18.5218C10.5733 18.4353 10.471 18.3566 10.408 18.2228C10.4002 18.2071 10.4002 18.1835 10.3844 18.1677C10.3844 18.1599 10.2979 18.0418 10.2821 18.034C10.2664 18.034 10.1877 18.0497 10.1405 18.0654C10.0146 18.0969 9.88081 18.1599 9.77851 18.1992C9.69982 18.2307 9.62114 18.2621 9.53458 18.2858C9.44802 18.3172 9.35359 18.3251 9.26704 18.3487C9.21982 18.3644 9.16474 18.3881 9.10966 18.4038C9.0231 18.4274 8.92868 18.4353 8.82638 18.4353C8.78704 18.5769 8.76343 18.7028 8.71622 18.8287C8.669 18.9546 8.62966 19.0805 8.62179 19.2379C8.61392 19.2615 8.59031 19.2379 8.57458 19.2536C8.53523 19.3953 8.48015 19.5369 8.42507 19.6785C8.40933 19.7258 8.40146 19.773 8.37786 19.8123C8.36212 19.8359 8.33851 19.8595 8.32277 19.8831C8.2913 19.9303 8.25982 19.9854 8.22835 20.0326C8.21261 20.0562 8.189 20.072 8.17326 20.0956C8.14966 20.1349 8.13392 20.1979 8.11031 20.253C8.09458 20.3002 8.0631 20.3789 8.03163 20.4025C8.00802 20.4182 7.96081 20.4182 7.92146 20.4261C7.88999 20.4261 7.8349 20.4182 7.81917 20.4261C7.79556 20.434 7.76408 20.552 7.74835 20.5913C7.66179 20.8431 7.59884 21.0635 7.52802 21.3153C7.51228 21.3782 7.48867 21.4333 7.4808 21.5041C7.47294 21.5592 7.47294 21.6379 7.46507 21.7166C7.46507 21.7953 7.44146 21.874 7.44933 21.929C7.44933 21.9448 7.47294 21.9526 7.4808 21.9684C7.49654 21.9999 7.4808 22.0549 7.49654 22.0864C7.49654 22.1022 7.51228 22.1022 7.51228 22.11C7.51228 22.1336 7.50441 22.1651 7.50441 22.1887C7.50441 22.2281 7.50441 22.2753 7.52015 22.3146C7.52015 22.3303 7.53589 22.3382 7.54376 22.354C7.55949 22.3854 7.55949 22.4248 7.56736 22.4641C7.56736 22.4877 7.5831 22.5035 7.59884 22.5271C7.60671 22.5507 7.61458 22.5743 7.62244 22.59C7.66752 22.7252 7.81917 23.0071 7.76408 23.07C7.709 23.133 7.64605 23.1959 7.52015 23.1644C7.51228 23.1644 7.47294 23.1487 7.4572 23.1408C7.36277 23.0858 7.26048 22.9913 7.19753 22.9126C7.06376 22.7395 6.93785 22.4956 6.81195 22.2989C6.74113 22.1887 6.61523 21.9999 6.67818 21.8818C6.70179 21.8346 6.76474 21.8189 6.81982 21.7717C6.89851 21.7166 6.91425 21.63 7.01654 21.6536C7.05589 21.5513 7.06376 21.4412 7.07162 21.3389C7.08736 21.2287 7.09523 21.1107 7.09523 21.0005C7.09523 20.8825 7.07162 20.7566 7.07949 20.6228C7.07949 20.4733 7.12671 20.3317 7.18179 20.2136C7.19753 20.1743 7.21326 20.1271 7.23687 20.0956C7.26048 20.0641 7.29982 20.0405 7.31556 20.0012C7.3313 19.9776 7.3313 19.9382 7.34703 19.9067C7.37851 19.8202 7.39425 19.7179 7.41785 19.6156C7.44933 19.474 7.4808 19.3402 7.50441 19.2143C7.53589 19.0176 7.53589 18.7736 7.55949 18.5533C7.56736 18.4825 7.57523 18.4038 7.59884 18.3487C7.61458 18.3172 7.63818 18.2936 7.67753 18.27C7.66179 18.2385 7.63031 18.2228 7.62244 18.1913C7.60671 18.1756 7.59884 18.2228 7.57523 18.1992C7.54376 18.1205 7.49654 18.0497 7.47294 17.9631C7.47294 17.9395 7.47294 17.9159 7.4572 17.8923C7.4572 17.8687 7.43359 17.853 7.42572 17.8294C7.40999 17.79 7.40212 17.7349 7.40212 17.6877C7.40212 17.672 7.40212 17.6326 7.40212 17.6169C7.40999 17.5933 7.44146 17.5854 7.44933 17.554C7.44933 17.5146 7.41785 17.4044 7.40999 17.3572C7.40999 17.31 7.40999 17.2707 7.39425 17.2392C7.37851 17.1212 7.34703 16.9795 7.33917 16.8772C7.33917 16.8143 7.33917 16.7277 7.3313 16.6726C7.3313 16.6097 7.30769 16.5625 7.30769 16.5074C7.30769 16.4602 7.31556 16.4051 7.32343 16.3579C7.34703 16.2241 7.39425 16.1297 7.44933 16.0195C7.4572 15.9959 7.47294 15.9802 7.4808 15.9566C7.48867 15.9172 7.48867 15.8779 7.49654 15.8464C7.54376 15.5946 7.67753 15.4058 7.8349 15.2405C7.92146 15.1461 8.02376 15.0595 8.13392 14.9808C8.23622 14.9021 8.35425 14.8077 8.50376 14.7762C8.53523 14.6582 8.44867 14.5795 8.40933 14.5008C8.36212 14.4143 8.32277 14.3198 8.32277 14.1625C8.32277 13.8792 8.51163 13.651 8.81851 13.6431C8.9995 13.6431 9.149 13.7061 9.25917 13.8005C9.32212 13.8556 9.38507 13.9264 9.40868 14.013C9.44802 14.0051 9.47163 13.9579 9.5031 13.9264C9.58179 13.832 9.65261 13.7139 9.73917 13.6195C9.78638 13.5723 9.84146 13.5408 9.86507 13.4936C9.88081 13.4621 9.88081 13.4071 9.88868 13.352C9.88868 13.2812 9.90441 13.2182 9.92015 13.1474C9.92015 13.1159 9.92015 13.0766 9.93589 13.0451C9.93589 13.0215 9.97523 12.9821 9.99097 12.9428C10.0146 12.8798 10.0146 12.8169 10.0539 12.7776C10.0775 12.7539 10.1169 12.7303 10.1562 12.6989C10.172 12.6831 10.1956 12.6753 10.2113 12.6674C10.227 12.6595 10.2506 12.6359 10.2664 12.6359C10.29 12.6359 10.3136 12.6359 10.3451 12.6202L10.3687 12.6123Z" fill="white"/>
<path d="M8.32862 13.8675C8.53391 13.6584 8.48681 13.8107 8.48681 13.7818C8.46419 13.9648 8.44219 14.0645 8.43257 14.0813C8.43257 14.1037 8.43257 14.1059 8.43257 14.0813C8.43257 13.991 8.43257 13.9423 8.43257 13.8862C8.43257 13.8862 8.41599 13.9006 8.40771 13.9079C8.40771 13.9079 8.41599 13.8934 8.42428 13.8862C8.42721 13.8836 8.43007 13.8813 8.43257 13.879C8.46779 13.8457 8.46026 13.8331 8.41599 13.8717C8.41599 13.8717 8.39942 13.879 8.39113 13.8862C8.39113 13.8862 8.40771 13.8717 8.40771 13.8645C8.43257 13.8428 8.44914 13.8212 8.48229 13.8067H8.46572C8.46572 13.8067 8.474 13.7995 8.48229 13.7923C8.48229 13.7923 8.48229 13.7923 8.474 13.7923C8.474 13.7923 8.474 13.7923 8.46572 13.7923H8.45743H8.44085H8.42428C8.42428 13.7923 8.44085 13.7923 8.44085 13.785C8.44085 13.785 8.44914 13.785 8.45743 13.7778H8.44085C8.44085 13.7778 8.44914 13.7778 8.45743 13.7706C8.474 13.7706 8.48229 13.7561 8.49886 13.7561C8.49058 13.7561 8.474 13.7561 8.46572 13.7561H8.44914C8.44914 13.7561 8.45743 13.7561 8.46572 13.7561C8.46572 13.7561 8.46572 13.7561 8.474 13.7561H8.49058C8.49058 13.7561 8.49058 13.7561 8.48229 13.7561C8.48229 13.7561 8.49058 13.7417 8.49886 13.7417C8.49886 13.7417 8.50715 13.7417 8.51544 13.7417C8.51544 13.7417 8.51544 13.7417 8.50715 13.7417C8.50715 13.7417 8.49886 13.7417 8.49058 13.7417C8.49058 13.7417 8.48229 13.7417 8.474 13.7417C8.474 13.7417 8.48229 13.7417 8.49058 13.7417C8.49058 13.7417 8.49886 13.7417 8.50715 13.7417C8.50715 13.7417 8.49886 13.7417 8.49058 13.7417C8.49058 13.7417 8.49886 13.7417 8.50715 13.7417H8.5403C8.5403 13.7417 8.52372 13.7417 8.51544 13.7417H8.50715C8.50715 13.7417 8.50715 13.7417 8.51544 13.7417C8.52372 13.7417 8.53201 13.7417 8.54859 13.7417C8.54859 13.7417 8.54859 13.7417 8.5403 13.7272C8.5403 13.7272 8.5403 13.7272 8.54859 13.7272C8.54859 13.7272 8.55687 13.7272 8.56516 13.7272H8.52373C8.53201 13.7272 8.5403 13.7272 8.55687 13.7272H8.5403C8.5403 13.7272 8.5403 13.7272 8.54859 13.7272H8.5403C8.5403 13.7272 8.53201 13.7272 8.52373 13.7272H8.51544C8.51544 13.7272 8.52372 13.7272 8.53201 13.7272C8.53201 13.7272 8.53201 13.7272 8.5403 13.7272H8.53201C8.53201 13.7272 8.5403 13.7272 8.54859 13.7272C8.54859 13.7272 8.55687 13.7272 8.56516 13.7272C8.56516 13.7272 8.56516 13.7272 8.57345 13.7272C8.57345 13.7272 8.56516 13.7272 8.55687 13.7272H8.5403C8.5403 13.7272 8.54859 13.7272 8.55687 13.7272C8.55687 13.7272 8.56516 13.7272 8.57345 13.7272C8.57345 13.7272 8.56516 13.7272 8.55687 13.7272C8.55687 13.7272 8.54859 13.7272 8.5403 13.72C8.5403 13.72 8.53201 13.72 8.52373 13.7128C8.52373 13.7128 8.53201 13.7128 8.5403 13.7128H8.55687C8.55687 13.7128 8.54859 13.7128 8.5403 13.7055C8.5403 13.7055 8.54859 13.7055 8.55687 13.7055C8.56516 13.7055 8.58173 13.7055 8.59002 13.7055C8.58173 13.7055 8.57345 13.7055 8.56516 13.6983H8.55687C8.55687 13.6983 8.56516 13.6983 8.57345 13.6983C8.59002 13.6983 8.6066 13.6983 8.61488 13.7055H8.65632C8.65632 13.7055 8.66461 13.7055 8.67289 13.7055C8.67289 13.7055 8.63974 13.7055 8.63146 13.7055C8.63146 13.7055 8.62317 13.7055 8.61488 13.7055C8.61488 13.7055 8.62317 13.7055 8.63146 13.7055C8.63146 13.7055 8.64803 13.7055 8.65632 13.7055C8.64803 13.7055 8.63974 13.7055 8.63146 13.6983C8.63146 13.6983 8.63146 13.6983 8.62317 13.6983C8.62317 13.6983 8.62317 13.6983 8.63146 13.6983C8.63146 13.6983 8.63146 13.6983 8.62317 13.6983C8.62317 13.6983 8.62317 13.6983 8.61488 13.6983C8.61488 13.6983 8.61488 13.6983 8.6066 13.6983C8.6066 13.6983 8.6066 13.6983 8.61488 13.6983C8.61488 13.6983 8.62317 13.6983 8.63146 13.6983C8.63146 13.6983 8.63146 13.6983 8.62317 13.6911C8.62317 13.6911 8.62317 13.6911 8.63146 13.6911C8.63974 13.6911 8.64803 13.6911 8.65632 13.6911C8.65632 13.6911 8.64803 13.6911 8.63974 13.6839C8.63974 13.6839 8.63974 13.6839 8.64803 13.6839C8.64803 13.6839 8.66461 13.6839 8.67289 13.6911C8.67289 13.6766 8.66461 13.6622 8.65632 13.655C8.65632 13.655 8.65632 13.6477 8.65632 13.6405C8.65632 13.6405 8.65632 13.6405 8.65632 13.6477C8.65632 13.6477 8.66461 13.6622 8.67289 13.6694C8.67289 13.6694 8.67289 13.6694 8.67289 13.6622C8.67289 13.6622 8.67289 13.655 8.67289 13.6477C8.67289 13.6477 8.67289 13.6405 8.67289 13.6333C8.67289 13.6188 8.67289 13.5972 8.67289 13.5827C8.67289 13.5827 8.67289 13.5682 8.67289 13.561C8.67289 13.5682 8.67289 13.5755 8.67289 13.5827C8.67289 13.5972 8.67289 13.6116 8.67289 13.6261C8.67289 13.6261 8.67289 13.5972 8.67289 13.5827V13.561C8.67289 13.561 8.67289 13.5827 8.67289 13.5899C8.67289 13.5899 8.67289 13.5755 8.67289 13.5682C8.67289 13.5682 8.67289 13.5682 8.67289 13.5755V13.5538H8.68118V13.5682V13.5466H8.68947C8.68947 13.5466 8.68947 13.5682 8.68947 13.5755C8.68947 13.5755 8.68947 13.5899 8.68947 13.5972V13.5755C8.68947 13.5755 8.68947 13.5755 8.68947 13.5827C8.68947 13.5827 8.68947 13.5827 8.68947 13.5899C8.68947 13.5899 8.68947 13.5899 8.68947 13.5827V13.5682V13.5755V13.561C8.68947 13.561 8.68947 13.5682 8.68947 13.5755C8.68947 13.5755 8.68947 13.5827 8.68947 13.5899V13.5755C8.68947 13.5755 8.68947 13.5755 8.68947 13.5827V13.5755C8.68947 13.5755 8.68947 13.5827 8.68947 13.5899C8.68947 13.5899 8.68947 13.5972 8.68947 13.6044C8.68947 13.6044 8.68947 13.5972 8.68947 13.5899C8.68947 13.5899 8.68947 13.5899 8.68947 13.5827V13.5972C8.68947 13.5972 8.68947 13.6188 8.68947 13.6261C8.68947 13.6261 8.68947 13.6405 8.68947 13.6477C8.68947 13.6477 8.68947 13.6261 8.68947 13.6188C8.68947 13.6044 8.68947 13.5899 8.70604 13.5755C8.70604 13.5755 8.70604 13.5682 8.70604 13.561V13.5755C8.70604 13.5755 8.70604 13.5899 8.70604 13.6044C8.70604 13.5972 8.71433 13.5827 8.72261 13.5755C8.72261 13.5755 8.72261 13.5682 8.72261 13.561V13.5755V13.5682C8.72261 13.5682 8.72261 13.561 8.72261 13.5538C8.72261 13.5538 8.72261 13.5538 8.72261 13.5466C8.72261 13.5466 8.72261 13.5538 8.72261 13.561C8.72261 13.561 8.73919 13.5466 8.75576 13.5321C8.75576 13.5321 8.75576 13.5466 8.75576 13.5538V13.5321C8.75576 13.5321 8.75576 13.5393 8.75576 13.5466V13.5321V13.5393V13.5104V13.496C8.75576 13.496 8.75576 13.5104 8.75576 13.5177V13.5393V13.5321V13.5177V13.5032V13.5249V13.5466V13.5321V13.5538V13.5755V13.5899H8.74748C8.74748 13.5827 8.76405 13.5755 8.77234 13.5682C8.77234 13.5682 8.78062 13.561 8.78891 13.5538L8.78062 13.5682C8.78062 13.5682 8.7972 13.561 8.80549 13.5538H8.81377V13.5393V13.5466C8.81377 13.5466 8.82206 13.5466 8.83035 13.5393L8.84692 13.5321C8.84692 13.5321 8.83863 13.5466 8.83035 13.5466C8.83035 13.5466 8.83035 13.5466 8.83035 13.5538H8.83863V13.5393C8.83863 13.5393 8.83863 13.5538 8.83035 13.5538C8.83035 13.5538 8.85521 13.5393 8.86349 13.5393C8.86349 13.5393 8.8635 13.5538 8.85521 13.5538C8.85521 13.561 8.84692 13.5755 8.83863 13.5827C8.83863 13.5827 8.83863 13.5827 8.83863 13.5899C8.84692 13.5755 8.8635 13.5682 8.87178 13.5538C8.87178 13.5538 8.88007 13.5466 8.88836 13.5393C8.88836 13.5393 8.88007 13.5466 8.87178 13.5538C8.87178 13.5538 8.87178 13.5466 8.88007 13.5393C8.88007 13.5393 8.88007 13.5393 8.88836 13.5393C8.88836 13.5393 8.90493 13.5321 8.90493 13.5249C8.90493 13.5249 8.91322 13.5249 8.9215 13.5177C8.9215 13.5177 8.91322 13.5249 8.90493 13.5321C8.90493 13.5321 8.88836 13.5393 8.88836 13.5466C8.88836 13.5466 8.89664 13.5393 8.90493 13.5321C8.90493 13.5321 8.89664 13.5393 8.88836 13.5466C8.88007 13.5538 8.8635 13.5682 8.85521 13.5755C8.8635 13.5755 8.87178 13.561 8.88007 13.5538C8.88007 13.5538 8.88836 13.5538 8.89664 13.5538C8.89664 13.5538 8.88836 13.5538 8.88007 13.561C8.88007 13.561 8.88007 13.5538 8.88007 13.5466V13.5321H8.88836V13.5466C8.88836 13.5466 8.88836 13.5393 8.88836 13.5321V13.5393V13.5177C8.88836 13.5177 8.88836 13.5249 8.88836 13.5321C8.88836 13.5321 8.88836 13.5393 8.88836 13.5466V13.5321C8.88836 13.5321 8.88836 13.5393 8.88836 13.5466C8.88836 13.5538 8.88007 13.5682 8.87178 13.5755C8.87178 13.5755 8.88007 13.561 8.88836 13.5538C8.88836 13.5538 8.88836 13.5538 8.88836 13.5466C8.88836 13.5466 8.88836 13.5538 8.88836 13.561C8.88836 13.5755 8.87178 13.5827 8.87178 13.5972C8.87178 13.5827 8.88836 13.5682 8.90493 13.561C8.90493 13.5466 8.91322 13.5393 8.9215 13.5249V13.5466C8.9215 13.5466 8.9215 13.5249 8.92979 13.5177V13.5032H8.93808V13.5104C8.93808 13.5104 8.93808 13.496 8.94637 13.4888V13.5032L8.92979 13.5177L8.91322 13.5321V13.5249V13.5393C8.91322 13.561 8.92979 13.5538 8.90493 13.5755C8.90493 13.5755 8.91322 13.5755 8.91322 13.5827C8.91322 13.5827 8.91322 13.5755 8.9215 13.5682C8.93808 13.5321 8.95465 13.5032 8.96294 13.4743C8.96294 13.4888 8.96294 13.5032 8.95465 13.5249C8.95465 13.5249 8.97123 13.5177 8.97123 13.5104C8.96294 13.5249 8.95465 13.5393 8.93808 13.5538C8.93808 13.5538 8.93808 13.561 8.95465 13.5538C8.94637 13.5755 8.96294 13.5682 8.94637 13.5682C8.96294 13.5538 8.9878 13.5393 9.00438 13.5249C8.9878 13.5393 8.97951 13.5466 8.97123 13.561C8.97123 13.561 8.9878 13.561 8.99609 13.561C8.9878 13.561 8.97123 13.5755 8.96294 13.5827C8.96294 13.5827 8.96294 13.5827 8.96294 13.5899C8.96294 13.5899 8.96294 13.5899 8.97123 13.5899C8.97123 13.5899 8.97123 13.5899 8.97951 13.5827C8.99609 13.5682 9.02095 13.5538 9.03752 13.5466C9.03752 13.5466 9.01266 13.561 9.00438 13.5755C9.02095 13.5682 9.03752 13.561 9.0541 13.5466H9.07067V13.5321C9.07067 13.5321 9.06238 13.5466 9.0541 13.5466L9.07067 13.5321V13.5393C9.07067 13.5393 9.11211 13.5177 9.12868 13.5104C9.13697 13.5104 9.14526 13.5032 9.15354 13.496H9.16183C9.16183 13.496 9.14526 13.5104 9.13697 13.5177C9.12039 13.5321 9.10382 13.5466 9.09553 13.5538C9.12039 13.5466 9.13697 13.5321 9.16183 13.5249C9.17012 13.5249 9.1784 13.5177 9.18669 13.5104C9.18669 13.5104 9.17012 13.5249 9.16183 13.5249H9.17012L9.19498 13.5104H9.18669V13.5177H9.20326C9.20326 13.5177 9.22813 13.5032 9.23641 13.5032H9.2447C9.2447 13.5032 9.2447 13.5032 9.23641 13.5032H9.22813C9.22813 13.5032 9.25299 13.5032 9.26127 13.5032L9.22813 13.5177L9.19498 13.5393C9.19498 13.5393 9.21155 13.5321 9.22813 13.5249C9.21984 13.5249 9.21155 13.5321 9.20326 13.5393C9.1784 13.5538 9.16183 13.561 9.13697 13.5682C9.15354 13.5682 9.17012 13.561 9.19498 13.5538C9.20326 13.5538 9.21155 13.5538 9.22813 13.5538C9.21984 13.5538 9.21155 13.561 9.20326 13.5682C9.20326 13.5682 9.19498 13.5682 9.18669 13.5682H9.1784C9.1784 13.5682 9.16183 13.5899 9.14526 13.5972C9.16183 13.5972 9.1784 13.5899 9.18669 13.5827C9.18669 13.5827 9.19498 13.5827 9.20326 13.5827H9.18669V13.5972H9.20326H9.21155H9.22813H9.2447L9.22813 13.6116C9.22813 13.6116 9.21155 13.6188 9.20326 13.6261C9.20326 13.6261 9.20326 13.6261 9.21155 13.6261H9.19498C9.19498 13.6261 9.19498 13.6405 9.18669 13.6477V13.655C9.21155 13.655 9.22813 13.6477 9.2447 13.6333C9.22813 13.6477 9.21155 13.655 9.18669 13.6622C9.19498 13.6622 9.21155 13.6622 9.21984 13.6622C9.21984 13.6622 9.21155 13.6622 9.20326 13.6622C9.21155 13.6622 9.22813 13.6622 9.23641 13.6622H9.25299C9.25299 13.6622 9.23641 13.6622 9.22813 13.6622C9.21155 13.6622 9.20326 13.6622 9.18669 13.6622C9.20326 13.6622 9.21984 13.6622 9.23641 13.6694H9.25299C9.25299 13.6694 9.23641 13.6694 9.22813 13.6694H9.23641H9.25299C9.25299 13.6694 9.26956 13.6694 9.27785 13.6694H9.26956C9.26956 13.6694 9.28614 13.6694 9.29442 13.6694C9.28614 13.6694 9.27785 13.6694 9.26956 13.6694C9.26127 13.6694 9.25299 13.6694 9.23641 13.6694C9.23641 13.6694 9.25299 13.6694 9.26127 13.6694C9.26127 13.6694 9.2447 13.6694 9.23641 13.6694C9.23641 13.6694 9.22813 13.6694 9.21984 13.6694C9.21984 13.6694 9.20326 13.6694 9.19498 13.6694C9.19498 13.6694 9.19498 13.6694 9.20326 13.6694C9.20326 13.6694 9.20326 13.6694 9.21155 13.6694C9.23641 13.6694 9.26127 13.6839 9.28614 13.6983C9.28614 13.6983 9.30271 13.6983 9.311 13.7055C9.311 13.7055 9.311 13.7055 9.30271 13.7055C9.30271 13.7055 9.28614 13.7055 9.27785 13.7055C9.26127 13.7055 9.2447 13.7055 9.22813 13.6983C9.2447 13.7055 9.26127 13.7128 9.27785 13.72C9.27785 13.72 9.29442 13.72 9.30271 13.7272C9.30271 13.7272 9.30271 13.7272 9.29442 13.7272C9.29442 13.7272 9.27785 13.7272 9.26956 13.7272H9.27785C9.27785 13.7272 9.28614 13.7272 9.29442 13.7344H9.28614C9.28614 13.7344 9.28614 13.7344 9.29442 13.7344C9.311 13.7344 9.32757 13.7344 9.311 13.7417C9.311 13.7417 9.311 13.7417 9.30271 13.7417C9.30271 13.7417 9.31928 13.7417 9.31928 13.7489H9.32757C9.32757 13.7489 9.32757 13.7489 9.31928 13.7489C9.311 13.7489 9.30271 13.7489 9.29442 13.7489C9.29442 13.7489 9.29442 13.7489 9.28614 13.7489C9.28614 13.7489 9.28614 13.7489 9.27785 13.7489C9.27785 13.7489 9.27785 13.7489 9.26956 13.7489C9.26956 13.7489 9.26127 13.7489 9.25299 13.7489C9.25299 13.7489 9.25299 13.7489 9.26127 13.7561C9.26127 13.7561 9.26956 13.7561 9.27785 13.7561C9.29442 13.7561 9.30271 13.7561 9.31928 13.7561C9.31928 13.7561 9.31928 13.7561 9.32757 13.7561C9.32757 13.7561 9.32757 13.7561 9.31928 13.7561C9.31928 13.7561 9.30271 13.7561 9.29442 13.7561C9.30271 13.7561 9.311 13.7561 9.32757 13.7561C9.32757 13.7561 9.33586 13.7561 9.34414 13.7561C9.34414 13.7561 9.33586 13.7561 9.32757 13.7561C9.32757 13.7561 9.32757 13.7561 9.33586 13.7561C9.33586 13.7561 9.34415 13.7561 9.35243 13.7561C9.35243 13.7561 9.36072 13.7561 9.36901 13.7561C9.36901 13.7561 9.36072 13.7561 9.35243 13.7561C9.35243 13.7561 9.34415 13.7561 9.33586 13.7561C9.33586 13.7561 9.34415 13.7561 9.35243 13.7561C9.35243 13.7561 9.34415 13.7561 9.33586 13.7561H9.31928C9.31928 13.7561 9.31928 13.7561 9.32757 13.7561C9.32757 13.7561 9.33586 13.7561 9.34414 13.7561C9.34414 13.7561 9.35243 13.7561 9.36072 13.7633C9.36072 13.7633 9.37729 13.7706 9.38558 13.7778C9.38558 13.7778 9.38558 13.7778 9.37729 13.7778C9.36901 13.7778 9.36072 13.7778 9.35243 13.7778C9.34415 13.7778 9.33586 13.7778 9.31928 13.7706C9.31928 13.7706 9.32757 13.7778 9.33586 13.785C9.33586 13.785 9.34415 13.7923 9.35243 13.7995C9.35243 13.7995 9.36901 13.8067 9.37729 13.8139C9.37729 13.8139 9.37729 13.8139 9.36901 13.8139C9.36901 13.8139 9.35243 13.8139 9.34414 13.8139C9.34414 13.8139 9.35243 13.8139 9.36072 13.8139H9.35243C9.36072 13.8139 9.36901 13.8212 9.37729 13.8284H9.38558C9.38558 13.8284 9.38558 13.8284 9.37729 13.8284C9.37729 13.8284 9.37729 13.8284 9.36901 13.8284C9.37729 13.8284 9.38558 13.8356 9.39387 13.8428H9.40215C9.40215 13.8428 9.40215 13.8428 9.39387 13.8428C9.38558 13.8428 9.37729 13.8428 9.36072 13.8356C9.35243 13.8356 9.33586 13.8284 9.32757 13.8212C9.32757 13.8212 9.34415 13.8356 9.35243 13.8428C9.35243 13.8428 9.35243 13.8428 9.34414 13.8428C9.33586 13.8428 9.32757 13.8356 9.31928 13.8284C9.31928 13.8356 9.32757 13.8428 9.33586 13.8501C9.34415 13.8501 9.35243 13.8645 9.36072 13.8717C9.36901 13.879 9.37729 13.8934 9.37729 13.9006C9.38558 13.9223 9.39387 13.944 9.39387 13.9584C9.39387 13.9584 9.39387 13.9657 9.39387 13.9729C9.39387 13.9729 9.39387 13.9657 9.38558 13.9584C9.38558 13.9512 9.37729 13.9368 9.36901 13.9295C9.36901 13.944 9.36901 13.9584 9.36901 13.9729V13.9874C9.36901 13.9874 9.36901 13.9801 9.36072 13.9729V13.9874C9.36072 13.9874 9.36072 14.0018 9.36072 14.009C9.36072 14.009 9.36072 14.0235 9.36901 14.0235C9.36901 14.0235 9.36072 14.0163 9.35243 14.009C9.35243 14.009 9.35243 13.9946 9.34414 13.9874C9.34414 13.9874 9.34414 14.0018 9.34414 14.009C9.34414 14.009 9.34415 13.9946 9.33586 13.9874C9.33586 13.9874 9.33586 13.9874 9.31928 13.9801C9.31928 13.9801 9.31928 13.9801 9.31928 13.9874C9.31928 14.0018 9.33586 14.009 9.34414 14.0163C9.36072 14.0452 9.37729 14.0668 9.39387 14.0885C9.39387 14.0885 9.40215 14.103 9.41044 14.103C9.41044 14.103 9.39387 14.0957 9.38558 14.0885C9.36901 14.0813 9.36072 14.0668 9.34414 14.0524C9.35243 14.0741 9.36072 14.0885 9.37729 14.1102C9.37729 14.1174 9.38558 14.1246 9.39387 14.1319C9.39387 14.1319 9.39387 14.1319 9.38558 14.1319C9.38558 14.1319 9.36901 14.1174 9.36072 14.1174C9.36072 14.1174 9.36072 14.1174 9.36072 14.1246C9.36072 14.1246 9.36901 14.1391 9.37729 14.1463C9.37729 14.1463 9.37729 14.1463 9.36901 14.1391C9.36901 14.1391 9.36901 14.1391 9.37729 14.1463C9.37729 14.1535 9.39387 14.1608 9.40215 14.168C9.40215 14.168 9.40215 14.168 9.40215 14.1752C9.40215 14.1752 9.40215 14.1752 9.39387 14.1752C9.39387 14.1752 9.39387 14.1752 9.38558 14.1752C9.38558 14.1752 9.40215 14.1897 9.41044 14.1969C9.41044 14.1969 9.41044 14.1969 9.41873 14.1969C9.41873 14.1969 9.42702 14.2041 9.4353 14.2114C9.4353 14.2114 9.41873 14.2041 9.41044 14.1969C9.39387 14.1897 9.38558 14.1825 9.36901 14.1752C9.37729 14.1897 9.39387 14.2041 9.40215 14.2186C9.40215 14.2186 9.41044 14.233 9.41873 14.233C9.41873 14.233 9.40215 14.2258 9.40215 14.2186C9.40215 14.2186 9.41044 14.2258 9.41873 14.233C9.41873 14.233 9.41873 14.233 9.41044 14.233C9.41044 14.233 9.41044 14.233 9.41044 14.2403C9.41044 14.2403 9.41873 14.2547 9.42702 14.2619C9.42702 14.2619 9.42702 14.2619 9.41873 14.2619C9.41873 14.2619 9.42702 14.2764 9.4353 14.2764C9.4353 14.2764 9.4353 14.2764 9.42702 14.2764C9.42702 14.2764 9.41044 14.2692 9.40215 14.2619C9.39387 14.2619 9.38558 14.2475 9.37729 14.2403C9.37729 14.2403 9.38558 14.2547 9.39387 14.2619C9.39387 14.2619 9.37729 14.2547 9.37729 14.2475H9.36072V14.233V14.2403L9.37729 14.2547H9.36901V14.2475H9.37729L9.39387 14.2764H9.38558C9.38558 14.2764 9.39387 14.2764 9.40215 14.2908C9.40215 14.2908 9.38558 14.2764 9.37729 14.2692L9.35243 14.2475L9.36901 14.2692C9.36901 14.2692 9.35243 14.2619 9.35243 14.2547C9.35243 14.2547 9.35243 14.2619 9.36072 14.2692C9.36072 14.2692 9.36072 14.2764 9.36901 14.2836L9.35243 14.2692C9.35243 14.2692 9.33586 14.2547 9.32757 14.2475C9.32757 14.2547 9.33586 14.2692 9.34414 14.2764C9.34414 14.2764 9.34414 14.2836 9.34414 14.2908C9.34414 14.2908 9.34415 14.2836 9.33586 14.2764V14.2908V14.2836V14.3053C9.33586 14.3053 9.33586 14.3053 9.33586 14.3125V14.2981L9.311 14.2836C9.311 14.2836 9.311 14.2981 9.311 14.3053V14.2908C9.311 14.2908 9.29442 14.2764 9.28614 14.2619C9.28614 14.2692 9.28614 14.2764 9.28614 14.2836V14.2981V14.2764C9.28614 14.2692 9.27785 14.2547 9.26956 14.2475C9.26956 14.2475 9.29442 14.3414 9.29442 14.3486C9.2447 14.3342 9.26127 14.2908 9.2447 14.2619C9.2447 14.2619 9.2447 14.2619 9.2447 14.2692C9.2447 14.233 9.2447 14.1825 9.21155 14.1535C9.20326 14.103 9.1784 14.0524 9.18669 14.0163C9.18669 14.0018 9.18669 14.0018 9.1784 14.0163C9.18669 13.9657 9.1784 13.8645 9.12868 13.8717C9.12039 13.8067 9.07896 13.7923 9.03752 13.7417V13.7561C9.03752 13.7489 9.02095 13.7417 9.01266 13.7417C9.02924 13.7706 9.04581 13.785 9.06238 13.8067C9.03752 13.7995 9.02095 13.785 8.99609 13.7706C8.99609 13.7995 9.04581 13.8501 9.06238 13.879C9.02095 13.8645 8.95465 13.8212 8.91322 13.7923C8.91322 13.8067 8.92979 13.8212 8.93808 13.8284C8.9215 13.8212 8.89664 13.8067 8.88007 13.7923C8.88007 13.7923 8.88007 13.8067 8.88836 13.8139C8.8635 13.7923 8.73919 13.72 8.71433 13.7417C8.75576 13.7633 8.81377 13.7778 8.86349 13.8212C8.81377 13.8067 8.75576 13.785 8.71433 13.785C8.72261 13.7995 8.71433 13.7923 8.71433 13.7995C8.73919 13.8139 8.74748 13.8212 8.69775 13.8139C8.69775 13.8212 8.71433 13.8501 8.72261 13.8573C8.69775 13.8573 8.70604 13.8573 8.70604 13.8717H8.68118C8.68274 13.8739 8.52088 14.4092 8.5403 14.4498C8.56516 14.5004 8.53201 14.5365 8.52373 14.5871C8.48229 14.5727 8.50715 14.5076 8.474 14.4643C8.474 14.4643 8.474 14.4787 8.474 14.4859C8.474 14.5004 8.474 14.5148 8.474 14.5293C8.474 14.5293 8.474 14.5365 8.474 14.5437C8.474 14.5437 8.474 14.5365 8.474 14.5293C8.474 14.5148 8.474 14.5004 8.474 14.4859C8.474 14.4859 8.474 14.4859 8.474 14.4787C8.474 14.4787 8.474 14.4859 8.474 14.4932C8.474 14.4932 8.474 14.4932 8.474 14.5004C8.474 14.5076 8.474 14.5221 8.474 14.5293C8.474 14.5293 8.474 14.5148 8.474 14.5076C8.474 14.5076 8.474 14.5221 8.474 14.5293C8.474 14.5437 8.46572 14.5582 8.45743 14.5654C8.45743 14.5654 8.45743 14.5727 8.44914 14.5799C8.44914 14.5799 8.44914 14.5727 8.44914 14.5654C8.44914 14.5654 8.44914 14.5582 8.44914 14.551C8.44914 14.5654 8.43257 14.5727 8.42428 14.5871C8.42428 14.5871 8.42428 14.5871 8.41599 14.6016C8.41599 14.6016 8.41599 14.5943 8.41599 14.5871C8.41599 14.5727 8.42428 14.5582 8.43257 14.551C8.43257 14.5365 8.43257 14.5221 8.43257 14.5076C8.43257 14.5076 8.43257 14.5076 8.43257 14.5148C8.43257 14.5221 8.43257 14.5365 8.41599 14.5437C8.41599 14.5437 8.41599 14.5437 8.41599 14.551C8.41599 14.551 8.41599 14.551 8.41599 14.5437C8.41599 14.5365 8.41599 14.5221 8.41599 14.5148C8.41599 14.4932 8.40771 14.4715 8.39113 14.4498C8.39113 14.457 8.39113 14.4643 8.39113 14.4787C8.39113 14.4859 8.39113 14.4932 8.39113 14.5004C8.39113 14.5076 8.39113 14.5148 8.38284 14.5221C8.38284 14.5221 8.38284 14.5221 8.38284 14.5148C8.38284 14.5148 8.38284 14.5004 8.38284 14.4932C8.38284 14.4859 8.38284 14.4715 8.37456 14.457C8.37456 14.4426 8.35798 14.4281 8.3497 14.4137C8.3497 14.3992 8.33312 14.3848 8.32484 14.3776C8.32484 14.3776 8.32484 14.3631 8.31655 14.3559C8.31655 14.3631 8.31655 14.3703 8.31655 14.3776C8.31655 14.3776 8.31655 14.3703 8.31655 14.3631C8.31655 14.3631 8.31655 14.3631 8.31655 14.3703C8.31655 14.3776 8.31655 14.392 8.31655 14.3992C8.31655 14.3992 8.31655 14.3992 8.31655 14.4065C8.31655 14.4065 8.31655 14.4065 8.31655 14.3992C8.31655 14.3992 8.31655 14.392 8.31655 14.3848C8.31655 14.392 8.31655 14.4065 8.31655 14.4137C8.31655 14.4137 8.31655 14.4137 8.31655 14.4209C8.31655 14.4209 8.31655 14.4209 8.31655 14.4137C8.31655 14.4065 8.31655 14.392 8.31655 14.3848C8.31655 14.3703 8.31655 14.3631 8.30826 14.3559C8.30826 14.3559 8.30826 14.3776 8.30826 14.3848C8.30826 14.3848 8.30826 14.3848 8.30826 14.392C8.30826 14.392 8.30826 14.3703 8.30826 14.3631C8.30826 14.3414 8.29169 14.327 8.2834 14.3053C8.2834 14.3197 8.2834 14.3342 8.2834 14.3486C8.2834 14.3559 8.2834 14.3631 8.2834 14.3703C8.2834 14.3703 8.2834 14.3559 8.2834 14.3486C8.2834 14.327 8.26683 14.3053 8.25854 14.2764C8.25854 14.2764 8.25854 14.2764 8.25854 14.2836C8.25854 14.2836 8.25854 14.2836 8.25854 14.2764C8.25854 14.2764 8.25854 14.2692 8.25854 14.2619C8.25854 14.2547 8.25854 14.2403 8.25854 14.2258C8.25854 14.2258 8.25854 14.233 8.25854 14.2403C8.25854 14.2403 8.25854 14.2403 8.25854 14.2475C8.25854 14.2475 8.25854 14.2258 8.25854 14.2114C8.25854 14.1969 8.25854 14.1825 8.25025 14.168C8.25025 14.168 8.25025 14.168 8.25025 14.1608C8.25025 14.1752 8.25025 14.1897 8.25025 14.2041C8.25025 14.2114 8.25025 14.2186 8.25025 14.2258C8.25025 14.2258 8.25025 14.2258 8.25025 14.233C8.25025 14.233 8.25025 14.233 8.25025 14.2258C8.27035 14.0685 8.26961 13.9729 8.32862 13.8675ZM9.11211 13.4815C9.11211 13.4815 9.11211 13.4815 9.12039 13.4815C9.12039 13.4815 9.12039 13.4815 9.11211 13.4815ZM9.11211 13.4815C9.11211 13.4815 9.12039 13.4815 9.13697 13.4815C9.13697 13.4815 9.14526 13.4671 9.15354 13.4599C9.15354 13.4599 9.13697 13.4599 9.12868 13.4671C9.12868 13.4671 9.11211 13.4743 9.11211 13.4815ZM9.23641 13.4888C9.23641 13.4888 9.23641 13.4888 9.2447 13.4888C9.25299 13.4888 9.26127 13.4743 9.27785 13.4671C9.27785 13.4671 9.25299 13.4815 9.23641 13.4888ZM9.27785 13.5249C9.27785 13.5249 9.29442 13.5249 9.30271 13.5249C9.30271 13.5249 9.311 13.5249 9.31928 13.5249C9.30271 13.5249 9.29442 13.5249 9.27785 13.5249ZM9.30271 13.4671H9.28614C9.28614 13.4671 9.28614 13.4671 9.29442 13.4671H9.30271ZM9.36901 13.4888C9.36901 13.4888 9.34415 13.5032 9.33586 13.5032H9.35243C9.35243 13.5032 9.36072 13.4888 9.36901 13.4888ZM8.55687 13.6911C8.55687 13.6911 8.56516 13.6911 8.57345 13.6911C8.57345 13.6911 8.56516 13.6911 8.55687 13.6911ZM8.93808 13.4599C8.93808 13.4599 8.9215 13.4815 8.90493 13.4888C8.91322 13.4888 8.92979 13.4671 8.93808 13.4526V13.4599ZM8.96294 13.4165V13.431L8.93808 13.4454L8.95465 13.431V13.4165H8.96294ZM8.85521 13.4888C8.85521 13.4888 8.87178 13.4743 8.88007 13.4599C8.87178 13.4743 8.85521 13.4815 8.85521 13.496C8.85521 13.496 8.85521 13.496 8.85521 13.4888ZM8.78062 13.431C8.78062 13.4382 8.77234 13.4526 8.76405 13.4599C8.76405 13.4599 8.77234 13.4454 8.78062 13.4454C8.78062 13.4454 8.78062 13.4454 8.78062 13.4382V13.431ZM8.83863 13.4743C8.83863 13.4743 8.8635 13.4599 8.87178 13.4526C8.87178 13.4526 8.87178 13.4526 8.87178 13.4454C8.85521 13.4599 8.84692 13.4671 8.83863 13.4815V13.4743ZM8.9215 13.4382L8.93808 13.4237H8.95465C8.95465 13.4237 8.95465 13.4237 8.95465 13.4165C8.94637 13.4237 8.93808 13.431 8.92979 13.4454L8.9215 13.4382ZM8.93808 13.4382L8.9215 13.4526C8.91322 13.4599 8.90493 13.4743 8.88836 13.4815C8.89664 13.4815 8.90493 13.4671 8.91322 13.4599C8.91322 13.4599 8.91322 13.4454 8.9215 13.4382H8.93808Z" fill="white"/>
<path d="M8.13391 15.0357H7.86637C7.81129 15.0357 7.74047 15.0279 7.68539 15.0357C7.6067 15.0593 7.52014 15.0672 7.45719 15.138C7.40211 15.2088 7.34703 15.2718 7.29194 15.3347C7.26834 15.3583 7.26047 15.382 7.23686 15.3977C7.20539 15.4213 7.13457 15.4449 7.09522 15.4528C7.04014 15.4685 7.0244 15.4685 6.98506 15.5157C6.96932 15.5393 6.96145 15.5315 6.94571 15.5629C6.93784 15.5865 6.92998 15.6023 6.92211 15.6259C6.90637 15.6574 6.88276 15.681 6.86702 15.7124C6.83555 15.7597 6.81194 15.7911 6.7726 15.8305C6.74899 15.8541 6.70965 15.8698 6.69391 15.8934C6.63096 15.9642 6.63096 16.0587 6.63096 16.1374C6.63096 16.2318 6.63096 16.3262 6.63096 16.4206C6.63096 16.4993 6.63883 16.5859 6.63096 16.6724C6.63096 16.7354 6.59948 16.7905 6.59161 16.8534C6.58375 16.9006 6.59161 16.9479 6.59161 16.9951C6.59161 17.0344 6.56801 17.0502 6.56801 17.0974C6.56801 17.1367 6.56801 17.1603 6.59161 17.1997C6.63096 17.2705 6.68604 17.3256 6.75686 17.3649C6.84342 17.4121 6.93784 17.4357 7.03227 17.4515C7.07161 17.4515 7.08735 17.4672 7.1267 17.4672C7.1503 17.4672 7.18178 17.4672 7.20539 17.4672C7.2526 17.4751 7.28407 17.4987 7.32342 17.5065C7.37063 17.5223 7.42571 17.4987 7.46506 17.5065C7.48866 17.5065 7.49653 17.5223 7.52014 17.5302C7.53588 17.5302 7.56735 17.5302 7.58309 17.5302C7.62244 17.5302 7.66178 17.538 7.69325 17.5144C7.72473 17.4829 7.7326 17.4279 7.74834 17.3885C7.76407 17.3098 7.74834 17.2154 7.74834 17.1367V16.822C7.74834 16.6961 7.7326 16.5544 7.76407 16.4364C7.77981 16.3813 7.78768 16.3262 7.80342 16.279C7.82703 16.2161 7.84276 16.161 7.86637 16.1059C7.89785 16.0193 7.93719 15.9406 7.97653 15.862C8.01588 15.7911 8.06309 15.7124 8.07096 15.6416C8.07096 15.6023 8.07096 15.5551 8.07096 15.5157C8.07096 15.4685 8.0867 15.4213 8.0867 15.3741C8.0867 15.3347 8.1103 15.2954 8.12604 15.2482C8.13391 15.201 8.12604 15.1538 8.12604 15.1065V15.0436L8.13391 15.0357Z" fill="white"/>
<path d="M11.0926 13.4463C11.1792 13.4463 11.2657 13.3204 11.2972 13.1552C11.3287 12.9742 11.2893 12.8247 11.1949 12.8089C11.1005 12.7932 11.006 12.9191 10.9746 13.1001C10.9431 13.2811 10.9824 13.4306 11.0769 13.4463C11.0769 13.4463 11.0847 13.4463 11.0926 13.4463ZM11.1792 12.864C11.2342 12.8719 11.2657 12.9978 11.2421 13.1473C11.2106 13.2968 11.1398 13.3991 11.0926 13.3912C11.0454 13.3834 11.0139 13.2575 11.0375 13.108C11.0611 12.9585 11.1319 12.864 11.1792 12.864Z" fill="white"/>
<path d="M11.132 13.3207C10.3136 14.5876 9.49527 15.8545 8.6769 17.1213C8.64543 17.1686 8.56674 17.1213 8.59822 17.0741C9.42445 15.8072 10.2349 14.5403 11.0533 13.2735C11.0848 13.2262 11.1635 13.2735 11.132 13.3207Z" fill="white"/>
<path d="M8.59033 16.9559C8.54312 17.011 8.56673 17.0896 8.64541 17.1447C8.7241 17.1998 8.81066 17.1841 8.84214 17.1211C8.87361 17.0503 8.88935 17.011 8.92869 16.9401C8.96017 16.8772 8.94443 16.7985 8.89722 16.767C8.85 16.7355 8.77918 16.7513 8.73197 16.8064C8.67689 16.8614 8.65328 16.8929 8.5982 16.9559H8.59033Z" fill="white"/>
<path d="M8.70835 16.7201L8.86572 16.5391C8.86572 16.5391 8.94441 16.4919 8.97589 16.5076L9.03884 16.547C9.03884 16.547 9.07818 16.6178 9.06245 16.6571L8.96802 16.8774C8.96802 16.8774 8.92868 16.9247 8.8972 16.9247C8.88146 16.9247 8.85786 16.9247 8.84212 16.9089L8.73195 16.8381C8.73195 16.8381 8.69261 16.7988 8.68474 16.7751C8.68474 16.7515 8.68474 16.7358 8.70048 16.7201H8.70835ZM8.88933 16.8774C8.88933 16.8774 8.90507 16.8774 8.91294 16.8617L9.01523 16.6414C9.01523 16.6414 9.01523 16.602 9.01523 16.5942L8.95228 16.5548C8.94441 16.5548 8.92868 16.5548 8.92081 16.5706L8.76343 16.7515C8.76343 16.7515 8.76343 16.7594 8.76343 16.7673C8.76343 16.7751 8.7713 16.783 8.77917 16.7909L8.88146 16.8617C8.88146 16.8617 8.8972 16.8617 8.90507 16.8617L8.88933 16.8774Z" fill="white"/>
</g>
<path d="M80.878 13.3361V13.2278C82.9908 12.6319 84.2097 11.44 84.2097 9.16473C84.2097 5.29131 81.1489 4.31618 76.5983 4.31618H63.8404V23.277H76.0295C81.9344 23.277 84.914 22.0581 84.914 17.6971C84.914 15.178 83.4242 13.9049 80.878 13.3361ZM76.815 8.16252C78.4673 8.16252 78.982 9.00221 78.982 9.95025C78.982 10.8983 78.684 12.0089 76.815 12.0089H69.2307V8.16252H76.815ZM76.9234 19.4307H69.2307V15.3676H76.9234C79.0632 15.3676 79.4424 16.3428 79.4424 17.2908C79.4424 18.2388 79.1445 19.4307 76.9234 19.4307Z" fill="#222222"/>
<path d="M87.0854 23.277H91.961V8.83969H87.0854V23.277ZM89.5232 7.40409C91.013 7.40409 92.0423 6.56439 92.0423 5.1017C92.0423 3.63901 91.013 2.79932 89.5232 2.79932C88.0334 2.79932 87.0041 3.63901 87.0041 5.1017C87.0041 6.56439 88.0334 7.40409 89.5232 7.40409Z" fill="#222222"/>
<path d="M106.92 8.83969V10.7899C105.701 9.32725 103.914 8.43339 101.747 8.43339C97.5483 8.43339 94.1354 10.6274 94.1354 15.5301C94.1354 19.7557 97.5483 22.3831 101.747 22.3831C103.914 22.3831 105.701 21.8143 106.92 20.7037V21.9227C106.92 24.3876 105.133 24.9564 102.586 24.9564C100.338 24.9564 99.1735 24.4688 98.8756 23.6562H94.4062C94.7042 26.4732 97.6025 28.3152 102.586 28.3152C106.704 28.2881 111.796 27.6922 111.796 21.9227V8.83969H106.92ZM103.047 19.2952C100.067 19.2952 98.7401 17.7242 98.7401 15.5301C98.7401 13.3361 100.067 11.7651 103.047 11.7651C106.027 11.7651 107.435 13.3361 107.435 15.5301C107.435 17.7242 106.027 19.2952 103.047 19.2952Z" fill="#222222"/>
<path d="M79.1174 50.7875H85.0223L80.5801 43.8803C82.9908 42.9594 84.3722 41.1445 84.3722 38.2192C84.3722 34.3457 81.5281 31.8267 76.2733 31.8267H63.8404V50.7875H69.2307V44.6117H75.2711L79.1174 50.7875ZM69.2307 35.673H76.1107C78.6027 35.673 78.9007 37.3253 78.9007 38.2192C78.9007 39.113 78.5757 40.7924 76.1107 40.7924H69.2307V35.673Z" fill="#222222"/>
<path d="M94.7675 35.9439C90.5419 35.9439 85.8559 37.9754 85.8559 43.5553C85.8559 49.1352 90.5419 51.1667 94.7675 51.1667C98.993 51.1667 103.679 49.1352 103.679 43.5553C103.679 37.9754 98.993 35.9439 94.7675 35.9439ZM94.7675 47.835C91.7879 47.835 90.4607 45.9118 90.4607 43.5553C90.4607 41.1987 91.7879 39.2756 94.7675 39.2756C97.747 39.2756 99.0472 41.1987 99.0472 43.5553C99.0472 45.9118 97.747 47.835 94.7675 47.835Z" fill="#222222"/>
<path d="M117.027 50.7875H122.661L116.052 42.1468L122.363 36.3502H116.268L110.716 41.6592V31.8267H105.84V50.7875H110.716V47.0766L112.855 45.0992L117.027 50.7875Z" fill="#222222"/>
<path d="M132.524 41.8759C130.059 41.5508 127.919 41.3612 127.919 40.3319C127.919 39.411 128.867 38.8963 131.007 38.8963C133.174 38.8963 134.312 39.7631 134.312 40.7112L139.269 40.7382C139.269 38.0296 136.939 35.9439 131.061 35.9439C125.752 35.9439 123.098 37.7587 123.098 40.7382C123.098 43.6907 125.617 44.3679 129.301 44.9367C132.443 45.4243 134.881 45.4784 134.881 46.7786C134.881 47.8079 133.824 48.1871 131.603 48.1871C129.544 48.1871 127.811 47.7537 127.811 46.1285L122.664 46.1014C122.664 49.4331 125.509 51.1667 131.305 51.1667C136.777 51.1667 140 49.704 140 46.2098C140 42.526 136.235 42.3364 132.524 41.8759Z" fill="#222222"/>
<defs>
<clipPath id="clip0_50_859">
<rect width="5.92525" height="10.56" fill="white" transform="matrix(-1 0 0 1 12.4854 12.6123)"/>
</clipPath>
</defs>
</svg>
