<svg width="120" height="94" viewBox="0 0 120 94" fill="none" xmlns="http://www.w3.org/2000/svg">
<g clip-path="url(#clip0_51_12)">
<path d="M64.0243 0L68.3217 2.33796L76.8067 66.6065L72.5092 64.2685L64.0243 0Z" fill="#333333"/>
<path d="M72.6192 4.67603L76.9167 7.01399L85.4051 71.2848L81.1042 68.9445L72.6192 4.67603Z" fill="#333333"/>
<path d="M81.2141 9.35181L85.515 11.6921L94 75.9594L89.7025 73.6215L81.2141 9.35181Z" fill="#333333"/>
<path d="M89.8125 14.0291L94.1099 16.367L102.595 80.6355L98.2974 78.2976L89.8125 14.0291Z" fill="#333333"/>
<path d="M98.4074 18.7048L102.705 21.0428L111.19 85.3113L106.892 82.9734L98.4074 18.7048Z" fill="#333333"/>
<path d="M107.002 23.3809L111.3 25.7188L119.785 89.9862L115.487 87.6482L107.002 23.3809Z" fill="#333333"/>
<path d="M8.54169 67.2674L72.4074 64.2141L76.7338 66.5671L12.8681 69.6204L8.54169 67.2674Z" fill="#E74B00"/>
<path d="M17.1945 71.9735L81.0602 68.9214L85.39 71.2767L21.5208 74.3276L17.1945 71.9735Z" fill="#E74B00"/>
<path d="M25.8472 76.6806L89.7164 73.6296L94.0428 75.9838L30.1771 79.0359L25.8472 76.6806Z" fill="#E74B00"/>
<path d="M34.5035 81.3902L98.3692 78.3369L102.694 80.6911L38.8299 83.7432L34.5035 81.3902Z" fill="#E74B00"/>
<path d="M43.1562 86.096L107.021 83.0439L111.347 85.397L47.4826 88.4502L43.1562 86.096Z" fill="#E74B00"/>
<path d="M51.809 90.8033L115.674 87.7512L120 90.1042L56.1343 93.1575L51.809 90.8033Z" fill="#E74B00"/>
<path d="M0 2.96655L8.54167 67.2663L12.8681 69.6193L4.32639 5.31956L0 2.96655Z" fill="#4D4D4D"/>
<path d="M8.65277 7.67383L17.1944 71.9736L21.5208 74.3266L12.9792 10.0268L8.65277 7.67383Z" fill="#4D4D4D"/>
<path d="M17.3055 12.3809L25.8472 76.6795L30.1771 79.0359L21.6319 14.7339L17.3055 12.3809Z" fill="#4D4D4D"/>
<path d="M25.9572 17.0869L34.5034 81.389L38.8298 83.742L30.2882 19.4434L25.9572 17.0869Z" fill="#4D4D4D"/>
<path d="M34.6146 21.7964L43.1562 86.0961L47.4826 88.4492L38.9398 24.1494L34.6146 21.7964Z" fill="#4D4D4D"/>
<path d="M43.2662 26.5037L51.809 90.8034L56.1342 93.1564L47.5926 28.8567L43.2662 26.5037Z" fill="#4D4D4D"/>
<path d="M0.216431 3.08449L4.51388 5.4213L68.3217 2.33796L64.0243 0L0.216431 3.08449Z" fill="#787878"/>
<path d="M8.81134 7.75936L13.1088 10.0973L76.9166 7.01283L72.6192 4.67603L8.81134 7.75936Z" fill="#787878"/>
<path d="M17.4062 12.4351L21.7037 14.773L85.515 11.6909L81.2141 9.35059L17.4062 12.4351Z" fill="#787878"/>
<path d="M26.0012 17.1112L30.3032 19.4503L94.1099 16.367L89.8125 14.0291L26.0012 17.1112Z" fill="#787878"/>
<path d="M34.6007 21.7881L38.8982 24.1261L102.705 21.0416L98.4074 18.7036L34.6007 21.7881Z" fill="#787878"/>
<path d="M43.1956 26.4641L47.4931 28.8021L111.3 25.7176L107.002 23.3796L43.1956 26.4641Z" fill="#787878"/>
<path d="M67.5625 58.5984C63.3183 56.0764 61.2755 51.1273 61.8738 46.8449C63.2442 36.375 76.559 32.4606 83.2951 41.0359C90.5312 50.7986 80.8194 63.728 69.4375 59.5197L67.5625 58.5984Z" fill="#DB470E"/>
<path d="M85.7188 47.2511L85.6123 46.4132C85.5625 46.118 85.4734 45.728 85.4109 45.4352L85.1713 44.6018C85.0683 44.2963 84.9074 43.8958 84.7917 43.5949L84.4097 42.7893C84.2454 42.4826 84.0035 42.0856 83.8241 41.787L83.2951 41.0382C83.0648 40.7454 82.735 40.3727 82.4884 40.0926L81.8148 39.4352C81.5185 39.1759 81.1042 38.8542 80.794 38.6111L79.9873 38.0775C79.7014 37.9074 79.3056 37.7049 79.0116 37.5474L78.1123 37.1551C77.7407 37.0174 77.235 36.8623 76.8565 36.7442L75.9248 36.5347C75.5637 36.4734 75.0787 36.4201 74.7153 36.3761L73.7951 36.3391C73.4607 36.3414 73.0162 36.3715 72.6817 36.39L71.7998 36.5046C71.4988 36.5567 71.1019 36.6505 70.8032 36.7164L69.9792 36.9595C69.713 37.0498 69.3646 37.191 69.1019 37.2917L68.3472 37.6435C68.1134 37.7627 67.8113 37.9398 67.5822 38.0683L66.9016 38.5104C66.6979 38.6539 66.4363 38.8599 66.2373 39.0093L65.6343 39.5301C65.4572 39.6933 65.2338 39.9259 65.0625 40.0949L64.537 40.6886C64.3843 40.8727 64.1956 41.1296 64.0498 41.3194L63.603 41.9849C63.4745 42.1921 63.3183 42.478 63.1968 42.6886L62.8333 43.4305C62.7118 43.7083 62.5683 44.0868 62.4583 44.3704L62.213 45.1528C62.1458 45.3981 62.0741 45.7315 62.015 45.9792L61.8808 46.7859C61.8472 47.0486 61.8229 47.4005 61.7986 47.6643L61.7812 48.4919C61.7859 48.772 61.8137 49.1435 61.8299 49.4236L61.9363 50.2616C61.9861 50.5567 62.0752 50.9467 62.1377 51.2396L62.3773 52.0729C62.4803 52.3785 62.6412 52.7789 62.7569 53.0798L63.1389 53.8854C63.3032 54.1921 63.5451 54.5891 63.7245 54.8877L64.2535 55.6366C64.4838 55.9294 64.8137 56.3021 65.0602 56.5822L65.7338 57.2396C66.0301 57.4988 66.4444 57.8206 66.7546 58.0636L67.5613 58.5972C67.8472 58.7673 68.2431 58.9699 68.537 59.1273C68.8067 59.2454 69.1667 59.4016 69.4363 59.5197C69.8079 59.6574 70.3137 59.8125 70.6921 59.9305L71.6238 60.14C71.985 60.2014 72.4699 60.2558 72.8333 60.2986L73.7535 60.3356C74.088 60.3333 74.5324 60.3032 74.8669 60.2847L75.7488 60.1701C76.0498 60.118 76.4468 60.0243 76.7454 59.9583L77.5694 59.7153C77.8357 59.625 78.184 59.4838 78.4468 59.3831L79.2014 59.0312C79.4352 58.912 79.7373 58.7349 79.9664 58.6065L80.647 58.1643C80.8507 58.0208 81.1123 57.8148 81.3113 57.6655L81.9144 57.1447C82.0914 56.9815 82.3148 56.7488 82.4861 56.5799L83.0116 55.9861C83.1644 55.8021 83.353 55.5451 83.4988 55.3553L83.9456 54.6898C84.0741 54.4826 84.2303 54.1967 84.3519 53.9861L84.7153 53.2442C84.838 52.9664 84.9803 52.588 85.0903 52.3044L85.3356 51.522C85.4028 51.2766 85.4745 50.9433 85.5336 50.6956L85.6678 49.8889C85.7014 49.6261 85.7257 49.2743 85.75 49.0104L85.7674 48.1829C85.7627 47.9028 85.735 47.5312 85.7188 47.2511ZM67.7986 45.7697C67.6134 40.8715 69.5706 37.9282 73.6157 37.0231C80.669 35.4444 88.6319 44.5289 84.2361 51.6805C80.7176 57.4039 69.8715 56.1805 67.8113 45.9305C67.8079 45.8819 67.8021 45.8183 67.7986 45.7697Z" fill="#E74B00"/>
<path d="M70.147 48.7129C66.3576 41.5867 71.9792 35.8113 78.3634 37.7985C84.9491 39.8495 87.9144 49.6319 81.36 53.0729C77.6563 55.0173 72.4167 52.9803 70.147 48.7129Z" fill="#CE4217"/>
<path d="M72.4664 49.6191C68.3542 44.876 70.4132 37.4316 77.2037 38.0983C83.1748 38.6839 87.2512 47.0647 82.088 51.2892C79.4514 53.4467 75.1354 52.6978 72.4664 49.6191Z" fill="#C14021"/>
<path d="M74.1782 49.2558C70.1412 45.6285 71.4988 39.2477 76.3785 38.9109C81.9109 38.5289 85.3449 45.2558 82.7512 48.9537C81.0949 51.3148 77.3461 52.1018 74.1782 49.2558Z" fill="#B23F28"/>
<path d="M75.8982 48.4202C72.4294 45.9769 72.7269 41.0348 76.3959 40.1575C80.3403 39.2154 83.6817 43.9584 82.2824 47.0927C81.2292 49.4538 78.2454 50.0742 75.8982 48.4202Z" fill="#A53F2F"/>
<path d="M76.6539 45.9931C76.5127 45.86 76.2187 45.5834 75.8843 44.5255C75.7998 44.2593 75.7893 43.8531 75.8958 43.5949C75.9132 43.5544 76.3136 42.5892 76.4687 42.4838C76.9954 42.1262 77.4502 41.8183 78.3322 41.941C78.3403 41.941 79.1933 42.1169 79.6516 42.485C79.6586 42.4908 80.5093 43.4248 80.6748 43.8241C80.978 44.5533 80.8842 45.7466 80.1933 46.4156C80.1308 46.4757 78.647 47.8681 76.6528 45.9908" fill="#993E34"/>
</g>
<defs>
<clipPath id="clip0_51_12">
<rect width="120" height="93.1574" fill="white"/>
</clipPath>
</defs>
</svg>
