<svg width="120" height="117" viewBox="0 0 120 117" fill="none" xmlns="http://www.w3.org/2000/svg">
<g clip-path="url(#clip0_51_4691)">
<path d="M36.7901 73.2549C36.7901 73.2671 36.7936 73.281 36.7954 73.2932L36.8023 73.2671C37.0233 73.5212 37.2165 73.7909 37.3801 74.0781C37.2896 73.9215 37.1852 73.7213 37.0895 73.5403C37.1417 73.6413 37.1974 73.7457 37.2513 73.8466C38.4035 56.8691 26.1807 36.8929 3.87412 22.7505C2.96041 24.7363 2.19986 26.8265 1.59942 29.0124C10.2457 33.4034 36.1479 48.5379 36.8336 72.202C36.8598 72.5152 36.8754 72.8285 36.8893 73.1418L36.8511 73.06C36.8511 73.06 36.8511 73.0565 36.8493 73.0565C36.8476 72.7711 36.8424 72.4856 36.8336 72.202C35.6693 58.2649 22.4719 44.1991 0.299352 35.8469C0.0348124 38.2139 -0.055688 40.6661 0.033072 43.1949C22.0995 48.7659 35.3195 60.289 36.7379 72.825C33.8019 66.6171 22.9227 64.0099 5.65454 66.6536C6.77013 69.1894 8.03539 71.6798 9.43641 74.1129C24.0853 69.5409 33.5356 69.5479 36.7901 73.2549Z" fill="#E74B00"/>
<path d="M39.5243 77.0176L39.4129 76.8871C49.6882 55.9589 54.3577 25.4881 50.0624 0.483909C47.3387 0.142792 44.6898 -0.0155836 42.1192 7.99339e-05C49.8048 25.0704 48.1201 55.5186 39.0909 76.5042C38.9917 76.3806 38.8873 76.2501 38.7811 76.1126C46.5885 55.2244 45.4886 25.2253 34.679 0.569188C32.286 0.927709 29.9904 1.44983 27.7975 2.13032C38.7759 21.2938 43.2922 43.931 41.1881 62.8004C40.6782 67.3689 39.7801 71.7112 38.4905 75.7332C38.5131 75.7645 38.5392 75.7959 38.5636 75.8289C38.4644 75.6984 38.3669 75.5714 38.2799 75.4582C36.2558 72.5988 27.8846 74.3252 14.0345 81.2224C15.6931 83.5267 17.4735 85.7596 19.3619 87.9073C31.3932 79.1514 38.2956 75.5888 39.526 77.0141L39.5243 77.0176ZM39.1936 76.633L39.1988 76.6382L39.1919 76.6313C39.1919 76.6313 39.1901 76.6278 39.1884 76.6278C39.1884 76.6295 39.1919 76.6313 39.1936 76.633Z" fill="#E74B00"/>
<path d="M42.7266 80.0284C42.7266 80.0284 42.7127 80.0163 42.7057 80.011C42.7127 80.0163 42.7197 80.0232 42.7266 80.0284L42.8954 80.1468C62.1703 66.0548 90.7666 53.7712 114.453 50.2608C113.348 47.7198 112.09 45.2241 110.699 42.7893C88.5755 49.5716 61.2722 64.6904 42.516 79.8579C42.2985 79.6786 42.0688 79.4837 41.8355 79.2836C41.9434 79.3741 42.0496 79.4646 42.154 79.5533C60.2941 63.392 85.9597 45.5774 106.131 35.6676C104.479 33.3581 102.707 31.12 100.828 28.9636C82.954 41.8199 59.2186 62.1598 41.7955 79.247C41.6754 79.1426 41.5553 79.0382 41.4387 78.9372C58.0647 61.006 79.5968 38.3443 94.867 22.7661C92.7803 20.7873 90.5996 18.9094 88.3388 17.1394C75.9229 35.1803 56.8255 59.9374 41.0872 78.6274C41.0732 78.6152 41.0576 78.6013 41.0437 78.5891C40.8279 78.382 35.5179 83.5893 25.3366 94.0943C27.4268 96.0627 29.6128 97.9318 31.8788 99.6931C40.17 87.4999 43.7465 80.8081 42.7266 80.0319V80.0284Z" fill="#E74B00"/>
<path d="M36.6718 72.6125C34.5851 62.0275 21.7862 53.5918 0.859756 50.9951C1.3227 53.6614 1.9649 56.3085 2.76897 58.9243C22.0873 58.7242 34.0908 64.1473 36.6735 72.6125H36.6718Z" fill="#E74B00"/>
<path d="M45.7097 81.9688C45.4799 81.8435 45.2345 81.706 45.0326 81.5964L44.4862 81.264C64.4902 71.9198 94.2962 71.1088 119.725 80.5818C119.979 78.2079 120.059 75.7504 119.955 73.2199C94.2527 66.8361 64.13 70.4196 44.0911 80.9925L44.4322 81.2309L44.4409 81.2361C46.8809 82.7729 45.2032 90.8013 38.9047 104.629C41.3186 106.155 43.7987 107.56 46.3327 108.828C50.5131 93.3806 50.0833 84.1496 46.0142 82.1307L46.1117 82.1742C64.3788 77.5918 89.021 85.561 109.034 104.331C110.51 102.8 111.857 101.141 113.056 99.3693C91.1147 82.3987 64.6608 76.2343 45.7114 81.9706L45.7097 81.9688Z" fill="#E74B00"/>
<path d="M45.1249 81.6452C45.184 81.6783 45.2415 81.7131 45.3041 81.7462C45.3059 81.7462 45.3076 81.7479 45.3094 81.7496C64.7721 74.8385 92.7054 78.9197 116.215 93.7166C117.118 91.7238 117.87 89.6266 118.458 87.4355C92.0615 75.1623 64.847 73.3714 45.1249 81.6469V81.6452Z" fill="#E74B00"/>
<path d="M43.7117 80.7229C63.6409 68.9909 93.6696 62.6507 119.184 65.9209C118.733 63.2563 118.103 60.6092 117.309 57.9951C92.4757 58.1431 62.9674 67.4855 43.2992 80.434L43.7117 80.7229Z" fill="#E74B00"/>
<path d="M40.7547 78.2915C55.5324 58.9366 71.9948 32.3695 81.3268 12.1792C78.9146 10.6425 76.438 9.23274 73.9092 7.95703C67.8352 29.9573 54.1697 58.0264 40.4206 77.9469L40.7547 78.2915Z" fill="#E74B00"/>
<path d="M39.7471 77.2525L40.0882 77.6023C52.7391 57.2206 63.4825 27.9715 66.1714 4.54761C63.5504 3.55733 60.8859 2.71324 58.197 2.03101C58.9767 26.4713 51.2441 56.5348 39.7488 77.2542L39.7471 77.2525Z" fill="#E74B00"/>
<path d="M37.9545 74.962L38.2103 75.3588C43.6508 55.1285 37.6812 27.1761 21.5321 4.63281C19.5568 5.61091 17.6928 6.73869 15.9507 8.00221C34.2405 28.9026 42.2428 55.2956 37.9545 74.9638V74.962Z" fill="#E74B00"/>
<path d="M37.4672 74.2138C37.5942 74.414 37.7039 74.5776 37.7039 74.5776C40.8905 55.6369 31.1582 31.1078 11.1089 12.1846C9.7549 13.5699 8.51574 15.0597 7.39493 16.6417C7.4541 16.6887 7.4541 16.6904 7.39493 16.6417C7.28355 16.8001 7.17216 16.9585 7.06252 17.1186C28.4624 33.7793 39.6096 56.1642 37.4672 74.2121V74.2138Z" fill="#E74B00"/>
<path d="M46.5398 82.3624L47.2429 82.6739C53.1498 84.8442 55.9605 95.1316 54.0861 112.212C56.7124 113.193 59.3769 114.027 62.0693 114.697C61.4062 96.6893 56.6724 86.0016 48.0035 82.9263C58.0682 84.2002 66.6413 96.0001 70.2056 116.21C72.9259 116.542 75.5713 116.688 78.1331 116.659C71.551 95.4867 59.9112 83.438 47.9426 82.9037L47.953 82.9071L47.8782 82.8862C47.7215 82.8393 47.5249 82.7714 47.3543 82.7122C47.5092 82.7662 47.6815 82.8253 47.8312 82.8706C58.4702 82.8201 72.7605 89.1256 85.5576 116.055C87.942 115.686 90.2323 115.151 92.4183 114.46C80.1259 93.1772 63.0196 81.7237 48.0748 82.6165C47.8346 82.6443 47.5945 82.6791 47.356 82.7105C47.323 82.6983 47.2916 82.6878 47.2603 82.6774C47.5318 82.653 47.8033 82.6322 48.0748 82.6165C64.7182 80.7316 82.6616 90.9791 98.6593 111.935C100.629 110.945 102.485 109.808 104.218 108.538C86.4574 88.372 63.9507 78.9112 46.5415 82.3607L46.5398 82.3624Z" fill="#E74B00"/>
</g>
<defs>
<clipPath id="clip0_51_4691">
<rect width="120" height="116.662" fill="white"/>
</clipPath>
</defs>
</svg>
