<svg width="100" height="101" viewBox="0 0 100 101" fill="none" xmlns="http://www.w3.org/2000/svg">
<g clip-path="url(#clip0_51_4687)">
<path d="M69.112 0.0122523L69.0906 0L0.137838 9.69002L0 84.1088L30.9094 100.924L30.9891 58.3193L31.0488 26.5047L30.911 100.924L30.9447 100.919L99.8637 91.2335L99.9418 49.1592L100.002 16.8147L69.112 0.0122523ZM30.8466 51.0705L25.8937 48.375L25.9151 36.449L30.8681 39.1445L30.8466 51.0705ZM77.004 19.939L72.051 17.2435L83.1011 15.6906L88.054 18.3861L77.004 19.939ZM71.8749 17.1486L67.7352 14.8972L67.7872 14.3321L77.9719 12.9001L82.9249 15.5956L71.8749 17.1486ZM30.8696 38.7218L25.9166 36.0263L25.9381 24.1002L30.891 26.7957L30.8696 38.7218ZM10.5523 15.7304L15.5053 18.4259L15.4838 30.3519L12.0838 28.5019L10.5324 26.056L10.5523 15.7304ZM15.4777 33.8546L12.4943 29.1482L15.4838 30.7747L15.4777 33.8546ZM20.5961 41.9258L15.6538 34.1302L15.6599 30.8696L20.6114 33.5636L20.5961 41.9258ZM15.6599 30.4469L15.6814 18.5208L20.6328 21.2148L20.6114 33.1409L15.6599 30.4469ZM20.809 21.3098L25.7619 24.0053L25.7405 35.9313L20.7875 33.2358L20.809 21.3098ZM67.7122 15.1515L71.4844 17.2037L67.4702 17.7673L67.7122 15.1515ZM67.7995 14.2096L68.1165 10.7743L72.8444 10.1097L77.7958 12.8036L67.798 14.208L67.7995 14.2096ZM68.1288 10.6534L68.4029 7.69443L72.6698 10.0162L68.1288 10.6549V10.6534ZM5.42316 12.9415L10.3761 15.6354L10.3578 25.7803L5.41397 17.9833L5.42316 12.9415ZM25.7145 50.0015L24.4571 48.0197L25.716 48.7043L25.7129 50.0015H25.7145ZM24.0482 47.3734L20.7707 42.203L20.786 33.6601L25.739 36.3556L25.7175 48.2816L24.0482 47.3734ZM67.458 17.8899L71.659 17.3002L76.6119 19.9957L67.1394 21.3266L67.4564 17.8914L67.458 17.8899ZM88.4446 18.3309L83.4916 15.6354L94.5416 14.0825L99.4946 16.778L88.4446 18.3309ZM83.3155 15.5405L78.3625 12.845L89.4125 11.292L94.3655 13.9875L83.3155 15.5405ZM78.1864 12.75L73.2349 10.0561L84.2849 8.50308L89.2364 11.197L78.1864 12.75ZM73.0588 9.9611L68.4244 7.44019L68.4443 7.21965L79.1558 5.71415L84.1088 8.40965L73.0588 9.96263V9.9611ZM68.455 7.09713L68.772 3.6619L74.0252 2.9237L78.9782 5.61767L68.4535 7.09713H68.455ZM73.8506 2.82721L68.7843 3.53938L69.089 0.237388L73.8506 2.82721ZM5.24704 12.845L5.23785 17.7061L0.528379 10.2781L5.24704 12.845ZM25.8891 50.2757L25.8921 48.7977L30.8451 51.4932L30.8329 58.0742L25.8891 50.2757ZM99.6294 29.165L88.5794 30.718L88.6008 18.7919L99.6508 17.239L99.6294 29.165ZM99.6064 41.5138L88.5564 43.0667L88.5778 31.1407L99.6278 29.5877L99.6064 41.5138ZM65.6722 46.283L65.6936 34.3569L76.7437 32.8039L76.7222 44.73L65.6722 46.283ZM76.7222 45.1527L76.7008 57.0788L65.6507 58.6317L65.6722 46.7057L76.7222 45.1527ZM54.2117 60.2398L54.2332 48.3138L65.2801 46.7608L65.2587 58.6869L54.2117 60.2398ZM65.2571 59.1096L65.2357 71.0326L54.1887 72.5855L54.2102 60.6625L65.2571 59.1096ZM54.2347 47.8911L54.2561 35.965L65.3031 34.412L65.2817 46.3381L54.2347 47.8911ZM54.2577 35.5423L54.2791 23.6163L65.3261 22.0633L65.3031 33.9893L54.2561 35.5423H54.2577ZM42.7696 61.8479L42.7911 49.9219L53.8411 48.3689L53.8196 60.295L42.7696 61.8479ZM53.8196 60.7177L53.7982 72.6407L42.7482 74.1936L42.7696 62.2707L53.8196 60.7177ZM42.7926 49.4992L42.814 37.5731L53.8641 36.0202L53.8426 47.9462L42.7926 49.4992ZM42.8156 37.1504L42.837 25.2244L53.887 23.6714L53.8656 35.5975L42.8156 37.1504ZM31.3735 39.1812L42.4235 37.6283L42.4021 49.5543L31.352 51.1073L31.3735 39.1812ZM31.3735 38.7585L31.3949 26.8325L42.4449 25.2795L42.4235 37.2056L31.3735 38.7585ZM31.3505 51.53L42.4005 49.977L42.3791 61.9031L31.3291 63.4561L31.3505 51.53ZM31.3275 63.8788L42.3776 62.3258L42.3561 74.2488L31.3061 75.8018L31.3275 63.8788ZM31.3046 76.2245L42.3546 74.6715L42.3331 86.5975L31.2831 88.1505L31.3061 76.2245H31.3046ZM42.7237 86.9651L51.118 85.7858L42.7145 92.0912L42.7237 86.9667V86.9651ZM51.8103 85.2651L42.7237 86.5424L42.7451 74.6164L53.7951 73.0634L53.7752 83.7902L51.8087 85.2651H51.8103ZM54.1688 83.4962L54.1887 73.0082L65.2357 71.4553L65.2281 75.1999L54.1688 83.4962ZM65.6262 71.4001L71.368 70.593L65.6186 74.9058L65.6247 71.4001H65.6262ZM72.0618 70.0738L65.6278 70.9774L65.6492 59.0544L76.6992 57.5015L76.6824 66.6064L72.0618 70.0738ZM77.0745 66.3124L77.0913 57.4463L88.1413 55.8933L88.1367 58.013L77.0745 66.3124ZM88.1643 43.5446L88.1429 55.4706L77.0928 57.0236L77.1143 45.0976L88.1643 43.5446ZM77.1143 44.6749L77.1373 32.7488L88.1873 31.1958L88.1658 43.1219L77.1158 44.6749H77.1143ZM88.5288 57.7189L88.5319 55.8382L91.6118 55.4048L88.5273 57.7189H88.5288ZM99.5911 49.4195L92.3056 54.8856L88.5334 55.4155L88.5548 43.4894L99.6049 41.9365L99.5911 49.4195ZM88.1873 30.7731L77.1373 32.3261L77.1587 20.4L88.2087 18.8471L88.1873 30.7731ZM76.7452 32.3812L65.6952 33.9342L65.7166 22.0081L76.7666 20.4552L76.7452 32.3812ZM31.2601 100.499L31.2816 88.5732L42.3316 87.0202L42.3209 92.3837L31.5588 100.458L31.2586 100.501L31.2601 100.499Z" fill="#222222"/>
</g>
<defs>
<clipPath id="clip0_51_4687">
<rect width="100" height="100.924" fill="white"/>
</clipPath>
</defs>
</svg>
