<svg width="260" height="129" viewBox="0 0 260 129" fill="none" xmlns="http://www.w3.org/2000/svg">
<g clip-path="url(#clip0_25_2)">
<path d="M216.305 92.0817C216.667 73.004 217.01 75.8424 217.328 91.0338C217.328 92.4989 208.249 100.287 208.249 92.2553C208.249 94.3011 193.5 109.134 193.5 83.8753C193.5 74.3289 220.063 57.6423 220.063 80.3027C219.953 100.609 219.828 92.0434 219.688 79.4417C219.688 53.9145 192.203 91.8848 192.203 83.1377C192.203 98.436 177.454 90.5633 177.454 74.7577C177.454 83.4281 207.535 96.5971 207.535 70.7129C207.535 121.572 217.73 80.5113 217.73 76.5048C215.86 103.268 213.087 61.597 209.359 70.0121C205.631 59.2325 201.147 57.3536 196.043 64.1834C196.043 61.8273 206.238 68.4469 206.238 69.9754C206.238 59.4528 176.157 54.8506 176.157 74.0202C176.157 57.0399 161.408 54.305 161.408 65.6402C161.408 85.8727 188.893 55.6599 188.893 61.9441C188.162 59.7264 187.424 21.2906 186.675 61.3317C186.675 44.0945 160.112 73.6064 160.112 64.9043C160.112 62.0592 145.362 64.6774 145.362 56.5243C145.362 79.0829 154.442 27.8117 154.442 55.3028C153.247 37.9621 152.042 68.245 150.831 54.879C150.831 50.2385 144.068 44.2029 144.068 55.7884C144.068 58.8371 140.752 48.9069 140.752 53.9045C139.497 88.7027 138.237 82.0915 136.971 53.6142C136.971 46.4823 141.424 74.7477 141.424 56.1438C141.424 54.4368 111.343 49.3607 111.343 60.1887C111.343 84.6846 98.3163 55.725 98.3163 52.7882C97.2834 68.8574 96.2521 68.9441 95.2209 52.8866C95.2209 96.7023 108.699 64.9026 108.699 60.5441C108.699 32.4122 101.178 74.4023 93.6574 80.543C86.1367 85.6925 78.6161 96.8992 78.6161 64.5906C78.6161 66.8183 63.8668 63.9665 63.8668 56.2106C63.8668 50.5455 84.67 56.4542 84.67 53.4139C76.7605 34.2944 68.9362 54.9691 61.3305 55.7C53.7247 51.9238 46.7397 69.3813 40.4188 59.3644C40.4188 82.4436 61.222 84.3392 61.222 56.5677C61.222 31.3242 75.9713 103.352 75.9713 64.9477C75.9713 77.7964 68.4506 104.275 60.9317 75.1832C53.411 35.8479 45.892 56.012 45.892 68.9925C45.892 78.1751 32.4143 64.0833 32.4143 61.335C31.6717 72.7887 30.9409 60.4073 30.2217 61.9474C30.2217 64.9677 43.2489 92.0851 43.2489 69.3479C43.2489 41.725 13.168 38.1507 13.168 73.3928C13.168 67.5074 8.71434 42.9264 8.71434 70.8631C8.19205 69.1427 7.68978 65.1062 7.20921 71.8626C7.20921 108.591 10.5265 43.8875 10.5265 73.7482C10.5265 112.92 3.76009 80.4145 3.76009 74.6576C3.39799 24.5394 3.05759 104.023 2.73887 75.7055C2.73887 78.6774 11.8197 59.5279 11.8197 74.4841C11.8197 57.9727 26.569 107.559 26.569 82.8641C26.569 77.6695 0.00227356 90.7168 0.00227356 86.4367C0.112405 76.2896 0.237554 80.0657 0.377722 87.2977C0.377722 64.3987 27.8655 71.6874 27.8655 83.6016C27.8655 68.3985 42.6148 50.6323 42.6148 91.9816C42.6148 95.077 12.5339 76.1811 12.5339 96.0265C12.5339 99.0985 2.33339 76.8052 2.33339 90.2312C4.20395 111.558 6.97893 65.4032 10.7084 96.729C14.4378 95.3039 18.9249 82.819 24.0326 102.561C24.0326 134.354 13.8304 97.0794 13.8304 96.7657C13.8304 123.13 43.9113 103.484 43.9113 92.7208C43.9113 106.718 58.6606 118.622 58.6606 101.101C58.6606 145.282 31.1728 104.837 31.1728 104.797C31.9037 91.8331 32.6412 145.786 33.3904 105.409C33.3904 81.9747 59.9572 84.159 59.9572 101.837C59.9572 94.6965 74.7064 100.881 74.7064 110.217C74.7064 122.894 65.6239 120.117 65.6239 111.438C66.8203 118.19 68.0251 111.118 69.2399 111.864C69.2399 134.638 76.003 110.173 76.003 110.954C76.003 110.369 79.3186 108.258 79.3186 112.838C80.5718 68.597 81.8299 94.5747 83.0948 113.129C83.0948 100.263 78.6428 100.48 78.6428 110.599C78.6428 122.905 108.724 118.969 108.724 106.554C108.724 76.937 121.749 101.89 121.749 113.955C122.782 139.947 123.813 122.064 124.845 113.856C124.845 113.078 111.367 125.43 111.367 106.199C111.367 88.1854 141.448 136.937 141.448 102.154C141.448 107.143 156.197 111.066 156.197 110.534C156.197 100.974 135.406 140.188 135.406 113.33C139.359 104.965 143.29 67.983 147.183 93.5919C151.076 75.3735 154.932 100.026 158.733 111.046C166.334 104.899 173.317 134.436 179.635 107.383C179.635 119.523 158.842 113.245 158.842 110.18C158.842 148.648 144.093 118.922 144.093 101.8C144.093 110.939 174.173 130.489 174.173 97.7552C174.173 82.1115 187.651 129.922 187.651 105.413C188.394 86.4417 189.125 159.289 189.844 104.8C189.844 112.603 176.818 121.245 176.818 97.3998C176.818 114.565 184.339 118.003 191.86 107.268C199.38 95.0169 206.901 113.184 206.901 93.3549C206.901 65.0345 211.353 81.2171 211.353 95.8846C211.877 101.974 212.379 134.232 212.86 94.8834C212.86 70.0254 209.544 107.033 209.544 92.9995C209.544 94.0992 216.305 137.316 216.305 92.0901V92.0817ZM189.557 83.4932C189.557 81.6059 159.476 100.208 159.476 87.538C159.476 85.2236 144.727 79.2581 144.727 79.158C144.727 84.7013 174.808 67.8128 174.808 75.1132C174.808 70.3158 189.557 86.7737 189.557 83.4932ZM124.105 92.2953C124.105 103.402 94.0245 96.4403 94.0245 96.3402C94.0245 75.0014 79.2752 103.295 79.2752 87.9602C79.2752 111.321 93.1434 123.718 93.1434 86.0946C92.8965 51.3848 92.6645 101.88 92.4459 85.7325C92.2273 101.718 92.0288 108.211 91.8469 85.3571C91.8469 106.167 77.9787 100.176 77.9787 87.2226C77.9787 73.4078 63.2294 60.9029 63.2294 78.8426C63.2294 75.4135 70.75 103.497 78.269 87.7566C85.7896 107.063 93.3086 94.1676 93.3086 74.7978C93.3086 104.61 100.11 55.4447 100.11 78.6624C100.531 59.2008 100.963 64.6373 101.408 78.4705C101.852 77.6812 102.303 65.7002 102.755 78.307C102.755 72.5835 95.9534 49.7312 95.9534 74.444C95.9534 85.4572 126.034 64.0967 126.034 70.3992C126.034 38.6963 140.784 90.318 140.784 78.7792C140.784 84.3375 126.915 83.7985 126.915 80.6448C127.162 100.27 127.394 110.452 127.613 81.0069C127.831 73.6047 128.03 87.528 128.212 81.3823C128.212 85.3637 142.08 106.534 142.08 79.5167C142.08 84.6195 145.768 75.8841 149.456 103.377C153.143 75.0664 156.831 110.217 156.831 87.8968C156.831 109.658 126.75 113.828 126.75 91.9416C126.75 101.376 119.95 50.8041 119.95 88.0786C119.53 94.4646 119.098 89.5621 118.652 88.2705C118.207 72.1696 117.758 111.45 117.306 88.4341C117.306 105.76 124.105 106.512 124.105 92.297V92.2953ZM173.509 74.3773C173.509 111.081 143.428 73.563 143.428 78.4221C143.428 75.3768 128.679 85.8076 128.679 70.0421C128.679 62.2962 158.76 87.2743 158.76 65.9973C158.76 54.9558 173.509 69.6833 173.509 74.3773ZM142.713 56.8797C142.713 87.9285 157.462 68.2566 157.462 65.2597C157.462 75.8741 149.941 93.9523 142.421 80.4579C134.9 65.6852 127.379 96.5321 127.379 69.3046C127.379 75.29 112.63 61.27 112.63 60.9245C112.63 31.0022 142.711 46.6392 142.711 56.8797H142.713ZM109.987 61.28C109.987 48.4313 124.736 90.3497 124.736 69.66C124.736 79.1163 94.6552 75.7256 94.6552 73.7048C94.6552 98.0856 79.906 61.1398 79.906 65.3248C79.906 51.535 87.4266 72.5167 94.9472 75.1399C102.468 82.0197 109.989 59.3343 109.989 61.28H109.987ZM77.2611 65.6802C77.2611 64.2368 92.0104 52.9434 92.0104 74.0602C92.0104 92.3938 61.9295 65.737 61.9295 78.1051C61.9295 72.7353 47.1802 74.0752 47.1802 69.7251C47.1802 69.5782 54.7009 104.114 62.2199 84.239C69.7405 95.329 77.2595 69.6283 77.2595 65.6802H77.2611ZM14.4562 74.127C14.4562 80.4479 44.5371 33.1714 44.5371 70.0821C44.5371 62.0676 59.2864 35.6844 59.2864 78.4622C59.2864 108.932 29.2055 68.4419 29.2055 82.507C29.2055 122.213 14.4562 31.2842 14.4562 74.127ZM30.5037 83.2445C30.5037 98.7948 60.5846 39.3371 60.5846 79.1997C60.5846 66.1224 75.3338 86.4233 75.3338 87.5797C75.3338 92.9912 45.2529 92.599 45.2529 91.6245C45.2529 111.063 30.5037 69.0693 30.5037 83.2445ZM46.5512 92.3621C46.5512 61.4752 54.0718 93.5168 61.5924 97.4615C69.1131 83.6016 76.6337 106.451 76.6337 88.3156C76.6337 80.1659 91.383 93.8889 91.383 96.6956C91.383 80.7065 83.8624 76.3329 76.3417 75.7105C68.8211 68.8407 61.3004 86.5184 61.3004 100.742C61.3004 67.2204 46.5512 116.257 46.5512 92.3621ZM77.3479 109.86C77.3479 121.811 62.5986 97.2813 62.5986 101.48C62.5986 91.743 70.1193 107.814 77.6399 113.127C85.1606 125.437 92.6812 130.084 92.6812 97.4348C92.6812 105.343 107.43 96.2184 107.43 105.815C107.43 85.0801 99.9098 98.0055 92.3892 94.9702C84.8685 102.881 77.3479 106.032 77.3479 109.86ZM110.074 105.459C110.074 107.609 95.3244 106.375 95.3244 97.0794C95.3244 101.939 125.405 91.4376 125.405 93.0345C125.405 126.456 140.155 23.1278 140.155 101.415C140.155 103.063 132.634 106.3 125.115 114.408C117.594 102.694 110.075 118.071 110.075 105.459H110.074ZM142.799 101.059C142.799 103.359 128.05 118.335 128.05 92.6791C128.05 108.74 135.571 103.958 143.091 104.175C150.612 80.7983 158.133 99.0467 158.133 88.6343C158.133 94.5547 172.882 56.0204 172.882 97.0143C172.882 101.251 142.801 114.702 142.801 101.059H142.799ZM175.525 96.6589C175.525 97.2229 160.776 88.2055 160.776 88.2789C160.776 82.0414 168.296 79.2564 175.817 74.8779C183.338 67.3973 190.858 55.2862 190.858 84.234C190.858 113.182 205.608 114.47 205.608 92.6141C205.608 82.4469 175.527 94.6031 175.527 96.6589H175.525Z" fill="#222222"/>
</g>
<g clip-path="url(#clip1_25_2)">
<path d="M249.687 91.3939C218.56 59.9562 217.352 55.2142 258.312 69.0097C218.805 48.8466 216.842 45.1459 260 44.9487C216.172 38.4559 212.003 35.5215 250.095 18.0311C208.375 30.33 202.972 30.5405 227.663 1.24051C197.07 28.7651 193.302 33.9244 202.212 11.4567C193.43 32.4791 190.835 39.2658 190.353 40.328C187.324 46.9934 186.279 42.2381 156.95 44.9468C182.902 40.2958 177.362 38.4445 138.073 25.6031C174.924 34.2089 166.482 27.7522 129.592 0L249.687 91.3939Z" fill="#E74B00"/>
</g>
<defs>
<clipPath id="clip0_25_2">
<rect width="220.063" height="85.7757" fill="white" transform="translate(0 43.198)"/>
</clipPath>
<clipPath id="clip1_25_2">
<rect width="130.408" height="91.3939" fill="white" transform="translate(129.592)"/>
</clipPath>
</defs>
</svg>
