<svg width="760" height="600" viewBox="0 0 760 600" fill="none" xmlns="http://www.w3.org/2000/svg">
<rect width="760" height="600" rx="15" fill="#222222"/>
<mask id="mask0_25_2" style="mask-type:alpha" maskUnits="userSpaceOnUse" x="0" y="0" width="760" height="600">
<rect width="760" height="600" rx="15" fill="#222222"/>
</mask>
<g opacity="0.2" filter="url(#filter0_f_25_2)">
<circle cx="380" cy="300" r="200" fill="#ECCCBB"/>
</g>
<path d="M593.897 323.262C593.797 323.379 593.659 323.543 593.479 323.754C591.676 325.859 585.848 332.522 576.266 341.486C553.733 362.57 510.453 396.388 450.077 413.57L486.18 403.295C546.556 386.113 589.836 352.295 612.369 331.211C621.951 322.247 627.784 315.579 629.582 313.479C629.762 313.268 629.899 313.109 630 312.987L593.897 323.262Z" fill="#4353FF"/>
<path d="M356.576 186.296C506.873 189.75 589.55 316.589 593.897 323.262C589.476 328.471 505.498 427.468 366.28 424.268C227.568 421.085 134.881 318.038 130 312.612C134.141 306.128 212.825 182.996 356.576 186.296Z" fill="#A2A2A2"/>
<path d="M629.773 312.643C583.633 245.779 512.267 193.478 431.262 179.733C410.299 175.624 402.367 176.169 392.679 176.021C357.258 175.487 319.304 185.201 285.655 195.291C288.801 194.398 292.022 193.562 295.232 192.801C315.28 187.962 335.925 185.836 356.57 186.296C452.447 187.824 540.739 245.514 593.892 323.262L629.995 312.987C629.937 312.897 629.857 312.776 629.767 312.638L629.773 312.643Z" fill="#4D4D4D"/>
<path d="M356.149 390.694C394.043 379.907 414.851 336.346 402.625 293.399C390.399 250.452 349.769 224.381 311.876 235.168C273.982 245.955 253.174 289.516 265.4 332.463C277.625 375.41 318.255 401.481 356.149 390.694Z" fill="#4353FF"/>
<path d="M406.026 314.605C405.735 307.456 404.598 300.512 402.753 293.881L371.637 255.023L364.18 245.71L359.659 240.062C350.706 235.615 340.922 233.029 330.737 232.796C329.124 232.759 327.538 232.801 325.957 232.881L326.052 233.002L333.508 242.315L368.242 285.695L375.698 295.007L405.058 331.676C405.91 326.187 406.259 320.481 406.021 314.605H406.026Z" fill="#E74B00"/>
<path d="M361.134 349.905L353.678 340.592L318.944 297.212L311.488 287.9L283.153 252.511C277.955 257.873 273.566 264.171 270.139 271.168L273.359 275.187L280.816 284.499L315.549 327.879L323.006 337.192L344.101 363.538L357.739 380.571L363.704 388.017C370.463 385.119 376.655 381.079 382.091 376.071L374.772 366.933L361.134 349.899V349.905Z" fill="#E74B00"/>
<path d="M366.385 302.464L358.929 293.151L324.196 249.771L316.739 240.459L312.398 235.038C305.079 237.048 298.288 240.358 292.202 244.726L320.801 280.449L328.257 289.761L362.99 333.141L370.447 342.454L390.214 367.144C394.921 360.989 398.728 353.95 401.431 346.24L401.119 345.849L366.385 302.469V302.464Z" fill="#E74B00"/>
<path d="M269.023 342.871C270.959 347.472 273.254 351.861 275.866 355.997C282.022 365.748 289.933 374.067 299.034 380.349L279.891 356.441L269.028 342.871H269.023Z" fill="#E74B00"/>
<path d="M327.332 361.692L313.693 344.659L306.237 335.346L271.503 291.967L265.173 284.066C262.741 292.532 261.593 301.702 261.99 311.306C262.043 312.649 262.133 313.987 262.244 315.32L268.108 322.644L275.565 331.956L296.66 358.303L310.298 375.336L317.755 384.649L323.022 391.227C327.649 392.354 332.414 393.004 337.268 393.115C342.16 393.226 346.909 392.787 351.483 391.862L348.421 388.038L327.326 361.692H327.332Z" fill="#E74B00"/>
<path d="M375.703 295.007L368.247 285.695L333.514 242.315L326.057 233.002L325.962 232.881C321.287 233.119 316.75 233.843 312.403 235.038L316.744 240.459L324.201 249.771L358.934 293.151L366.391 302.464L401.124 345.843L401.436 346.235C403.06 341.607 404.281 336.737 405.064 331.676L375.703 295.007V295.007Z" fill="#E74B00"/>
<path d="M362.99 333.135L328.257 289.756L320.8 280.443L292.202 244.721C288.981 247.037 285.946 249.628 283.153 252.511L311.488 287.9L318.944 297.212L353.678 340.592L361.134 349.905L374.772 366.938L382.091 376.076C384.609 373.76 386.962 371.232 389.135 368.524C389.506 368.07 389.86 367.599 390.22 367.134L370.452 342.443L362.996 333.13L362.99 333.135Z" fill="#E74B00"/>
<path d="M371.637 255.017L402.753 293.876C396.095 269.951 380.029 250.168 359.659 240.057L364.18 245.705L371.637 255.017V255.017Z" fill="#E74B00"/>
<path d="M344.101 363.548L323.006 337.202L315.549 327.89L280.816 284.51L273.36 275.197L270.139 271.178C268.145 275.25 266.469 279.555 265.173 284.066L271.503 291.966L306.237 335.346L313.693 344.659L327.332 361.692L348.426 388.038L351.488 391.862C355.73 391 359.807 389.699 363.704 388.028L357.739 380.582L344.101 363.548V363.548Z" fill="#E74B00"/>
<path d="M310.298 375.33L296.66 358.297L275.565 331.951L268.108 322.638L262.244 315.314C263.069 325.023 265.422 334.309 269.028 342.876L279.891 356.446L299.034 380.354C306.364 385.415 314.46 389.149 323.027 391.232L317.76 384.654L310.303 375.341L310.298 375.33Z" fill="#E74B00"/>
<path d="M459.009 316.842C459.025 316.731 459.036 316.62 459.052 316.514C459.258 315.198 459.443 313.876 459.586 312.538C459.591 312.485 459.602 312.432 459.607 312.379C459.623 312.21 459.628 312.041 459.649 311.871C459.771 310.666 459.866 309.444 459.94 308.217C459.951 308.006 459.977 307.805 459.988 307.593C459.998 307.424 459.988 307.249 459.998 307.08C460.067 305.573 460.109 304.061 460.104 302.532C460.104 302.501 460.104 302.469 460.104 302.437C460.099 301.374 460.072 300.311 460.03 299.238C459.998 298.402 459.951 297.572 459.893 296.742C459.882 296.557 459.85 296.377 459.834 296.186C459.692 294.298 459.507 292.426 459.253 290.57C459.242 290.48 459.237 290.39 459.226 290.3C459.147 289.735 459.041 289.179 458.951 288.614C458.845 287.963 458.75 287.307 458.634 286.662C458.512 285.985 458.364 285.314 458.227 284.642C458.095 284.002 457.973 283.357 457.825 282.722C457.798 282.617 457.783 282.506 457.756 282.395C457.719 282.236 457.666 282.083 457.629 281.924C457.116 279.756 456.535 277.609 455.873 275.504C455.863 275.462 455.852 275.419 455.836 275.382C455.165 273.272 454.409 271.205 453.594 269.169C453.531 269.005 453.483 268.835 453.414 268.671C453.372 268.56 453.319 268.46 453.272 268.349C452.69 266.937 452.082 265.546 451.437 264.176C451.336 263.96 451.225 263.753 451.119 263.542C450.564 262.384 449.982 261.241 449.38 260.115C449.29 259.951 449.216 259.782 449.126 259.618C449.041 259.465 448.941 259.322 448.856 259.163C447.777 257.207 446.64 255.297 445.429 253.441C445.271 253.198 445.107 252.965 444.948 252.722C443.71 250.866 442.42 249.063 441.061 247.323C440.998 247.243 440.945 247.159 440.887 247.08C440.617 246.736 440.326 246.408 440.051 246.069C439.617 245.535 439.184 244.996 438.734 244.472C438.343 244.018 437.946 243.573 437.55 243.124C437.095 242.616 436.64 242.103 436.175 241.606C436.037 241.463 435.91 241.305 435.773 241.162C435.63 241.014 435.471 240.876 435.329 240.728C434.038 239.385 432.716 238.074 431.347 236.826C431.336 236.815 431.325 236.804 431.315 236.794C431.315 236.794 431.31 236.789 431.304 236.783C430.109 235.694 428.872 234.663 427.618 233.653C427.465 233.531 427.322 233.393 427.169 233.272C426.973 233.118 426.772 232.981 426.577 232.833C425.688 232.14 424.784 231.474 423.869 230.818C423.647 230.659 423.435 230.485 423.208 230.326C423.113 230.258 423.012 230.205 422.917 230.136C421.769 229.348 420.611 228.581 419.427 227.857C419.421 227.857 419.416 227.851 419.411 227.846C419.353 227.809 419.295 227.783 419.242 227.746C418.152 227.085 417.042 226.45 415.926 225.847C415.831 225.794 415.741 225.736 415.646 225.688C415.334 225.525 415.016 225.382 414.704 225.218C413.938 224.821 413.165 224.43 412.388 224.06C412.219 223.98 412.05 223.885 411.88 223.806C411.574 223.663 411.262 223.547 410.955 223.409C410.246 223.092 409.532 222.785 408.813 222.489C408.575 222.394 408.343 222.278 408.099 222.182C407.835 222.077 407.565 221.992 407.295 221.892C406.582 221.622 405.868 221.363 405.143 221.114C404.847 221.008 404.551 220.892 404.255 220.792C404.043 220.723 403.826 220.67 403.61 220.601C402.853 220.363 402.097 220.141 401.33 219.924C400.987 219.829 400.643 219.707 400.299 219.618C400.151 219.581 399.998 219.554 399.85 219.512C398.982 219.29 398.105 219.094 397.227 218.904C396.888 218.83 396.555 218.74 396.217 218.671C396.143 218.655 396.069 218.65 396 218.634C394.667 218.375 393.324 218.147 391.975 217.968C391.938 217.968 391.901 217.957 391.87 217.952C391.69 217.931 391.505 217.92 391.325 217.899C390.125 217.751 388.913 217.634 387.697 217.55C387.523 217.539 387.348 217.508 387.168 217.497C386.359 217.449 385.545 217.418 384.725 217.396C383.81 217.375 382.895 217.375 381.991 217.391C381.684 217.396 381.388 217.439 381.082 217.449C379.844 217.492 378.623 217.576 377.406 217.682C376.988 217.719 376.56 217.719 376.148 217.761C375.931 217.788 375.714 217.825 375.497 217.851C375.064 217.904 374.63 217.973 374.202 218.031C373.176 218.174 372.155 218.343 371.145 218.539C370.701 218.623 370.257 218.708 369.818 218.803C369.543 218.861 369.262 218.904 368.987 218.967C367.919 219.21 366.861 219.485 365.814 219.781L311.8 235.154C313.117 234.779 314.455 234.467 315.803 234.176C316.242 234.081 316.686 233.996 317.131 233.912C318.141 233.716 319.161 233.547 320.187 233.404C320.621 233.346 321.049 233.277 321.483 233.224C322.112 233.15 322.757 233.108 323.397 233.055C324.614 232.944 325.83 232.859 327.067 232.822C328.278 232.78 329.484 232.743 330.711 232.769C331.705 232.791 332.689 232.854 333.678 232.923C334.894 233.007 336.1 233.124 337.3 233.267C337.522 233.293 337.744 233.309 337.961 233.335C339.315 233.515 340.653 233.743 341.985 234.002C342.393 234.081 342.795 234.181 343.202 234.266C344.085 234.456 344.963 234.652 345.835 234.874C346.327 235.001 346.819 235.144 347.311 235.281C348.078 235.498 348.839 235.72 349.601 235.958C350.114 236.122 350.621 236.297 351.129 236.471C351.853 236.72 352.567 236.979 353.281 237.254C353.784 237.444 354.291 237.645 354.788 237.846C355.508 238.142 356.227 238.449 356.935 238.766C357.417 238.978 357.893 239.189 358.368 239.417C359.146 239.782 359.913 240.173 360.679 240.57C361.087 240.781 361.504 240.982 361.906 241.204C363.017 241.807 364.117 242.431 365.201 243.092C365.27 243.134 365.344 243.171 365.412 243.214C366.592 243.938 367.75 244.7 368.892 245.488C369.215 245.71 369.532 245.948 369.849 246.175C370.764 246.826 371.663 247.492 372.552 248.185C372.901 248.46 373.255 248.735 373.599 249.01C374.852 250.014 376.084 251.051 377.279 252.135C377.295 252.151 377.316 252.167 377.332 252.188C378.697 253.431 380.013 254.737 381.304 256.075C381.589 256.371 381.88 256.662 382.16 256.963C382.62 257.455 383.07 257.963 383.519 258.465C383.921 258.915 384.323 259.364 384.715 259.824C385.159 260.348 385.592 260.877 386.026 261.411C386.365 261.828 386.708 262.246 387.041 262.669C388.401 264.409 389.691 266.212 390.928 268.063C391.087 268.307 391.256 268.545 391.415 268.788C392.621 270.639 393.763 272.548 394.836 274.504C395.011 274.827 395.191 275.144 395.365 275.467C395.963 276.588 396.539 277.725 397.094 278.878C397.2 279.095 397.311 279.311 397.417 279.528C398.062 280.898 398.67 282.289 399.247 283.695C399.358 283.97 399.464 284.251 399.569 284.526C400.384 286.556 401.14 288.624 401.812 290.729C401.827 290.776 401.838 290.819 401.854 290.866C402.515 292.966 403.097 295.108 403.61 297.276C403.673 297.54 403.747 297.805 403.805 298.074C403.953 298.714 404.075 299.359 404.207 300.004C404.345 300.676 404.487 301.342 404.609 302.014C404.725 302.664 404.826 303.32 404.926 303.971C405.032 304.621 405.138 305.266 405.228 305.917C405.482 307.773 405.672 309.645 405.809 311.533C405.884 312.548 405.963 313.558 406.005 314.579C406.053 315.684 406.074 316.779 406.079 317.873C406.084 319.402 406.042 320.92 405.973 322.427C405.958 322.807 405.936 323.183 405.91 323.564C405.836 324.796 405.741 326.017 405.619 327.228C405.598 327.445 405.582 327.667 405.561 327.879C405.413 329.222 405.233 330.549 405.022 331.866C404.969 332.21 404.905 332.548 404.847 332.892C404.678 333.881 404.493 334.865 404.292 335.843C404.212 336.224 404.133 336.61 404.048 336.985C403.795 338.117 403.525 339.238 403.229 340.349C403.192 340.481 403.16 340.624 403.128 340.756C402.79 341.999 402.42 343.22 402.028 344.431C401.923 344.764 401.806 345.092 401.695 345.42C401.373 346.372 401.034 347.308 400.68 348.239C400.558 348.567 400.437 348.889 400.304 349.217C399.823 350.433 399.316 351.634 398.781 352.808C398.707 352.972 398.623 353.136 398.549 353.3C398.046 354.384 397.512 355.452 396.962 356.504C396.814 356.79 396.661 357.081 396.507 357.366C395.836 358.614 395.138 359.836 394.403 361.031C394.297 361.2 394.186 361.369 394.08 361.539C393.239 362.887 392.361 364.204 391.441 365.478C391.399 365.537 391.362 365.595 391.32 365.653C390.167 367.245 388.951 368.784 387.681 370.264C387.655 370.296 387.634 370.328 387.607 370.354C386.856 371.227 386.079 372.073 385.286 372.908C385.053 373.157 384.81 373.395 384.572 373.638C383.99 374.231 383.403 374.812 382.8 375.378C382.531 375.637 382.256 375.891 381.981 376.145C381.314 376.758 380.637 377.351 379.95 377.932C379.754 378.096 379.564 378.271 379.368 378.435C378.49 379.164 377.591 379.863 376.676 380.545C376.449 380.714 376.216 380.873 375.984 381.042C375.275 381.555 374.561 382.052 373.837 382.533C373.525 382.739 373.218 382.94 372.901 383.141C372.187 383.596 371.468 384.035 370.738 384.463C370.468 384.622 370.198 384.786 369.929 384.939C368.94 385.5 367.935 386.039 366.914 386.542C366.74 386.626 366.56 386.706 366.385 386.79C365.529 387.208 364.662 387.605 363.784 387.98C363.451 388.123 363.112 388.26 362.779 388.398C362.012 388.715 361.235 389.011 360.452 389.297C360.124 389.418 359.802 389.54 359.474 389.651C358.384 390.027 357.29 390.386 356.174 390.698L410.188 375.325C411.304 375.008 412.399 374.654 413.488 374.273C413.816 374.162 414.139 374.04 414.461 373.919C415.244 373.633 416.021 373.332 416.793 373.019C417.126 372.882 417.465 372.744 417.798 372.602C418.676 372.221 419.548 371.824 420.41 371.407C420.585 371.322 420.759 371.248 420.929 371.163C421.949 370.656 422.954 370.116 423.948 369.556C424.218 369.402 424.482 369.238 424.752 369.085C425.482 368.657 426.206 368.218 426.92 367.758C427.232 367.557 427.544 367.356 427.851 367.15C428.581 366.663 429.3 366.166 430.009 365.653C430.236 365.489 430.463 365.336 430.686 365.166C431.6 364.484 432.499 363.781 433.383 363.051C433.578 362.887 433.769 362.718 433.959 362.554C434.646 361.972 435.329 361.375 435.995 360.761C436.122 360.645 436.249 360.544 436.376 360.428C436.524 360.291 436.667 360.137 436.815 360C437.417 359.429 438.01 358.847 438.591 358.249C438.829 358.011 439.067 357.773 439.3 357.525C440.093 356.695 440.871 355.843 441.622 354.971C441.632 354.96 441.637 354.949 441.648 354.944C441.664 354.923 441.68 354.902 441.696 354.881C442.965 353.4 444.181 351.866 445.334 350.269C445.345 350.259 445.355 350.243 445.366 350.232C445.397 350.19 445.424 350.142 445.456 350.1C446.376 348.826 447.254 347.504 448.094 346.16C448.163 346.049 448.248 345.944 448.317 345.827C448.354 345.769 448.385 345.706 448.417 345.647C449.152 344.452 449.85 343.231 450.522 341.983C450.59 341.861 450.665 341.745 450.728 341.623C450.818 341.459 450.892 341.285 450.977 341.115C451.527 340.063 452.055 338.995 452.563 337.911C452.621 337.789 452.685 337.667 452.743 337.546C452.759 337.509 452.775 337.467 452.79 337.429C453.33 336.25 453.832 335.05 454.313 333.833C454.361 333.717 454.414 333.601 454.462 333.484C454.541 333.278 454.604 333.067 454.684 332.866C455.038 331.935 455.376 330.994 455.699 330.042C455.773 329.83 455.858 329.624 455.926 329.412C455.963 329.296 455.995 329.175 456.032 329.058C456.423 327.847 456.794 326.631 457.132 325.388C457.137 325.362 457.148 325.341 457.153 325.319C457.185 325.203 457.206 325.081 457.238 324.965C457.534 323.86 457.804 322.744 458.052 321.623C458.089 321.459 458.137 321.3 458.169 321.142C458.216 320.925 458.248 320.697 458.296 320.481C458.496 319.508 458.682 318.529 458.851 317.54C458.893 317.302 458.946 317.07 458.983 316.832L459.009 316.842Z" fill="#4353FF"/>
<defs>
<filter id="filter0_f_25_2" x="-20" y="-100" width="800" height="800" filterUnits="userSpaceOnUse" color-interpolation-filters="sRGB">
<feFlood flood-opacity="0" result="BackgroundImageFix"/>
<feBlend mode="normal" in="SourceGraphic" in2="BackgroundImageFix" result="shape"/>
<feGaussianBlur stdDeviation="100" result="effect1_foregroundBlur_25_2"/>
</filter>
</defs>
</svg>
